<svg width="240" height="54" viewBox="0 0 240 54" fill="none" xmlns="http://www.w3.org/2000/svg">
<path d="M19.55 9.17838C21.8984 8.1851 24.3917 7.68147 26.9606 7.68147C29.5296 7.68147 32.0229 8.1851 34.3712 9.17838C34.6955 9.31555 35.0145 9.46215 35.3292 9.61613L26.9606 1.24756L18.592 9.61613C18.9067 9.46215 19.2257 9.31555 19.55 9.17838Z" fill="#29593C"/>
<path d="M44.0625 35.0867L52.4311 26.7182L44.0625 18.3496C44.2165 18.6643 44.3631 18.9833 44.5003 19.3076C45.4935 21.6559 45.9972 24.1492 45.9972 26.7182C45.9972 29.2871 45.4935 31.7804 44.5003 34.1288C44.3631 34.4531 44.2165 34.7721 44.0625 35.0867Z" fill="#29593C"/>
<path d="M34.3712 44.2581C32.0228 45.2513 29.5296 45.755 26.9606 45.755C24.3916 45.755 21.8983 45.2513 19.55 44.2581C19.2257 44.1209 18.9067 43.9743 18.592 43.8203L26.9606 52.1889L35.3291 43.8203C35.0145 43.9743 34.6955 44.1209 34.3712 44.2581Z" fill="#29593C"/>
<path d="M9.42081 34.1288C8.42754 31.7804 7.9239 29.2872 7.9239 26.7182C7.9239 24.1492 8.42754 21.6559 9.42081 19.3076C9.55798 18.9833 9.70459 18.6643 9.85856 18.3496L1.48999 26.7182L9.85855 35.0867C9.70458 34.7721 9.55798 34.4531 9.42081 34.1288Z" fill="#29593C"/>
<path d="M15.9574 16.9495L14.2845 15.6657L14.2588 15.646L13.7283 16.3372L13.6115 16.4895L12.979 17.3138L13.0041 17.333C11.1979 20.0137 10.1428 23.2425 10.1428 26.718C10.1428 30.7579 11.5678 34.4647 13.9419 37.3644L13.9185 37.3861L14.5035 38.0165L14.6262 38.1488L15.3484 38.9271L15.3719 38.9053L16.9168 37.4718L28.5879 26.6418L15.9574 16.9495ZM15.4857 35.9319C13.3863 33.3275 12.245 30.1107 12.245 26.718C12.245 23.8134 13.1071 21.0002 14.6776 18.6173L25.3332 26.7941L15.4857 35.9319Z" fill="#D7B13F"/>
<path d="M26.9605 9.90039C22.6948 9.90039 18.8003 11.4889 15.8354 14.1062L17.5398 15.414C20.1804 13.2113 23.5074 12.0026 26.9605 12.0026C30.8911 12.0026 34.5865 13.5333 37.3659 16.3127C40.1453 19.092 41.6759 22.7874 41.6759 26.7181C41.6759 30.6487 40.1453 34.3441 37.3659 37.1235C34.5865 39.9029 30.8911 41.4335 26.9605 41.4335C23.903 41.4335 20.9881 40.507 18.5358 38.7875L16.966 40.2441C19.7602 42.3122 23.2173 43.5358 26.9605 43.5358C36.2486 43.5358 43.7782 36.0062 43.7782 26.7181C43.7782 17.4299 36.2486 9.90039 26.9605 9.90039Z" fill="#29593C"/>
<path d="M65.9654 15.8752C64.6678 15.8752 63.6441 15.4548 62.8941 14.6138C62.144 13.773 61.769 12.6252 61.769 11.1705C61.769 9.71604 62.144 8.56936 62.8941 7.73039C63.6441 6.89154 64.6678 6.47217 65.9654 6.47217C67.0232 6.47217 67.9168 6.78729 68.6462 7.41743C69.3755 8.04757 69.7753 8.85027 69.8456 9.82553H68.0233C67.9323 9.30899 67.6999 8.89566 67.3259 8.58578C66.9519 8.2759 66.4984 8.12091 65.9654 8.12091C65.2628 8.12091 64.7071 8.39361 64.298 8.93912C63.8889 9.48451 63.6843 10.2284 63.6843 11.1705C63.6843 12.1127 63.8889 12.8576 64.298 13.4051C64.7071 13.9527 65.265 14.2263 65.9715 14.2263C66.5087 14.2263 66.9633 14.0798 67.3352 13.7863C67.7072 13.493 67.9385 13.1004 68.0295 12.6086H69.8518C69.7732 13.5756 69.3755 14.3618 68.6586 14.9671C67.9417 15.5725 67.044 15.8752 65.9654 15.8752Z" fill="#29593C"/>
<path d="M75.5481 6.47217C76.8704 6.47217 77.917 6.89359 78.6876 7.73655C79.4583 8.57962 79.8436 9.72425 79.8436 11.1705C79.8436 12.6209 79.4583 13.7677 78.6876 14.6107C77.917 15.4537 76.8704 15.8752 75.5481 15.8752C74.2217 15.8752 73.1721 15.4537 72.3993 14.6107C71.6265 13.7677 71.2402 12.6209 71.2402 11.1705C71.2402 9.72425 71.6286 8.57962 72.4055 7.73655C73.1823 6.89359 74.2299 6.47217 75.5481 6.47217ZM77.2868 8.9422C76.8549 8.39053 76.2754 8.11475 75.5481 8.11475C74.8208 8.11475 74.2403 8.39053 73.8064 8.9422C73.3724 9.49387 73.1555 10.2367 73.1555 11.1705C73.1555 12.1045 73.3714 12.8483 73.8033 13.402C74.235 13.9558 74.8167 14.2326 75.5481 14.2326C76.2754 14.2326 76.8549 13.9558 77.2868 13.402C77.7186 12.8483 77.9345 12.1045 77.9345 11.1705C77.9345 10.2367 77.7186 9.49387 77.2868 8.9422Z" fill="#29593C"/>
<path d="M90.5361 17.4122H88.8439V15.6456H81.7405V6.70117H83.6124V14.0464H87.5484V6.70117H89.4203V14.0464H90.5361V17.4122Z" fill="#29593C"/>
<path d="M98.0548 15.6456V9.71991H97.9432L93.9204 15.6456H92.1167V6.70117H93.9824V12.6331H94.0939L98.1168 6.70117H99.9205V15.6456H98.0548Z" fill="#29593C"/>
<path d="M107.96 15.6456L107.284 13.5133H104.142L103.454 15.6456H101.575L104.681 6.70117H106.881L109.987 15.6456H107.96ZM105.666 8.56079L104.545 12.069H106.888L105.778 8.56079H105.666Z" fill="#29593C"/>
<path d="M118.82 15.6456H116.948V8.30041H114.338L114.121 12.0939C114.096 12.5485 114.049 12.9576 113.979 13.3212C113.908 13.6848 113.806 14.0196 113.672 14.3253C113.537 14.6312 113.371 14.8853 113.173 15.0878C112.974 15.2902 112.733 15.4473 112.448 15.5588C112.163 15.6704 111.838 15.7262 111.474 15.7262C111.193 15.7262 110.968 15.6992 110.799 15.6456V13.941C110.952 13.9742 111.09 13.9906 111.214 13.9906C111.392 13.9906 111.548 13.9565 111.682 13.8883C111.816 13.8202 111.925 13.7293 112.008 13.6156C112.09 13.502 112.159 13.3553 112.215 13.1755C112.271 12.9957 112.312 12.812 112.339 12.6239C112.366 12.4358 112.386 12.2158 112.398 11.9638L112.665 6.70117H118.82V15.6456Z" fill="#29593C"/>
<path d="M121.113 15.6456V6.70117H122.985V9.67029H124.721C125.667 9.67029 126.435 9.94516 127.026 10.4947C127.617 11.0443 127.913 11.7653 127.913 12.6579C127.913 13.5547 127.627 14.2769 127.054 14.8243C126.482 15.3719 125.735 15.6456 124.813 15.6456H121.113ZM122.985 14.1021H124.318C124.855 14.1021 125.269 13.9772 125.56 13.7271C125.852 13.4772 125.997 13.1188 125.997 12.6517C125.997 12.1807 125.851 11.8202 125.557 11.5701C125.264 11.3202 124.848 11.1951 124.311 11.1951H122.985V14.1021Z" fill="#29593C"/>
<path d="M137.533 15.6456H135.661V11.9079H131.632V15.6456H129.76V6.70117H131.632V10.3088H135.661V6.70117H137.533V15.6456Z" fill="#29593C"/>
<path d="M143.738 6.47217C145.06 6.47217 146.106 6.89359 146.877 7.73655C147.648 8.57962 148.033 9.72425 148.033 11.1705C148.033 12.6209 147.648 13.7677 146.877 14.6107C146.106 15.4537 145.06 15.8752 143.738 15.8752C142.411 15.8752 141.362 15.4537 140.589 14.6107C139.816 13.7677 139.43 12.6209 139.43 11.1705C139.43 9.72425 139.818 8.57962 140.595 7.73655C141.372 6.89359 142.419 6.47217 143.738 6.47217ZM145.476 8.9422C145.044 8.39053 144.465 8.11475 143.738 8.11475C143.01 8.11475 142.43 8.39053 141.996 8.9422C141.562 9.49387 141.345 10.2367 141.345 11.1705C141.345 12.1045 141.561 12.8483 141.993 13.402C142.424 13.9558 143.006 14.2326 143.738 14.2326C144.465 14.2326 145.044 13.9558 145.476 13.402C145.908 12.8483 146.124 12.1045 146.124 11.1705C146.124 10.2367 145.908 9.49387 145.476 8.9422Z" fill="#29593C"/>
<path d="M153.897 12.8812H149.824V11.189H153.897V12.8812Z" fill="#29593C"/>
<path d="M69.8457 30.879H67.9799V23.54H64.0439V30.879H62.1658V21.9346H69.8457V30.879Z" fill="#29593C"/>
<path d="M72.1392 21.9346H75.8706C76.792 21.9346 77.539 22.2188 78.1113 22.7869C78.6836 23.3551 78.9699 24.102 78.9699 25.0277C78.9699 25.945 78.6744 26.6868 78.0834 27.2529C77.4924 27.8191 76.7238 28.1021 75.7777 28.1021H74.0111V30.879H72.1392V21.9346ZM74.0111 23.4719V26.5835H75.3685C75.9098 26.5835 76.3282 26.4502 76.6237 26.1837C76.9191 25.9172 77.0669 25.5339 77.0669 25.0338C77.0669 24.5297 76.9201 24.1434 76.6268 23.8747C76.3333 23.6061 75.916 23.4719 75.3747 23.4719H74.0111Z" fill="#29593C"/>
<path d="M86.7426 29.2798V30.879H80.8169V21.9346H86.7426V23.5338H82.6888V25.6227H86.5132V27.1041H82.6888V29.2798H86.7426Z" fill="#29593C"/>
<path d="M89.6373 30.879V32.6456H87.939V29.2798H88.565C88.8626 29.0691 89.0733 28.786 89.1973 28.4306C89.3213 28.0753 89.4039 27.5753 89.4453 26.9306L89.7551 21.9346H96.0962V29.2798H97.2119V32.6456H95.5197V30.879H89.6373ZM91.1684 27.0855C91.1353 27.6022 91.0775 28.0256 90.9949 28.3563C90.9121 28.6869 90.7819 28.9575 90.6044 29.1682V29.2798H94.2243V23.5277H91.4039L91.1684 27.0855Z" fill="#29593C"/>
<path d="M106.472 30.879H104.607V23.54H100.671V30.879H98.7925V21.9346H106.472V30.879Z" fill="#29593C"/>
<path d="M108.766 21.9346H112.497C113.418 21.9346 114.165 22.2188 114.738 22.7869C115.31 23.3551 115.596 24.102 115.596 25.0277C115.596 25.945 115.301 26.6868 114.71 27.2529C114.119 27.8191 113.35 28.1021 112.404 28.1021H110.638V30.879H108.766V21.9346ZM110.638 23.4719V26.5835H111.995C112.536 26.5835 112.955 26.4502 113.25 26.1837C113.546 25.9172 113.693 25.5339 113.693 25.0338C113.693 24.5297 113.547 24.1434 113.253 23.8747C112.96 23.6061 112.543 23.4719 112.001 23.4719H110.638Z" fill="#29593C"/>
<path d="M123.382 30.879V24.9533H123.27L119.247 30.879H117.444V21.9346H119.309V27.8665H119.421L123.444 21.9346H125.248V30.879H123.382Z" fill="#29593C"/>
<path d="M135.314 30.879H133.442V27.1413H129.413V30.879H127.541V21.9346H129.413V25.5422H133.442V21.9346H135.314V30.879Z" fill="#29593C"/>
<path d="M143.545 30.879V24.9533H143.434L139.411 30.879H137.607V21.9346H139.473V27.8665H139.584L143.607 21.9346H145.411V30.879H143.545Z" fill="#29593C"/>
<path d="M157.176 30.879H155.44V24.8975H155.341L153.066 30.3645H151.82L149.539 24.8975H149.44V30.879H147.705V21.9346H149.911L152.384 27.9472H152.496L154.975 21.9346H157.176V30.879Z" fill="#29593C"/>
<path d="M165.215 30.879L164.54 28.7467H161.397L160.709 30.879H158.831L161.936 21.9346H164.137L167.242 30.879H165.215ZM162.922 23.7942L161.8 27.3024H164.143L163.033 23.7942H162.922Z" fill="#29593C"/>
<path d="M172.033 30.879H170.161V23.5338H167.478V21.9346H174.717V23.5338H172.033V30.879Z" fill="#29593C"/>
<path d="M182.422 29.2798V30.879H176.496V21.9346H182.422V23.5338H178.368V25.6227H182.193V27.1041H178.368V29.2798H182.422Z" fill="#29593C"/>
<path d="M191.639 30.879H189.767V23.5338H187.158L186.941 27.3273C186.916 27.7819 186.868 28.191 186.798 28.5546C186.728 28.9182 186.626 29.253 186.491 29.5587C186.357 29.8646 186.191 30.1187 185.992 30.3212C185.794 30.5236 185.552 30.6807 185.267 30.7922C184.982 30.9038 184.658 30.9596 184.294 30.9596C184.013 30.9596 183.788 30.9326 183.618 30.879V29.1744C183.771 29.2076 183.91 29.224 184.034 29.224C184.211 29.224 184.367 29.1899 184.502 29.1217C184.636 29.0536 184.744 28.9627 184.827 28.849C184.91 28.7354 184.979 28.5887 185.035 28.4089C185.09 28.2291 185.132 28.0454 185.159 27.8573C185.185 27.6692 185.205 27.4492 185.218 27.1972L185.484 21.9346H191.639V30.879Z" fill="#29593C"/>
<path d="M193.933 30.879V21.9346H195.805V24.9037H197.54C198.486 24.9037 199.255 25.1786 199.846 25.7281C200.437 26.2777 200.732 26.9987 200.732 27.8913C200.732 28.7881 200.446 29.5103 199.874 30.0577C199.302 30.6053 198.555 30.879 197.633 30.879H193.933ZM195.805 29.3355H197.137C197.674 29.3355 198.089 29.2106 198.38 28.9605C198.671 28.7106 198.817 28.3522 198.817 27.8851C198.817 27.4141 198.67 27.0536 198.377 26.8035C198.083 26.5536 197.668 26.4285 197.131 26.4285H195.805V29.3355Z" fill="#29593C"/>
<path d="M206.379 31.1086C205.082 31.1086 204.058 30.6882 203.308 29.8472C202.558 29.0064 202.183 27.8586 202.183 26.4039C202.183 24.9494 202.558 23.8028 203.308 22.9638C204.058 22.1249 205.082 21.7056 206.379 21.7056C207.437 21.7056 208.331 22.0207 209.06 22.6508C209.789 23.281 210.189 24.0837 210.259 25.0589H208.437C208.346 24.5424 208.114 24.1291 207.74 23.8192C207.366 23.5093 206.912 23.3543 206.379 23.3543C205.677 23.3543 205.121 23.627 204.712 24.1725C204.303 24.7179 204.098 25.4618 204.098 26.4039C204.098 27.3461 204.303 28.091 204.712 28.6385C205.121 29.1861 205.679 29.4597 206.385 29.4597C206.923 29.4597 207.377 29.3132 207.749 29.0197C208.121 28.7264 208.352 28.3338 208.443 27.842H210.266C210.187 28.809 209.789 29.5952 209.072 30.2005C208.355 30.8059 207.458 31.1086 206.379 31.1086Z" fill="#29593C"/>
<path d="M213.985 25.7343H214.27L217.4 21.9346H219.483L215.85 26.3108L219.731 30.879H217.468L214.282 27.2158H213.985V30.879H212.113V21.9346H213.985V25.7343Z" fill="#29593C"/>
<path d="M226.878 30.879L226.202 28.7467H223.059L222.371 30.879H220.493L223.599 21.9346H225.799L228.904 30.879H226.878ZM224.584 23.7942L223.462 27.3024H225.805L224.696 23.7942H224.584Z" fill="#29593C"/>
<path d="M234.086 27.6682L231.96 30.879H229.89L232.239 27.4017C231.652 27.2158 231.184 26.8965 230.835 26.444C230.486 25.9915 230.311 25.4575 230.311 24.8416C230.311 23.9698 230.605 23.2673 231.192 22.7342C231.778 22.2011 232.568 21.9346 233.559 21.9346H237.192V30.879H235.338V27.6682H234.086ZM235.338 26.2426V23.4533H233.82C233.324 23.4533 232.934 23.5773 232.651 23.8251C232.368 24.073 232.227 24.414 232.227 24.8479C232.227 25.286 232.367 25.6279 232.648 25.8737C232.929 26.1196 233.322 26.2426 233.826 26.2426H235.338Z" fill="#29593C"/>
<path d="M64.0377 40.9677H64.3228L67.4531 37.168H69.5357L65.9035 41.5442L69.7837 46.1124H67.5212L64.3353 42.4492H64.0377V46.1124H62.1658V37.168H64.0377V40.9677Z" fill="#29593C"/>
<path d="M74.6926 36.939C76.015 36.939 77.0615 37.3604 77.8321 38.2033C78.6028 39.0464 78.9882 40.191 78.9882 41.6373C78.9882 43.0877 78.6028 44.2345 77.8321 45.0775C77.0615 45.9205 76.015 46.342 74.6926 46.342C73.3662 46.342 72.3166 45.9205 71.5439 45.0775C70.7711 44.2345 70.3848 43.0877 70.3848 41.6373C70.3848 40.191 70.7731 39.0464 71.55 38.2033C72.3268 37.3604 73.3744 36.939 74.6926 36.939ZM76.4314 39.409C75.9994 38.8573 75.4199 38.5815 74.6926 38.5815C73.9653 38.5815 73.3848 38.8573 72.9509 39.409C72.517 39.9607 72.3 40.7035 72.3 41.6373C72.3 42.5713 72.5159 43.3151 72.9479 43.8688C73.3795 44.4226 73.9612 44.6994 74.6926 44.6994C75.4199 44.6994 75.9994 44.4226 76.4314 43.8688C76.8632 43.3151 77.0791 42.5713 77.0791 41.6373C77.0791 40.7035 76.8632 39.9607 76.4314 39.409Z" fill="#29593C"/>
<path d="M80.885 37.168H84.6165C85.5379 37.168 86.2848 37.4522 86.8572 38.0203C87.4296 38.5885 87.7157 39.3354 87.7157 40.2611C87.7157 41.1784 87.4202 41.9202 86.8293 42.4863C86.2384 43.0525 85.4698 43.3355 84.5235 43.3355H82.7569V46.1124H80.885V37.168ZM82.7569 38.7053V41.8169H84.1144C84.6557 41.8169 85.0741 41.6836 85.3697 41.4171C85.6651 41.1506 85.8127 40.7673 85.8127 40.2672C85.8127 39.7631 85.6661 39.3768 85.3727 39.1081C85.0793 38.8395 84.662 38.7053 84.1206 38.7053H82.7569Z" fill="#29593C"/>
<path d="M97.2428 46.1124H95.3771V38.7734H91.4411V46.1124H89.563V37.168H97.2428V46.1124Z" fill="#29593C"/>
<path d="M103.447 36.939C104.77 36.939 105.816 37.3604 106.587 38.2033C107.358 39.0464 107.743 40.191 107.743 41.6373C107.743 43.0877 107.358 44.2345 106.587 45.0775C105.816 45.9205 104.77 46.342 103.447 46.342C102.121 46.342 101.071 45.9205 100.299 45.0775C99.5258 44.2345 99.1394 43.0877 99.1394 41.6373C99.1394 40.191 99.5279 39.0464 100.305 38.2033C101.082 37.3604 102.129 36.939 103.447 36.939ZM105.186 39.409C104.754 38.8573 104.175 38.5815 103.447 38.5815C102.72 38.5815 102.14 38.8573 101.706 39.409C101.272 39.9607 101.055 40.7035 101.055 41.6373C101.055 42.5713 101.271 43.3151 101.702 43.8688C102.134 44.4226 102.716 44.6994 103.447 44.6994C104.175 44.6994 104.754 44.4226 105.186 43.8688C105.618 43.3151 105.834 42.5713 105.834 41.6373C105.834 40.7035 105.618 39.9607 105.186 39.409Z" fill="#29593C"/>
<path d="M109.64 37.168H113.371C114.293 37.168 115.039 37.4522 115.612 38.0203C116.184 38.5885 116.47 39.3354 116.47 40.2611C116.47 41.1784 116.175 41.9202 115.584 42.4863C114.993 43.0525 114.224 43.3355 113.278 43.3355H111.512V46.1124H109.64V37.168ZM111.512 38.7053V41.8169H112.869C113.41 41.8169 113.829 41.6836 114.124 41.4171C114.42 41.1506 114.567 40.7673 114.567 40.2672C114.567 39.7631 114.421 39.3768 114.127 39.1081C113.834 38.8395 113.417 38.7053 112.875 38.7053H111.512Z" fill="#29593C"/>
<path d="M123.32 46.1124L122.644 43.9801H119.501L118.814 46.1124H116.935L120.041 37.168H122.241L125.347 46.1124H123.32ZM121.026 39.0276L119.904 42.5358H122.247L121.138 39.0276H121.026Z" fill="#29593C"/>
<path d="M135.791 47.879H134.099V46.1124H126.995V37.168H128.867V44.5132H132.803V37.168H134.675V44.5132H135.791V47.879Z" fill="#29593C"/>
<path d="M143.31 46.1124V40.1867H143.198L139.176 46.1124H137.372V37.168H139.237V43.0999H139.349L143.372 37.168H145.176V46.1124H143.31Z" fill="#29593C"/>
<path d="M151.064 42.9016L148.938 46.1124H146.868L149.217 42.6351C148.63 42.4492 148.162 42.1299 147.813 41.6774C147.464 41.2249 147.289 40.6909 147.289 40.075C147.289 39.2032 147.583 38.5007 148.169 37.9676C148.756 37.4345 149.545 37.168 150.537 37.168H154.169V46.1124H152.316V42.9016H151.064ZM152.316 41.4759V38.6867H150.797C150.302 38.6867 149.912 38.8107 149.629 39.0585C149.346 39.3064 149.204 39.6473 149.204 40.0813C149.204 40.5194 149.345 40.8613 149.626 41.1071C149.907 41.353 150.3 41.4759 150.804 41.4759H152.316Z" fill="#29593C"/>
<path d="M160.498 37.168H161.825L161.105 41.0483H159.333L160.498 37.168ZM163.343 37.168H164.67L164.044 41.0483H162.271L163.343 37.168Z" fill="#29593C"/>
<path d="M171.401 46.1124L170.726 43.9801H167.583L166.895 46.1124H165.017L168.122 37.168H170.323L173.428 46.1124H171.401ZM169.108 39.0276L167.986 42.5358H170.329L169.219 39.0276H169.108Z" fill="#29593C"/>
<path d="M176.949 40.9677H177.234L180.364 37.168H182.447L178.815 41.5442L182.695 46.1124H180.432L177.246 42.4492H176.949V46.1124H175.077V37.168H176.949V40.9677Z" fill="#29593C"/>
<path d="M187.889 46.1124H186.017V38.7672H183.333V37.168H190.573V38.7672H187.889V46.1124Z" fill="#29593C"/>
<path d="M195.922 36.939C197.245 36.939 198.291 37.3604 199.062 38.2033C199.832 39.0464 200.218 40.191 200.218 41.6373C200.218 43.0877 199.832 44.2345 199.062 45.0775C198.291 45.9205 197.245 46.342 195.922 46.342C194.596 46.342 193.546 45.9205 192.773 45.0775C192.001 44.2345 191.614 43.0877 191.614 41.6373C191.614 40.191 192.003 39.0464 192.78 38.2033C193.556 37.3604 194.604 36.939 195.922 36.939ZM197.661 39.409C197.229 38.8573 196.649 38.5815 195.922 38.5815C195.195 38.5815 194.614 38.8573 194.18 39.409C193.747 39.9607 193.53 40.7035 193.53 41.6373C193.53 42.5713 193.746 43.3151 194.177 43.8688C194.609 44.4226 195.191 44.6994 195.922 44.6994C196.649 44.6994 197.229 44.4226 197.661 43.8688C198.093 43.3151 198.309 42.5713 198.309 41.6373C198.309 40.7035 198.093 39.9607 197.661 39.409Z" fill="#29593C"/>
<path d="M208.883 43.2797C208.883 44.1269 208.597 44.8107 208.025 45.3314C207.452 45.852 206.705 46.1124 205.784 46.1124H202.115V37.168H208.059V38.7672H203.986V40.509H205.722C206.66 40.509 207.421 40.7641 208.006 41.2745C208.591 41.7849 208.883 42.4533 208.883 43.2797ZM203.986 44.5689H205.319C205.844 44.5689 206.25 44.4585 206.537 44.2374C206.824 44.0163 206.968 43.6971 206.968 43.2797C206.968 42.8583 206.824 42.5358 206.537 42.3127C206.25 42.0895 205.842 41.978 205.313 41.978H203.986V44.5689Z" fill="#29593C"/>
<path d="M216.669 44.5132V46.1124H210.743V37.168H216.669V38.7672H212.615V40.8561H216.439V42.3375H212.615V44.5132H216.669Z" fill="#29593C"/>
<path d="M219.873 41.0483H218.541L219.173 37.168H220.939L219.873 41.0483ZM222.718 41.0483H221.386L222.111 37.168H223.877L222.718 41.0483Z" fill="#29593C"/>
</svg>
