<svg width="240" height="54" viewBox="0 0 240 54" fill="none" xmlns="http://www.w3.org/2000/svg">
<path d="M19.55 9.17824C21.8983 8.18497 24.3916 7.68133 26.9606 7.68133C29.5296 7.68133 32.0228 8.18497 34.3712 9.17824C34.6955 9.31541 35.0145 9.46202 35.3292 9.61599L26.9606 1.24742L18.592 9.61599C18.9067 9.46202 19.2257 9.31541 19.55 9.17824Z" fill="white"/>
<path d="M44.0626 35.0866L52.4312 26.718L44.0626 18.3494C44.2166 18.6641 44.3632 18.9831 44.5004 19.3074C45.4936 21.6558 45.9973 24.1491 45.9973 26.718C45.9973 29.287 45.4936 31.7803 44.5004 34.1286C44.3632 34.4529 44.2166 34.7719 44.0626 35.0866Z" fill="white"/>
<path d="M34.3712 44.2578C32.0228 45.2511 29.5295 45.7547 26.9606 45.7547C24.3916 45.7547 21.8983 45.2511 19.55 44.2578C19.2257 44.1206 18.9067 43.974 18.592 43.8201L26.9606 52.1886L35.3291 43.8201C35.0145 43.974 34.6955 44.1206 34.3712 44.2578Z" fill="white"/>
<path d="M9.42082 34.1286C8.42755 31.7803 7.92391 29.287 7.92391 26.718C7.92391 24.149 8.42755 21.6558 9.42082 19.3074C9.55799 18.9831 9.7046 18.6641 9.85857 18.3494L1.49 26.718L9.85856 35.0866C9.70459 34.7719 9.55799 34.4529 9.42082 34.1286Z" fill="white"/>
<path d="M15.9575 16.9495L14.2846 15.6658L14.2588 15.646L13.7284 16.3373L13.6116 16.4895L12.9791 17.3138L13.0041 17.3331C11.198 20.0138 10.1429 23.2425 10.1429 26.718C10.1429 30.758 11.5679 34.4647 13.942 37.3644L13.9186 37.3861L14.5036 38.0165L14.6263 38.1488L15.3485 38.9272L15.372 38.9054L16.9169 37.4718L28.588 26.6418L15.9575 16.9495ZM15.4858 35.9319C13.3864 33.3275 12.2451 30.1107 12.2451 26.718C12.2451 23.8135 13.1072 21.0002 14.6777 18.6173L25.3333 26.7942L15.4858 35.9319Z" fill="white"/>
<path d="M26.9606 9.90033C22.6949 9.90033 18.8004 11.4888 15.8356 14.1061L17.5399 15.414C20.1805 13.2112 23.5075 12.0025 26.9606 12.0025C30.8912 12.0025 34.5866 13.5332 37.366 16.3126C40.1454 19.092 41.6761 22.7874 41.6761 26.718C41.6761 30.6487 40.1454 34.344 37.366 37.1234C34.5866 39.9028 30.8912 41.4335 26.9606 41.4335C23.9031 41.4335 20.9882 40.507 18.5359 38.7874L16.9661 40.2441C19.7603 42.3121 23.2174 43.5357 26.9606 43.5357C36.2487 43.5357 43.7783 36.0062 43.7783 26.718C43.7783 17.4299 36.2487 9.90033 26.9606 9.90033Z" fill="white"/>
<path d="M65.9652 15.8754C64.6677 15.8754 63.6439 15.455 62.8939 14.614C62.1439 13.7732 61.7689 12.6254 61.7689 11.1708C61.7689 9.71625 62.1439 8.56957 62.8939 7.73061C63.6439 6.89175 64.6677 6.47238 65.9652 6.47238C67.0231 6.47238 67.9167 6.78751 68.646 7.41765C69.3754 8.04778 69.7752 8.85048 69.8455 9.82574H68.0232C67.9322 9.3092 67.6997 8.89588 67.3258 8.586C66.9518 8.27612 66.4983 8.12112 65.9652 8.12112C65.2627 8.12112 64.707 8.39382 64.2979 8.93933C63.8888 9.48473 63.6842 10.2286 63.6842 11.1708C63.6842 12.1129 63.8888 12.8578 64.2979 13.4053C64.707 13.953 65.2648 14.2266 65.9714 14.2266C66.5086 14.2266 66.9632 14.08 67.3351 13.7865C67.707 13.4932 67.9383 13.1006 68.0294 12.6088H69.8517C69.7731 13.5758 69.3754 14.3621 68.6585 14.9673C67.9415 15.5727 67.0438 15.8754 65.9652 15.8754Z" fill="white"/>
<path d="M75.548 6.47238C76.8703 6.47238 77.9169 6.8938 78.6875 7.73676C79.4582 8.57984 79.8435 9.72447 79.8435 11.1708C79.8435 12.6212 79.4582 13.768 78.6875 14.6109C77.9169 15.4539 76.8703 15.8754 75.548 15.8754C74.2216 15.8754 73.172 15.4539 72.3992 14.6109C71.6264 13.768 71.2401 12.6212 71.2401 11.1708C71.2401 9.72447 71.6285 8.57984 72.4054 7.73676C73.1822 6.8938 74.2298 6.47238 75.548 6.47238ZM77.2867 8.94241C76.8548 8.39074 76.2753 8.11496 75.548 8.11496C74.8207 8.11496 74.2402 8.39074 73.8063 8.94241C73.3723 9.49408 73.1554 10.2369 73.1554 11.1708C73.1554 12.1047 73.3713 12.8485 73.8032 13.4022C74.2349 13.956 74.8166 14.2328 75.548 14.2328C76.2753 14.2328 76.8548 13.956 77.2867 13.4022C77.7185 12.8485 77.9344 12.1047 77.9344 11.1708C77.9344 10.2369 77.7185 9.49408 77.2867 8.94241Z" fill="white"/>
<path d="M90.5359 17.4126H88.8437V15.6461H81.7403V6.70163H83.6123V14.0468H87.5482V6.70163H89.4202V14.0468H90.5359V17.4126Z" fill="white"/>
<path d="M98.0547 15.6461V9.72036H97.9431L93.9203 15.6461H92.1166V6.70163H93.9823V12.6336H94.0938L98.1167 6.70163H99.9204V15.6461H98.0547Z" fill="white"/>
<path d="M107.96 15.6461L107.284 13.5137H104.142L103.454 15.6461H101.575L104.681 6.70163H106.881L109.987 15.6461H107.96ZM105.666 8.56125L104.545 12.0695H106.887L105.778 8.56125H105.666Z" fill="white"/>
<path d="M118.819 15.6461H116.948V8.30087H114.338L114.121 12.0944C114.096 12.549 114.049 12.9581 113.978 13.3217C113.908 13.6853 113.806 14.02 113.672 14.3258C113.537 14.6317 113.371 14.8858 113.173 15.0882C112.974 15.2907 112.733 15.4477 112.448 15.5593C112.162 15.6708 111.838 15.7267 111.474 15.7267C111.193 15.7267 110.968 15.6997 110.799 15.6461V13.9414C110.951 13.9746 111.09 13.991 111.214 13.991C111.392 13.991 111.548 13.9569 111.682 13.8887C111.816 13.8207 111.925 13.7298 112.007 13.616C112.09 13.5024 112.159 13.3558 112.215 13.1759C112.271 12.9962 112.312 12.8124 112.339 12.6244C112.366 12.4363 112.385 12.2163 112.398 11.9642L112.664 6.70163H118.819V15.6461Z" fill="white"/>
<path d="M121.113 15.6461V6.70163H122.985V9.67075H124.72C125.667 9.67075 126.435 9.94562 127.026 10.4951C127.617 11.0447 127.913 11.7658 127.913 12.6583C127.913 13.5551 127.627 14.2773 127.054 14.8248C126.482 15.3723 125.735 15.6461 124.813 15.6461H121.113ZM122.985 14.1026H124.318C124.855 14.1026 125.269 13.9777 125.56 13.7276C125.852 13.4777 125.997 13.1192 125.997 12.6522C125.997 12.1812 125.851 11.8206 125.557 11.5705C125.264 11.3206 124.848 11.1955 124.311 11.1955H122.985V14.1026Z" fill="white"/>
<path d="M137.533 15.6461H135.661V11.9083H131.632V15.6461H129.76V6.70163H131.632V10.3092H135.661V6.70163H137.533V15.6461Z" fill="white"/>
<path d="M143.737 6.47238C145.06 6.47238 146.106 6.8938 146.877 7.73676C147.647 8.57984 148.033 9.72447 148.033 11.1708C148.033 12.6212 147.647 13.768 146.877 14.6109C146.106 15.4539 145.06 15.8754 143.737 15.8754C142.411 15.8754 141.361 15.4539 140.589 14.6109C139.816 13.768 139.429 12.6212 139.429 11.1708C139.429 9.72447 139.818 8.57984 140.595 7.73676C141.372 6.8938 142.419 6.47238 143.737 6.47238ZM145.476 8.94241C145.044 8.39074 144.465 8.11496 143.737 8.11496C143.01 8.11496 142.429 8.39074 141.996 8.94241C141.562 9.49408 141.345 10.2369 141.345 11.1708C141.345 12.1047 141.561 12.8485 141.993 13.4022C142.424 13.956 143.006 14.2328 143.737 14.2328C144.465 14.2328 145.044 13.956 145.476 13.4022C145.908 12.8485 146.124 12.1047 146.124 11.1708C146.124 10.2369 145.908 9.49408 145.476 8.94241Z" fill="white"/>
<path d="M153.897 12.8815H149.824V11.1893H153.897V12.8815Z" fill="white"/>
<path d="M69.8455 30.8794H67.9797V23.5404H64.0437V30.8794H62.1656V21.935H69.8455V30.8794Z" fill="white"/>
<path d="M72.139 21.935H75.8704C76.7918 21.935 77.5388 22.2192 78.1111 22.7873C78.6834 23.3555 78.9697 24.1024 78.9697 25.0281C78.9697 25.9454 78.6742 26.6872 78.0833 27.2534C77.4922 27.8195 76.7236 28.1025 75.7775 28.1025H74.0109V30.8794H72.139V21.935ZM74.0109 23.4723V26.5839H75.3684C75.9096 26.5839 76.328 26.4507 76.6235 26.1841C76.9189 25.9176 77.0667 25.5344 77.0667 25.0343C77.0667 24.5301 76.9199 24.1438 76.6266 23.8751C76.3331 23.6065 75.9158 23.4723 75.3745 23.4723H74.0109Z" fill="white"/>
<path d="M86.7425 29.2802V30.8794H80.8168V21.935H86.7425V23.5342H82.6887V25.6231H86.5131V27.1045H82.6887V29.2802H86.7425Z" fill="white"/>
<path d="M89.6371 30.8794V32.646H87.9388V29.2802H88.5648C88.8624 29.0695 89.0731 28.7865 89.1971 28.4311C89.3211 28.0757 89.4036 27.5757 89.4451 26.9311L89.7549 21.935H96.096V29.2802H97.2117V32.646H95.5195V30.8794H89.6371ZM91.1682 27.0859C91.1351 27.6026 91.0773 28.0261 90.9947 28.3567C90.9119 28.6873 90.7817 28.9579 90.6042 29.1686V29.2802H94.2241V23.5281H91.4037L91.1682 27.0859Z" fill="white"/>
<path d="M106.472 30.8794H104.606V23.5404H100.67V30.8794H98.7923V21.935H106.472V30.8794Z" fill="white"/>
<path d="M108.766 21.935H112.497C113.418 21.935 114.165 22.2192 114.738 22.7873C115.31 23.3555 115.596 24.1024 115.596 25.0281C115.596 25.9454 115.301 26.6872 114.71 27.2534C114.119 27.8195 113.35 28.1025 112.404 28.1025H110.638V30.8794H108.766V21.935ZM110.638 23.4723V26.5839H111.995C112.536 26.5839 112.955 26.4507 113.25 26.1841C113.546 25.9176 113.693 25.5344 113.693 25.0343C113.693 24.5301 113.547 24.1438 113.253 23.8751C112.96 23.6065 112.543 23.4723 112.001 23.4723H110.638Z" fill="white"/>
<path d="M123.382 30.8794V24.9537H123.27L119.247 30.8794H117.443V21.935H119.309V27.867H119.421L123.444 21.935H125.247V30.8794H123.382Z" fill="white"/>
<path d="M135.314 30.8794H133.442V27.1417H129.413V30.8794H127.541V21.935H129.413V25.5426H133.442V21.935H135.314V30.8794Z" fill="white"/>
<path d="M143.545 30.8794V24.9537H143.434L139.411 30.8794H137.607V21.935H139.473V27.867H139.584L143.607 21.935H145.411V30.8794H143.545Z" fill="white"/>
<path d="M157.176 30.8794H155.44V24.898H155.341L153.066 30.3649H151.82L149.539 24.898H149.44V30.8794H147.704V21.935H149.911L152.384 27.9476H152.496L154.975 21.935H157.176V30.8794Z" fill="white"/>
<path d="M165.215 30.8794L164.539 28.7471H161.397L160.709 30.8794H158.831L161.936 21.935H164.136L167.242 30.8794H165.215ZM162.922 23.7946L161.8 27.3029H164.143L163.033 23.7946H162.922Z" fill="white"/>
<path d="M172.033 30.8794H170.161V23.5342H167.477V21.935H174.717V23.5342H172.033V30.8794Z" fill="white"/>
<path d="M182.422 29.2802V30.8794H176.496V21.935H182.422V23.5342H178.368V25.6231H182.193V27.1045H178.368V29.2802H182.422Z" fill="white"/>
<path d="M191.639 30.8794H189.767V23.5342H187.158L186.941 27.3277C186.916 27.7823 186.868 28.1914 186.798 28.555C186.728 28.9186 186.626 29.2534 186.491 29.5592C186.357 29.865 186.191 30.1192 185.992 30.3216C185.794 30.524 185.552 30.6811 185.267 30.7926C184.982 30.9042 184.657 30.9601 184.294 30.9601C184.013 30.9601 183.788 30.933 183.618 30.8794V29.1748C183.771 29.208 183.91 29.2244 184.034 29.2244C184.211 29.2244 184.367 29.1903 184.502 29.1221C184.636 29.054 184.744 28.9631 184.827 28.8494C184.91 28.7358 184.979 28.5891 185.035 28.4093C185.09 28.2295 185.132 28.0458 185.159 27.8577C185.185 27.6697 185.205 27.4497 185.217 27.1976L185.484 21.935H191.639V30.8794Z" fill="white"/>
<path d="M193.932 30.8794V21.935H195.804V24.9041H197.54C198.486 24.9041 199.255 25.179 199.846 25.7285C200.437 26.2781 200.732 26.9991 200.732 27.8917C200.732 28.7885 200.446 29.5107 199.874 30.0581C199.301 30.6057 198.554 30.8794 197.633 30.8794H193.932ZM195.804 29.336H197.137C197.674 29.336 198.089 29.2111 198.38 28.961C198.671 28.7111 198.817 28.3526 198.817 27.8856C198.817 27.4145 198.67 27.054 198.377 26.8039C198.083 26.554 197.668 26.4289 197.131 26.4289H195.804V29.336Z" fill="white"/>
<path d="M206.379 31.1088C205.081 31.1088 204.058 30.6884 203.308 29.8474C202.558 29.0066 202.183 27.8588 202.183 26.4041C202.183 24.9496 202.558 23.8029 203.308 22.964C204.058 22.1251 205.081 21.7057 206.379 21.7057C207.437 21.7057 208.33 22.0209 209.06 22.651C209.789 23.2812 210.189 24.0839 210.259 25.0591H208.437C208.346 24.5426 208.114 24.1292 207.74 23.8194C207.366 23.5095 206.912 23.3545 206.379 23.3545C205.676 23.3545 205.121 23.6272 204.712 24.1727C204.303 24.7181 204.098 25.4619 204.098 26.4041C204.098 27.3463 204.303 28.0912 204.712 28.6386C205.121 29.1863 205.679 29.4599 206.385 29.4599C206.922 29.4599 207.377 29.3134 207.749 29.0199C208.121 28.7266 208.352 28.334 208.443 27.8422H210.265C210.187 28.8092 209.789 29.5954 209.072 30.2007C208.355 30.8061 207.458 31.1088 206.379 31.1088Z" fill="white"/>
<path d="M213.985 25.7348H214.27L217.4 21.935H219.483L215.85 26.3112L219.731 30.8794H217.468L214.282 27.2162H213.985V30.8794H212.113V21.935H213.985V25.7348Z" fill="white"/>
<path d="M226.877 30.8794L226.202 28.7471H223.059L222.371 30.8794H220.493L223.598 21.935H225.799L228.904 30.8794H226.877ZM224.584 23.7946L223.462 27.3029H225.805L224.695 23.7946H224.584Z" fill="white"/>
<path d="M234.086 27.6686L231.96 30.8794H229.89L232.239 27.4021C231.652 27.2162 231.184 26.897 230.835 26.4444C230.486 25.992 230.311 25.458 230.311 24.8421C230.311 23.9703 230.605 23.2677 231.191 22.7346C231.778 22.2015 232.568 21.935 233.559 21.935H237.192V30.8794H235.338V27.6686H234.086ZM235.338 26.243V23.4537H233.82C233.324 23.4537 232.934 23.5777 232.651 23.8255C232.368 24.0735 232.227 24.4144 232.227 24.8483C232.227 25.2864 232.367 25.6284 232.648 25.8741C232.929 26.12 233.322 26.243 233.826 26.243H235.338Z" fill="white"/>
<path d="M64.0375 40.968H64.3226L67.4529 37.1683H69.5355L65.9033 41.5445L69.7834 46.1127H67.521L64.3351 42.4495H64.0375V46.1127H62.1656V37.1683H64.0375V40.968Z" fill="white"/>
<path d="M74.6926 36.939C76.0149 36.939 77.0615 37.3604 77.8321 38.2034C78.6028 39.0465 78.9882 40.1911 78.9882 41.6374C78.9882 43.0878 78.6028 44.2346 77.8321 45.0776C77.0615 45.9205 76.0149 46.3421 74.6926 46.3421C73.3662 46.3421 72.3166 45.9205 71.5439 45.0776C70.7711 44.2346 70.3848 43.0878 70.3848 41.6374C70.3848 40.1911 70.7731 39.0465 71.55 38.2034C72.3268 37.3604 73.3744 36.939 74.6926 36.939ZM76.4313 39.4091C75.9994 38.8574 75.4199 38.5816 74.6926 38.5816C73.9653 38.5816 73.3848 38.8574 72.9509 39.4091C72.517 39.9607 72.3 40.7035 72.3 41.6374C72.3 42.5714 72.5159 43.3151 72.9479 43.8688C73.3795 44.4227 73.9612 44.6995 74.6926 44.6995C75.4199 44.6995 75.9994 44.4227 76.4313 43.8688C76.8632 43.3151 77.0791 42.5714 77.0791 41.6374C77.0791 40.7035 76.8632 39.9607 76.4313 39.4091Z" fill="white"/>
<path d="M80.885 37.1683H84.6164C85.5378 37.1683 86.2848 37.4525 86.8572 38.0206C87.4295 38.5888 87.7157 39.3357 87.7157 40.2614C87.7157 41.1787 87.4201 41.9205 86.8292 42.4866C86.2383 43.0528 85.4697 43.3358 84.5234 43.3358H82.7569V46.1127H80.885V37.1683ZM82.7569 38.7056V41.8172H84.1143C84.6556 41.8172 85.0741 41.6839 85.3696 41.4174C85.665 41.1509 85.8127 40.7676 85.8127 40.2675C85.8127 39.7634 85.666 39.3771 85.3727 39.1084C85.0792 38.8398 84.6619 38.7056 84.1205 38.7056H82.7569Z" fill="white"/>
<path d="M97.2427 46.1127H95.377V38.7737H91.441V46.1127H89.5629V37.1683H97.2427V46.1127Z" fill="white"/>
<path d="M103.447 36.939C104.77 36.939 105.816 37.3604 106.587 38.2034C107.357 39.0465 107.743 40.1911 107.743 41.6374C107.743 43.0878 107.357 44.2346 106.587 45.0776C105.816 45.9205 104.77 46.3421 103.447 46.3421C102.121 46.3421 101.071 45.9205 100.298 45.0776C99.5258 44.2346 99.1393 43.0878 99.1393 41.6374C99.1393 40.1911 99.5278 39.0465 100.305 38.2034C101.082 37.3604 102.129 36.939 103.447 36.939ZM105.186 39.4091C104.754 38.8574 104.175 38.5816 103.447 38.5816C102.72 38.5816 102.139 38.8574 101.706 39.4091C101.272 39.9607 101.055 40.7035 101.055 41.6374C101.055 42.5714 101.271 43.3151 101.702 43.8688C102.134 44.4227 102.716 44.6995 103.447 44.6995C104.175 44.6995 104.754 44.4227 105.186 43.8688C105.618 43.3151 105.834 42.5714 105.834 41.6374C105.834 40.7035 105.618 39.9607 105.186 39.4091Z" fill="white"/>
<path d="M109.64 37.1683H113.371C114.292 37.1683 115.039 37.4525 115.612 38.0206C116.184 38.5888 116.47 39.3357 116.47 40.2614C116.47 41.1787 116.175 41.9205 115.584 42.4866C114.993 43.0528 114.224 43.3358 113.278 43.3358H111.512V46.1127H109.64V37.1683ZM111.512 38.7056V41.8172H112.869C113.41 41.8172 113.829 41.6839 114.124 41.4174C114.42 41.1509 114.567 40.7676 114.567 40.2675C114.567 39.7634 114.421 39.3771 114.127 39.1084C113.834 38.8398 113.417 38.7056 112.875 38.7056H111.512Z" fill="white"/>
<path d="M123.32 46.1127L122.644 43.9804H119.501L118.813 46.1127H116.935L120.041 37.1683H122.241L125.346 46.1127H123.32ZM121.026 39.0279L119.904 42.5361H122.247L121.138 39.0279H121.026Z" fill="white"/>
<path d="M135.791 47.8793H134.099V46.1127H126.995V37.1683H128.867V44.5135H132.803V37.1683H134.675V44.5135H135.791V47.8793Z" fill="white"/>
<path d="M143.31 46.1127V40.187H143.198L139.175 46.1127H137.372V37.1683H139.237V43.1002H139.349L143.372 37.1683H145.175V46.1127H143.31Z" fill="white"/>
<path d="M151.064 42.9019L148.938 46.1127H146.868L149.217 42.6354C148.63 42.4495 148.162 42.1302 147.813 41.6777C147.464 41.2252 147.289 40.6912 147.289 40.0754C147.289 39.2035 147.582 38.501 148.169 37.9679C148.756 37.4348 149.545 37.1683 150.537 37.1683H154.169V46.1127H152.316V42.9019H151.064ZM152.316 41.4763V38.687H150.797C150.301 38.687 149.912 38.811 149.629 39.0588C149.346 39.3068 149.204 39.6477 149.204 40.0816C149.204 40.5197 149.345 40.8616 149.626 41.1074C149.907 41.3533 150.299 41.4763 150.804 41.4763H152.316Z" fill="white"/>
<path d="M160.498 37.1683H161.825L161.105 41.0486H159.333L160.498 37.1683ZM163.343 37.1683H164.67L164.044 41.0486H162.271L163.343 37.1683Z" fill="white"/>
<path d="M171.401 46.1127L170.725 43.9804H167.583L166.895 46.1127H165.017L168.122 37.1683H170.323L173.428 46.1127H171.401ZM169.108 39.0279L167.986 42.5361H170.329L169.219 39.0279H169.108Z" fill="white"/>
<path d="M176.949 40.968H177.234L180.364 37.1683H182.447L178.815 41.5445L182.695 46.1127H180.432L177.246 42.4495H176.949V46.1127H175.077V37.1683H176.949V40.968Z" fill="white"/>
<path d="M187.889 46.1127H186.017V38.7675H183.333V37.1683H190.573V38.7675H187.889V46.1127Z" fill="white"/>
<path d="M195.922 36.939C197.245 36.939 198.291 37.3604 199.062 38.2034C199.832 39.0465 200.218 40.1911 200.218 41.6374C200.218 43.0878 199.832 44.2346 199.062 45.0776C198.291 45.9205 197.245 46.3421 195.922 46.3421C194.596 46.3421 193.546 45.9205 192.773 45.0776C192.001 44.2346 191.614 43.0878 191.614 41.6374C191.614 40.1911 192.003 39.0465 192.78 38.2034C193.556 37.3604 194.604 36.939 195.922 36.939ZM197.661 39.4091C197.229 38.8574 196.649 38.5816 195.922 38.5816C195.195 38.5816 194.614 38.8574 194.18 39.4091C193.747 39.9607 193.53 40.7035 193.53 41.6374C193.53 42.5714 193.746 43.3151 194.177 43.8688C194.609 44.4227 195.191 44.6995 195.922 44.6995C196.649 44.6995 197.229 44.4227 197.661 43.8688C198.093 43.3151 198.309 42.5714 198.309 41.6374C198.309 40.7035 198.093 39.9607 197.661 39.4091Z" fill="white"/>
<path d="M208.883 43.28C208.883 44.1272 208.597 44.811 208.025 45.3317C207.452 45.8523 206.705 46.1127 205.784 46.1127H202.114V37.1683H208.059V38.7675H203.986V40.5093H205.722C206.66 40.5093 207.421 40.7645 208.006 41.2748C208.591 41.7852 208.883 42.4536 208.883 43.28ZM203.986 44.5692H205.319C205.844 44.5692 206.25 44.4588 206.537 44.2377C206.824 44.0167 206.968 43.6974 206.968 43.28C206.968 42.8586 206.824 42.5361 206.537 42.3131C206.25 42.0899 205.842 41.9783 205.313 41.9783H203.986V44.5692Z" fill="white"/>
<path d="M216.668 44.5135V46.1127H210.743V37.1683H216.668V38.7675H212.615V40.8564H216.439V42.3378H212.615V44.5135H216.668Z" fill="white"/>
<path d="M219.873 41.0486H218.54L219.173 37.1683H220.939L219.873 41.0486ZM222.718 41.0486H221.386L222.111 37.1683H223.877L222.718 41.0486Z" fill="white"/>
</svg>
