<svg width="70" height="60" viewBox="0 0 70 60" fill="none" xmlns="http://www.w3.org/2000/svg">
<path d="M53.5904 41.0093L40.2259 4L30.1682 4.08574L16.8037 41.0951H32.7383C32.9096 40.7181 33.2523 39.5736 33.2523 38.011C33.2523 35.3381 32.4299 34.2072 31.1962 32.768L35.1885 12.5327L39.1979 32.6822C37.9642 34.1215 37.1418 35.2523 37.1418 37.9252C37.1418 39.4879 37.4845 40.6324 37.6558 41.0093H53.5904Z" fill="#02344F"/>
<path d="M32.43 49.3369H24.8225V50.365H28.1122V58.7949H29.1403V50.365H32.43V49.3369Z" fill="#06324D"/>
<path d="M22.1494 49.3369H21.1214V57.3556L14.8503 49.3369H13.7195V58.7949L14.7475 59.0005V50.9818L20.9157 58.7949H22.1494V49.3369Z" fill="#06324D"/>
<path d="M2 58.7949H3.23364L6.72897 50.5706L10.4299 58.7949H11.5607L7.34579 49.3369H6.21495L2 58.7949Z" fill="#06324D"/>
<rect x="35.1025" y="49.3369" width="1.02804" height="9.45794" fill="#06324D"/>
<path d="M40.654 49.3369H39.626V58.7949H40.654V54.5799L45.1774 58.7949H46.8222L41.6821 54.0659L46.925 49.3369H45.383L40.654 53.4491V49.3369Z" fill="#06324D"/>
<circle cx="52.9902" cy="54.0654" r="4.42056" stroke="#06324D" stroke-width="1.02804"/>
<path fill-rule="evenodd" clip-rule="evenodd" d="M60.5981 58.7949V49.3369H65.7383C67.486 49.4397 68.2056 50.8173 68.2056 52.2154C68.2056 53.4491 67.7533 54.8883 65.5327 54.8883L68.4112 58.7949H66.972L64.1963 54.8883H61.6262V58.7949H60.5981ZM61.6259 53.8601V50.3648H65.6353C66.6633 50.3648 67.1773 51.4545 67.1773 52.1125C67.1773 52.7704 66.9512 53.8601 65.6353 53.8601H61.6259Z" fill="#06324D"/>
</svg>
