<svg width="56" height="56" viewBox="0 0 56 56" fill="none" xmlns="http://www.w3.org/2000/svg">
<g id="Group">
<g id="Group_2">
<path id="Vector" d="M19.6067 8.61004C22.1561 7.5317 24.863 6.98493 27.6519 6.98493C30.4409 6.98493 33.1477 7.5317 35.6972 8.61004C36.0493 8.75895 36.3956 8.91812 36.7372 9.08528L27.6519 0L18.5667 9.08528C18.9083 8.91812 19.2546 8.75895 19.6067 8.61004Z" fill="#29593C"/>
<path id="Vector_2" d="M46.2188 36.7369L55.304 27.6517L46.2188 18.5664C46.3859 18.908 46.5451 19.2543 46.694 19.6064C47.7723 22.1559 48.3191 24.8627 48.3191 27.6517C48.3191 30.4407 47.7723 33.1475 46.694 35.697C46.5451 36.049 46.3859 36.3953 46.2188 36.7369Z" fill="#29593C"/>
<path id="Vector_3" d="M35.6972 46.6935C33.1477 47.7718 30.4409 48.3186 27.6519 48.3186C24.8629 48.3186 22.1561 47.7718 19.6066 46.6935C19.2546 46.5446 18.9083 46.3854 18.5667 46.2183L27.6519 55.3035L36.7372 46.2183C36.3956 46.3854 36.0493 46.5446 35.6972 46.6935Z" fill="#29593C"/>
<path id="Vector_4" d="M8.61004 35.697C7.5317 33.1475 6.98492 30.4407 6.98492 27.6517C6.98492 24.8627 7.5317 22.1559 8.61004 19.6064C8.75895 19.2543 8.91812 18.908 9.08528 18.5664L0 27.6517L9.08527 36.737C8.91811 36.3954 8.75895 36.049 8.61004 35.697Z" fill="#29593C"/>
</g>
<path id="Vector_5" d="M15.7066 17.0465L13.8904 15.6528L13.8625 15.6313L13.2866 16.3818L13.1598 16.5471L12.4731 17.442L12.5003 17.4629C10.5394 20.3731 9.39404 23.8784 9.39404 27.6516C9.39404 32.0375 10.9411 36.0618 13.5185 39.2097L13.4931 39.2333L14.1282 39.9177L14.2614 40.0613L15.0454 40.9063L15.0709 40.8827L16.7481 39.3264L29.4188 27.5688L15.7066 17.0465ZM15.1945 37.6546C12.9153 34.8271 11.6763 31.3348 11.6763 27.6516C11.6763 24.4983 12.6122 21.4441 14.3172 18.8571L25.8853 27.7343L15.1945 37.6546Z" fill="#D7B13F"/>
<g id="Group_3">
<path id="Vector_6" d="M27.652 9.39355C23.021 9.39355 18.7929 11.1181 15.5742 13.9595L17.4245 15.3794C20.2913 12.988 23.9033 11.6758 27.652 11.6758C31.9193 11.6758 35.9312 13.3376 38.9486 16.355C41.966 19.3724 43.6278 23.3843 43.6278 27.6516C43.6278 31.9188 41.966 35.9307 38.9486 38.9481C35.9312 41.9655 31.9193 43.6273 27.652 43.6273C24.3327 43.6273 21.1682 42.6214 18.5058 40.7546L16.8016 42.336C19.8351 44.5812 23.5882 45.9095 27.652 45.9095C37.7356 45.9095 45.91 37.7352 45.91 27.6516C45.91 17.5679 37.7356 9.39355 27.652 9.39355Z" fill="#29593C"/>
</g>
</g>
</svg>
