<svg width="40" height="40" viewBox="0 0 40 40" fill="none" xmlns="http://www.w3.org/2000/svg">
<rect width="40" height="40" fill="#ADADAD"/>
<path fill-rule="evenodd" clip-rule="evenodd" d="M8 20C8 15.3222 8 12.9833 9.07293 11.2758C9.63242 10.3853 10.3853 9.63242 11.2758 9.07293C12.9833 8 15.3222 8 20 8C24.6778 8 27.0167 8 28.7242 9.07293C29.6147 9.63242 30.3676 10.3853 30.9271 11.2758C32 12.9833 32 15.3222 32 20C32 24.6778 32 27.0167 30.9271 28.7242C30.3676 29.6147 29.6147 30.3676 28.7242 30.9271C27.0167 32 24.6778 32 20 32C15.3222 32 12.9833 32 11.2758 30.9271C10.3853 30.3676 9.63242 29.6147 9.07293 28.7242C8 27.0167 8 24.6778 8 20ZM16 20C16 22.2091 17.7909 24 20 24C22.2091 24 24 22.2091 24 20C24 17.7909 22.2091 16 20 16C17.7909 16 16 17.7909 16 20ZM20 13C16.134 13 13 16.134 13 20C13 23.866 16.134 27 20 27C23.866 27 27 23.866 27 20C27 16.134 23.866 13 20 13ZM27.5 11C26.6716 11 26 11.6716 26 12.5C26 13.3284 26.6716 14 27.5 14C28.3284 14 29 13.3284 29 12.5C29 11.6716 28.3284 11 27.5 11Z" fill="white"/>
<path d="M0 0H6L0 6V0Z" fill="#F5F5F5"/>
<path d="M40 0H34L40 6V0Z" fill="#F5F5F5"/>
<path d="M40 40L34 40L40 34L40 40Z" fill="#F5F5F5"/>
</svg>
