<svg width="40" height="40" viewBox="0 0 40 40" fill="none" xmlns="http://www.w3.org/2000/svg">
<g clip-path="url(#clip0_104_857)">
<rect width="40" height="40" fill="#ADADAD"/>
</g>
<path d="M30.38 10.1315L9.12065 18.2774C7.66979 18.8564 7.67818 19.6606 8.85446 20.0192L14.3126 21.7111L26.9411 13.794C27.5383 13.433 28.0838 13.6272 27.6354 14.0227L17.4038 23.198H17.4014L17.4038 23.1992L17.0273 28.7894C17.5788 28.7894 17.8223 28.538 18.1316 28.2414L20.7827 25.6798L26.2972 29.7271C27.314 30.2835 28.0443 29.9975 28.2973 28.7918L31.9172 11.84C32.2877 10.3638 31.3501 9.69544 30.38 10.1315Z" fill="white"/>
<path d="M0 0H6L0 6V0Z" fill="#F5F5F5"/>
<path d="M40 0H34L40 6V0Z" fill="#F5F5F5"/>
<path d="M40 40L40 34L34 40L40 40Z" fill="#F5F5F5"/>
<defs>
<clipPath id="clip0_104_857">
<rect width="40" height="40" fill="white"/>
</clipPath>
</defs>
</svg>
