<?xml version="1.0" encoding="utf-8"?><svg viewBox="0 0 44 44" xmlns="http://www.w3.org/2000/svg" xmlns:xlink="http://www.w3.org/1999/xlink"><style>:root>svg{display:none}:root>svg:target{display:block}</style><svg fill="none" viewBox="0 0 41 40" id="arrow" xmlns="http://www.w3.org/2000/svg"><path d="M32 20H8.5m0 0l7.583-8M8.5 20l7.583 8" stroke="#000" stroke-width="3" stroke-linecap="square"/></svg><svg fill="none" viewBox="0 0 10 6" id="drop" xmlns="http://www.w3.org/2000/svg"><path d="M2 2l3 2 3-2" stroke="#fff" stroke-opacity=".6" stroke-width="2" stroke-linecap="round" stroke-linejoin="round"/></svg><svg fill="none" viewBox="0 0 12 7" id="dropRoundedNone" xmlns="http://www.w3.org/2000/svg"><path d="M2.5 2L6 5l3.5-3" stroke="#fff" stroke-width="1.5" stroke-linecap="square"/></svg><svg fill="currentColor" viewBox="0 0 44 44" id="eye" xmlns="http://www.w3.org/2000/svg"><path d="M22 11c-7.038 0-12.521 4.194-19.25 11C8.542 27.818 13.406 33 22 33c8.585 0 14.902-6.566 19.25-10.88C36.798 17.067 30.49 11 22 11zm0 18.846c-4.245 0-7.7-3.523-7.7-7.846 0-4.331 3.455-7.846 7.7-7.846s7.7 3.523 7.7 7.846c0 4.331-3.455 7.846-7.7 7.846z"/><path d="M22 19.25c0-.679.25-1.298.653-1.779A4.097 4.097 0 0022 17.42c-2.475 0-4.495 2.054-4.495 4.581 0 2.527 2.02 4.58 4.495 4.58s4.494-2.053 4.494-4.58c0-.198-.017-.395-.034-.593A2.744 2.744 0 0124.76 22a2.749 2.749 0 01-2.76-2.75z"/></svg><svg fill="none" viewBox="0 0 40 40" id="facebook" xmlns="http://www.w3.org/2000/svg"><path fill="#ADADAD" d="M0 0h40v40H0z"/><path d="M27.785 25.781L28.672 20h-5.547v-3.75c0-1.582.773-3.125 3.258-3.125h2.523V8.203s-2.289-.39-4.476-.39c-4.57 0-7.555 2.769-7.555 7.78V20h-5.078v5.781h5.078v13.977c1.02.16 2.063.242 3.125.242 1.063 0 2.105-.082 3.125-.242V25.78h4.66zM0 0h6L0 6V0zM40 0h-6l6 6V0zM40 40h-6l6-6v6z" fill="#fff"/></svg><svg fill="none" viewBox="0 0 40 40" id="insta" xmlns="http://www.w3.org/2000/svg"><path fill="#ADADAD" d="M0 0h40v40H0z"/><path fill-rule="evenodd" clip-rule="evenodd" d="M8 20c0-4.678 0-7.017 1.073-8.724a6.999 6.999 0 012.203-2.203C12.983 8 15.322 8 20 8s7.017 0 8.724 1.073a6.999 6.999 0 012.203 2.203C32 12.983 32 15.322 32 20s0 7.017-1.073 8.724a6.999 6.999 0 01-2.203 2.203C27.017 32 24.678 32 20 32s-7.017 0-8.724-1.073a6.999 6.999 0 01-2.203-2.203C8 27.017 8 24.678 8 20zm8 0a4 4 0 108 0 4 4 0 00-8 0zm4-7a7 7 0 100 14 7 7 0 000-14zm7.5-2a1.5 1.5 0 100 3 1.5 1.5 0 000-3z" fill="#fff"/><path d="M0 0h6L0 6V0zM40 0h-6l6 6V0zM40 40h-6l6-6v6z" fill="#fff"/></svg><svg fill="none" viewBox="0 0 24 24" id="loop" xmlns="http://www.w3.org/2000/svg"><circle cx="11.5" cy="11.5" r="9.5" stroke="currentColor" stroke-width="2"/><path d="M21.293 22.707a1 1 0 001.414-1.414l-1.414 1.414zm-2.086-4.914l-.707-.707-1.414 1.414.707.707 1.414-1.414zm3.5 3.5l-3.5-3.5-1.414 1.414 3.5 3.5 1.414-1.414z" fill="currentColor"/></svg><svg fill="none" viewBox="0 0 40 40" id="vk" xmlns="http://www.w3.org/2000/svg"><g clip-path="url(#hclip0_115_1248)"><path fill="#ADADAD" d="M0 0h40v40H0z"/><path d="M20.983 27C13.466 27 9.179 21.745 9 13h3.765c.124 6.418 2.9 9.137 5.098 9.698V13h3.546v5.535c2.17-.238 4.452-2.76 5.221-5.535h3.546a10.789 10.789 0 01-1.698 4.003 10.558 10.558 0 01-3.126 2.976 10.895 10.895 0 013.563 2.893A11.153 11.153 0 0131 27h-3.903a6.94 6.94 0 00-2.104-3.377 6.726 6.726 0 00-3.584-1.626V27h-.426z" fill="#fff"/></g><path d="M0 0h6L0 6V0zM40 0h-6l6 6V0zM40 40v-6l-6 6h6z" fill="#fff"/><defs><clipPath id="hclip0_115_1248"><path fill="#fff" d="M0 0h40v40H0z"/></clipPath></defs></svg></svg>