<?xml version="1.0" encoding="utf-8"?><svg viewBox="0 0 70 60" xmlns="http://www.w3.org/2000/svg" xmlns:xlink="http://www.w3.org/1999/xlink"><style>:root>svg{display:none}:root>svg:target{display:block}</style><svg fill="none" viewBox="0 0 70 60" id="antikor" xmlns="http://www.w3.org/2000/svg"><path d="M53.59 41.01L40.226 4l-10.058.086-13.364 37.01h15.934c.172-.378.514-1.522.514-3.085 0-2.673-.822-3.804-2.056-5.243l3.992-20.235 4.01 20.15c-1.234 1.438-2.056 2.57-2.056 5.242 0 1.563.342 2.707.514 3.084H53.59z" fill="#02344F"/><path d="M32.43 49.337h-7.607v1.028h3.29v8.43h1.027v-8.43h3.29v-1.028zM22.15 49.337H21.12v8.019l-6.27-8.02h-1.132v9.459l1.029.206v-8.02l6.168 7.814h1.233v-9.458zM2 58.795h1.234l3.495-8.224 3.7 8.224h1.132l-4.215-9.458H6.215L2 58.795zM35.102 49.337h1.028v9.458h-1.028zM40.654 49.337h-1.028v9.458h1.028V54.58l4.523 4.215h1.645l-5.14-4.73 5.243-4.728h-1.542l-4.729 4.112v-4.112z" fill="#06324D"/><circle cx="52.99" cy="54.065" r="4.421" stroke="#06324D" stroke-width="1.028"/><path fill-rule="evenodd" clip-rule="evenodd" d="M60.598 58.795v-9.458h5.14c1.748.103 2.468 1.48 2.468 2.878 0 1.234-.453 2.673-2.673 2.673l2.878 3.907h-1.439l-2.776-3.907h-2.57v3.907h-1.028zm1.028-4.935v-3.495h4.01c1.027 0 1.541 1.09 1.541 1.747 0 .658-.226 1.748-1.542 1.748h-4.01z" fill="#06324D"/></svg><svg fill="none" viewBox="0 0 56 56" id="complains" xmlns="http://www.w3.org/2000/svg"><g fill="#29593C"><path d="M19.607 8.61a20.54 20.54 0 018.045-1.625 20.54 20.54 0 019.085 2.1L27.652 0l-9.085 9.085c.341-.167.688-.326 1.04-.475zM46.219 36.737l9.085-9.085-9.085-9.086a20.54 20.54 0 012.1 9.085 20.54 20.54 0 01-2.1 9.086zM35.697 46.694a20.54 20.54 0 01-8.045 1.625 20.54 20.54 0 01-9.085-2.1l9.085 9.084 9.085-9.085c-.341.167-.688.327-1.04.475zM8.61 35.697a20.54 20.54 0 01-1.625-8.045 20.54 20.54 0 012.1-9.086L0 27.652l9.085 9.085a20.835 20.835 0 01-.475-1.04z"/></g><path d="M15.707 17.047l-1.817-1.394-.027-.022-.576.75-.127.166-.687.895.027.02a18.171 18.171 0 00-3.106 10.19c0 4.386 1.547 8.41 4.124 11.558l-.025.023.635.685.133.143.784.845.026-.023 1.677-1.557 12.67-11.757-13.711-10.522zm-.513 20.608a15.854 15.854 0 01-3.518-10.003c0-3.154.936-6.208 2.641-8.795l11.568 8.877-10.69 9.92z" fill="#D7B13F"/><path d="M27.652 9.394c-4.631 0-8.86 1.724-12.078 4.566l1.85 1.42a15.952 15.952 0 0110.228-3.704c4.267 0 8.28 1.662 11.297 4.679a15.871 15.871 0 014.679 11.297c0 4.267-1.662 8.279-4.68 11.296a15.871 15.871 0 01-11.296 4.68 15.86 15.86 0 01-9.146-2.873l-1.704 1.581a18.175 18.175 0 0010.85 3.574c10.084 0 18.258-8.175 18.258-18.258 0-10.084-8.174-18.258-18.258-18.258z" fill="#29593C"/></svg><svg fill="none" viewBox="0 0 12 7" id="dropRoundedNone" xmlns="http://www.w3.org/2000/svg"><path d="M2.5 2L6 5l3.5-3" stroke="#fff" stroke-width="1.5" stroke-linecap="square"/></svg><svg fill="none" viewBox="0 0 12 7" id="dropRoundedNoneBlack" xmlns="http://www.w3.org/2000/svg"><path d="M2.5 2L6 5l3.5-3" stroke="#454545" stroke-width="1.5" stroke-linecap="square"/></svg><svg fill="none" viewBox="0 0 40 40" id="facebook" xmlns="http://www.w3.org/2000/svg"><path fill="#ADADAD" d="M0 0h40v40H0z"/><path d="M27.785 25.781L28.672 20h-5.547v-3.75c0-1.582.773-3.125 3.258-3.125h2.523V8.203s-2.289-.39-4.476-.39c-4.57 0-7.555 2.769-7.555 7.78V20h-5.078v5.781h5.078v13.977c1.02.16 2.063.242 3.125.242 1.063 0 2.105-.082 3.125-.242V25.78h4.66z" fill="#fff"/><path d="M0 0h6L0 6V0zM40 0h-6l6 6V0zM40 40h-6l6-6v6z" fill="#F5F5F5"/></svg><svg fill="none" viewBox="0 0 40 40" id="insta" xmlns="http://www.w3.org/2000/svg"><path fill="#ADADAD" d="M0 0h40v40H0z"/><path fill-rule="evenodd" clip-rule="evenodd" d="M8 20c0-4.678 0-7.017 1.073-8.724a6.999 6.999 0 012.203-2.203C12.983 8 15.322 8 20 8s7.017 0 8.724 1.073a6.999 6.999 0 012.203 2.203C32 12.983 32 15.322 32 20s0 7.017-1.073 8.724a6.999 6.999 0 01-2.203 2.203C27.017 32 24.678 32 20 32s-7.017 0-8.724-1.073a6.999 6.999 0 01-2.203-2.203C8 27.017 8 24.678 8 20zm8 0a4 4 0 108 0 4 4 0 00-8 0zm4-7a7 7 0 100 14 7 7 0 000-14zm7.5-2a1.5 1.5 0 100 3 1.5 1.5 0 000-3z" fill="#fff"/><path d="M0 0h6L0 6V0zM40 0h-6l6 6V0zM40 40h-6l6-6v6z" fill="#F5F5F5"/></svg><svg fill="none" viewBox="0 0 40 40" id="telegram" xmlns="http://www.w3.org/2000/svg"><g clip-path="url(#gclip0_104_857)"><path fill="#ADADAD" d="M0 0h40v40H0z"/></g><path d="M30.38 10.132L9.12 18.276c-1.45.58-1.442 1.384-.266 1.742l5.459 1.692 12.628-7.917c.597-.361 1.143-.167.694.229l-10.231 9.175H17.4l.003.001-.377 5.59c.552 0 .795-.251 1.105-.548l2.65-2.561 5.515 4.047c1.017.556 1.747.27 2-.935l3.62-16.952c.37-1.476-.567-2.145-1.537-1.708z" fill="#fff"/><path d="M0 0h6L0 6V0zM40 0h-6l6 6V0zM40 40v-6l-6 6h6z" fill="#F5F5F5"/><defs><clipPath id="gclip0_104_857"><path fill="#fff" d="M0 0h40v40H0z"/></clipPath></defs></svg><svg fill="none" viewBox="0 0 40 40" id="vk" xmlns="http://www.w3.org/2000/svg"><g clip-path="url(#hclip0_115_1248)"><path fill="#ADADAD" d="M0 0h40v40H0z"/><path d="M20.983 27C13.466 27 9.179 21.745 9 13h3.765c.124 6.418 2.9 9.137 5.098 9.698V13h3.546v5.535c2.17-.238 4.452-2.76 5.221-5.535h3.546a10.789 10.789 0 01-1.698 4.003 10.558 10.558 0 01-3.126 2.976 10.895 10.895 0 013.563 2.893A11.153 11.153 0 0131 27h-3.903a6.94 6.94 0 00-2.104-3.377 6.726 6.726 0 00-3.584-1.626V27h-.426z" fill="#fff"/></g><path d="M0 0h6L0 6V0zM40 0h-6l6 6V0zM40 40v-6l-6 6h6z" fill="#fff"/><defs><clipPath id="hclip0_115_1248"><path fill="#fff" d="M0 0h40v40H0z"/></clipPath></defs></svg></svg>