<svg width="54" height="80" viewBox="0 0 54 80" fill="none" xmlns="http://www.w3.org/2000/svg">
<path d="M35.9984 38.5003V41.5003C35.9984 44.4452 33.6101 46.8336 30.6651 46.8336H6.66533C3.72035 46.8336 1.33203 44.4452 1.33203 41.5003V38.5003C1.33203 35.5553 3.72035 33.167 6.66533 33.167H30.6651C33.6101 33.167 35.9984 35.5553 35.9984 38.5003Z" fill="#7EBEEE" fill-opacity="0.18"/>
<path d="M34.8331 53.3418C34.8298 57.7068 31.9815 61.4068 28.0415 62.6868C26.7548 63.1051 25.7415 64.1134 25.3948 65.4218C24.4038 69.1629 24.0465 73.1377 24.4475 77.2007C24.525 77.9857 23.9109 78.6667 23.122 78.6667H14.2113C13.4226 78.6667 12.8078 77.9862 12.8851 77.2013C13.2863 73.132 12.9281 69.1577 11.9383 65.4218C11.5916 64.1134 10.5783 63.1051 9.29162 62.6868C5.35165 61.4068 2.50334 57.7068 2.5 53.3418C2.493 45.8377 10.3818 41.2886 16.8082 44.5752C17.9757 45.1724 19.3572 45.1724 20.5247 44.5752C26.9412 41.2938 34.8403 45.8264 34.8331 53.3418Z" fill="#7EBEEE" fill-opacity="0.13"/>
<path d="M18.0414 76.8239C18.0542 77.8401 17.2237 78.6669 16.2076 78.6669H14.2099C13.4199 78.6669 12.8071 77.9849 12.8837 77.2016C13.2069 73.9269 12.9682 70.767 12.5944 68.4156C12.3498 66.877 14.0172 65.743 15.3477 66.5537C16.0682 66.9927 16.6317 67.6037 16.9369 68.7553C17.6237 71.3471 18.0062 74.0519 18.0414 76.8239Z" fill="#7EBEEE" fill-opacity="0.05"/>
<path d="M25.7528 43.5276C27.9263 43.6894 28.3887 46.7234 26.3632 47.5286C26.0797 47.6412 25.7998 47.7679 25.5248 47.9085C24.3565 48.5052 22.9765 48.5052 21.8082 47.9085C15.4354 44.6494 7.4368 49.0932 7.50064 56.8168C7.51864 59.0051 4.56499 59.7476 3.56983 57.7986C2.88684 56.461 2.50117 54.9463 2.5 53.3418C2.493 45.8377 10.3818 41.2886 16.8082 44.5752C17.9766 45.1719 19.3566 45.1719 20.5247 44.5752C22.1317 43.7534 23.9304 43.3919 25.7528 43.5276Z" fill="#7EBEEE" fill-opacity="0.05"/>
<path d="M34.8329 26.6588C34.8399 34.1629 26.9512 38.712 20.5247 35.4254C19.3572 34.8282 17.9757 34.8282 16.8082 35.4254C10.3903 38.7077 2.49284 34.1719 2.5 26.6588C2.50334 22.2938 5.35165 18.5939 9.29162 17.3139C10.5783 16.8955 11.5916 15.8872 11.9383 14.5789C12.9281 10.8429 13.2863 6.86878 12.8851 2.79931C12.8078 2.01448 13.4224 1.33398 14.2113 1.33398H23.122C23.9108 1.33398 24.525 2.01515 24.4475 2.79997C24.0465 6.86278 24.4038 10.8377 25.3948 14.5789C25.7415 15.8872 26.7548 16.8955 28.0415 17.3139C31.9813 18.5939 34.8296 22.2938 34.8329 26.6588Z" fill="#7EBEEE" fill-opacity="0.13"/>
<path d="M15.9582 20.6472C10.2436 22.5037 7.79547 28.7778 9.92929 33.8449C10.4048 34.9742 9.24846 36.0959 8.1383 35.5776C4.78065 34.0101 2.49634 30.6114 2.5 26.6588C2.50334 22.2938 5.35165 18.5939 9.29162 17.3139C10.5783 16.8955 11.5916 15.8872 11.9383 14.5789C12.9283 10.8422 13.2868 6.86928 12.8851 2.79931C12.8084 2.01598 13.4213 1.33398 14.2113 1.33398H18.3802C19.0997 1.33398 19.6904 1.90498 19.7132 2.62431C19.9824 11.1599 19.6604 19.4435 15.9582 20.6472Z" fill="#7EBEEE" fill-opacity="0.05"/>
<path d="M40.6653 74.3325C46.9245 74.3325 51.9985 69.2585 51.9985 62.9993C51.9985 56.7401 46.9245 51.666 40.6653 51.666C34.4061 51.666 29.332 56.7401 29.332 62.9993C29.332 69.2585 34.4061 74.3325 40.6653 74.3325Z" fill="#7EBEEE" fill-opacity="0.13"/>
<path d="M45.3887 52.6941C46.5658 53.2346 46.3711 54.9615 45.1013 55.216C37.8292 56.6736 33.9374 64.6164 37.1057 71.2238C37.6667 72.3938 36.3904 73.5787 35.2509 72.958C31.6601 71.0025 29.2449 67.1607 29.3344 62.7632C29.4981 54.7071 37.9525 49.2798 45.3887 52.6941Z" fill="#7EBEEE" fill-opacity="0.05"/>
<path d="M11.9637 35.1589C11.2293 35.1276 10.6064 35.6991 10.5754 36.4349C10.5444 37.1706 11.1158 37.7922 11.8514 37.8232C13.7796 37.9046 15.7051 37.4879 17.416 36.6118C18.1992 36.2109 19.134 36.2109 19.9165 36.6118C23.9288 38.6662 28.9831 38.1402 32.5038 34.9498C33.8049 35.6283 34.6662 36.9979 34.6662 38.5001V38.8979C34.6662 39.6342 35.2632 40.2312 35.9996 40.2312C36.7359 40.2312 37.3329 39.6342 37.3329 38.8979V38.5001C37.3329 36.2138 36.1367 34.1084 34.2764 32.899C38.3474 26.8293 35.5871 18.3634 28.4538 16.0451C27.569 15.7574 26.9073 15.0816 26.6835 14.2369C25.581 10.0766 25.3321 5.79882 25.9438 1.52235C26.048 0.793352 25.5415 0.117857 24.8127 0.0136909C24.0825 -0.090975 23.4082 0.415855 23.304 1.14485C22.6413 5.77732 22.9113 10.4121 24.1058 14.9199C24.5627 16.6437 25.88 18.0124 27.6298 18.5811C31.1378 19.7212 33.4966 22.9677 33.4998 26.6597C33.5048 33.1069 26.7035 37.0908 21.132 34.2381C19.5884 33.4476 17.7449 33.4476 16.2009 34.2381C14.9031 34.9026 13.4382 35.2211 11.9637 35.1589Z" fill="#7EBEEE"/>
<path d="M31.1368 47.4247C31.6473 47.9556 32.4913 47.9719 33.0221 47.4614C33.5529 46.9509 33.5693 46.1069 33.0588 45.5761C29.5345 41.9116 24.1238 41.2338 19.9165 43.3883C19.1337 43.7891 18.1989 43.7891 17.416 43.3883C13.4032 41.3338 8.34944 41.8598 4.82897 45.0503C3.52781 44.3718 2.66631 43.0021 2.66631 41.5V38.5C2.66631 36.7468 3.83764 35.171 5.5148 34.6678C6.45829 34.3848 6.78212 33.2052 6.10662 32.4813C1.95615 28.0317 3.68747 20.5361 9.70293 18.5811C11.4526 18.0125 12.7697 16.644 13.2267 14.9203C14.4214 10.4123 14.6912 5.77754 14.0289 1.14474C13.9246 0.415745 13.2512 -0.0905847 12.5201 0.0135812C11.7913 0.117747 11.2848 0.793242 11.3889 1.52224C12.0006 5.79904 11.7516 10.077 10.6491 14.2373C10.4253 15.0818 9.7636 15.7576 8.87894 16.0451C1.68549 18.3831 -0.980159 26.8866 3.04915 32.9035C1.19299 34.1137 0 36.2167 0 38.5001V41.5001C0 43.7864 1.19616 45.8918 3.05648 47.1012C-1.01783 53.1759 1.75116 61.6385 8.87911 63.9551C9.76377 64.2426 10.4254 64.9184 10.6493 65.7628C11.7517 69.9231 12.0007 74.201 11.3893 78.4778C11.2743 79.2812 11.8976 80 12.7107 80C13.3636 80 13.9339 79.5202 14.0291 78.8552C14.6916 74.2224 14.4216 69.5876 13.2269 65.0796C12.7701 63.356 11.4528 61.9876 9.7031 61.419C6.19512 60.2788 3.83631 57.0323 3.83314 53.3405C3.82814 46.8922 10.6301 42.9098 16.2009 45.7621C17.7445 46.5526 19.588 46.5526 21.132 45.7621C24.38 44.0986 28.4965 44.6798 31.1368 47.4247Z" fill="#7EBEEE"/>
<path d="M40.6649 50.333C34.3426 50.333 28.982 55.0625 28.1198 61.2418C27.9575 61.3059 27.7935 61.3649 27.6285 61.4186C25.8787 61.9873 24.5615 63.3559 24.1045 65.0797C22.91 69.5877 22.6402 74.2223 23.3025 78.855C23.407 79.5846 24.083 80.0903 24.8113 79.9861C25.5403 79.882 26.0467 79.2065 25.9423 78.4775C25.3308 74.201 25.5797 69.9232 26.6822 65.7629C26.906 64.9182 27.5676 64.2424 28.4525 63.9547C28.9655 63.7881 29.4713 63.5816 29.9558 63.3412C30.3776 63.1319 30.658 62.7156 30.6928 62.2458C31.0785 57.0611 35.4589 52.9997 40.6649 52.9997C46.1788 52.9997 50.6648 57.4856 50.6648 62.9996C50.6648 68.5135 46.1788 72.9995 40.6649 72.9995C37.9482 72.9995 35.4068 71.9287 33.5086 69.9844C32.9944 69.4575 32.1501 69.4472 31.6231 69.9617C31.0963 70.476 31.0861 71.3202 31.6005 71.8472C34.0046 74.3098 37.2237 75.6662 40.6649 75.6662C47.6492 75.6662 53.3315 69.9839 53.3315 62.9996C53.3315 56.0153 47.6493 50.333 40.6649 50.333Z" fill="#7EBEEE"/>
<path d="M40.6679 57.5C39.9316 57.5 39.3346 58.097 39.3346 58.8333V61.6666H36.5013C35.765 61.6666 35.168 62.2636 35.168 63C35.168 63.7363 35.765 64.3333 36.5013 64.3333H39.3346V67.1666C39.3346 67.9029 39.9316 68.4999 40.6679 68.4999C41.4043 68.4999 42.0013 67.9029 42.0013 67.1666V64.3333H44.8346C45.5709 64.3333 46.1679 63.7363 46.1679 63C46.1679 62.2636 45.5709 61.6666 44.8346 61.6666H42.0013V58.8333C42.0013 58.097 41.4043 57.5 40.6679 57.5Z" fill="#7EBEEE"/>
<path d="M12.4973 23.7916C13.2101 23.6076 13.6391 22.8803 13.455 22.1673C13.2708 21.4543 12.5436 21.0256 11.8306 21.2096C8.78266 21.9966 6.85651 24.7278 7.3505 27.5627C7.46334 28.2107 8.0265 28.6674 8.66233 28.6674C9.49232 28.6674 10.1195 27.9199 9.97748 27.1049C9.72032 25.6284 10.7801 24.2349 12.4973 23.7916Z" fill="#7EBEEE"/>
</svg>
