<svg width="63" height="80" viewBox="0 0 63 80" fill="none" xmlns="http://www.w3.org/2000/svg">
<path d="M53.698 26.2362C52.7314 25.0513 50.8582 25.3246 50.2649 26.7345C49.7883 27.8678 49.1583 28.761 48.5084 29.4576C47.3368 30.7142 45.2253 30.0426 45.0203 28.3361C44.3087 22.4198 42.2371 18.8067 40.3389 16.5352C37.9324 13.6571 35.4293 12.8621 33.6494 9.47068C32.6061 7.48415 32.1978 5.4043 32.1328 3.4511C32.0678 1.48123 29.648 0.59296 28.3414 2.06953C21.926 9.33286 18.1743 18.0904 18.0755 27.6661C18.0538 29.571 15.6306 30.3442 14.4724 28.8327C13.9741 28.1844 13.5658 27.4694 13.2475 26.7062C12.6608 25.3029 10.7843 25.0496 9.82104 26.2279C-1.88149 40.5436 -0.211604 60.9972 11.9392 71.5414C22.8801 81.0341 40.6323 81.0341 51.5732 71.5414C63.7207 60.9988 65.3939 40.5519 53.698 26.2362Z" fill="#7EBEEE" fill-opacity="0.12"/>
<path d="M34.4327 78.5576C27.771 79.1114 26.4521 69.3499 33.0095 68.0514C40.7284 66.5228 47.4936 62.2743 51.852 55.3751C54.6673 50.9184 61.557 54.2173 59.8211 59.1948C55.8536 70.5717 46.1652 77.5822 34.4327 78.5576Z" fill="#7EBEEE" fill-opacity="0.13"/>
<path d="M54.73 25.3931C53.1267 23.4299 50.0182 23.8822 49.0353 26.2167C48.668 27.089 48.1623 27.8736 47.5322 28.5491C47.1324 28.9774 46.4131 28.7594 46.3431 28.1778C45.7333 23.1101 44.0569 18.9054 41.3608 15.6804C38.8615 12.6907 36.4495 11.939 34.8289 8.85108C33.9905 7.25353 33.5313 5.42199 33.4643 3.40729C33.3593 0.234341 29.4428 -1.18989 27.3419 1.18728C25.2929 3.50612 23.5027 5.98795 22.0213 8.5636C21.6541 9.20189 21.874 10.017 22.5123 10.384C23.1507 10.7511 23.9658 10.5313 24.3326 9.89301C25.7249 7.47251 27.4094 5.1375 29.3399 2.95282C29.8431 2.38369 30.7737 2.72117 30.7993 3.49562C30.8797 5.91528 31.4411 8.13396 32.4677 10.0902C34.3929 13.7584 37.0328 14.6605 39.3151 17.3908C41.6748 20.2133 43.1487 23.9495 43.6958 28.4962C44.0354 31.3205 47.5322 32.4583 49.4821 30.3678C50.3267 29.4622 51.0031 28.4137 51.4926 27.2513C51.6963 26.768 52.3335 26.6744 52.6648 27.0798C63.4826 40.3218 62.5818 60.2214 50.6977 70.534C40.2527 79.5979 23.2574 79.5979 12.8123 70.534C0.924233 60.2179 0.0264611 40.3144 10.8519 27.0715C11.1774 26.6732 11.8162 26.7432 12.0151 27.22C12.3821 28.0984 12.8524 28.9144 13.413 29.6448C15.3462 32.1645 19.3728 30.8452 19.4065 27.6808C19.4443 24.1444 19.9996 20.6559 21.0667 17.284C21.2888 16.5821 20.9 15.8328 20.1979 15.6106C19.4961 15.3885 18.7467 15.7773 18.5245 16.4794C17.3891 20.0663 16.781 23.8154 16.74 27.6523C16.7356 28.0531 16.4612 28.2044 16.2978 28.2587C16.1574 28.3056 15.8007 28.3764 15.5284 28.0214C15.1081 27.4736 14.7538 26.8582 14.4755 26.1919C13.5024 23.8624 10.3891 23.4242 8.78719 25.3838C-3.4598 40.3658 -1.53226 61.6168 11.0644 72.5477C22.5133 82.4827 40.9938 82.4847 52.445 72.5477C65.0347 61.6238 66.9739 40.3803 54.73 25.3931Z" fill="#7EBEEE"/>
<path d="M20.815 51.0209C21.1045 50.3438 20.7904 49.5603 20.1133 49.271C19.4361 48.9817 18.6527 49.2957 18.3634 49.9728C17.6493 51.6433 16.2147 52.7981 14.2563 53.0984V42.4973C14.2563 41.761 13.6594 41.1641 12.9231 41.1641C12.1868 41.1641 11.5898 41.761 11.5898 42.4973V59.8294C11.5898 60.5657 12.1868 61.1627 12.9231 61.1627C13.6594 61.1627 14.2563 60.5657 14.2563 59.8294V55.7841C14.7118 55.7346 15.2231 55.6457 15.7642 55.4892C17.0678 56.7262 17.9672 58.2586 18.2752 60.0548C18.3995 60.7802 19.0888 61.2684 19.8144 61.1435C20.5402 61.0192 21.0277 60.3301 20.9032 59.6043C20.5566 57.5811 19.6395 55.7807 18.2752 54.2548C19.4105 53.4151 20.2592 52.3208 20.815 51.0209Z" fill="#7EBEEE"/>
<path d="M29.8632 52.6388C30.3022 53.2298 31.1375 53.353 31.7285 52.9138C32.3196 52.4747 32.4426 51.6396 32.0034 51.0486C31.1265 49.868 29.7256 49.1631 28.2562 49.1631C25.6832 49.1631 23.5898 51.2564 23.5898 53.8294V56.4959C23.5898 59.0689 25.6832 61.1623 28.2562 61.1623C29.7356 61.1623 31.1423 60.4496 32.0189 59.2561C32.4547 58.6626 32.3271 57.8282 31.7336 57.3922C31.1402 56.9562 30.3057 57.084 29.8697 57.6775C28.7263 59.2344 26.2562 58.4196 26.2562 56.4957V53.8293C26.2563 51.9079 28.716 51.0948 29.8632 52.6388Z" fill="#7EBEEE"/>
<path d="M38.6716 53.6628C36.6041 53.6628 34.9219 55.3448 34.9219 57.4125C34.9219 59.4802 36.6041 61.1623 38.6716 61.1623H40.5048C42.5723 61.1623 44.2546 59.4802 44.2546 57.4125V52.9128C44.2546 50.8451 42.5723 49.1631 40.5048 49.1631H37.5884C36.8521 49.1631 36.2551 49.76 36.2551 50.4963C36.2551 51.2326 36.8521 51.8296 37.5884 51.8296H40.5048C41.1021 51.8296 41.5881 52.3155 41.5881 52.9128V53.6628H38.6716ZM41.5881 57.4125C41.5881 58.0098 41.1021 58.4958 40.5048 58.4958H38.6716C38.0743 58.4958 37.5884 58.0098 37.5884 57.4125C37.5884 56.8152 38.0743 56.3293 38.6716 56.3293H41.5881V57.4125Z" fill="#7EBEEE"/>
<path d="M48.2551 41.1641C47.5188 41.1641 46.9219 41.761 46.9219 42.4973V55.8297C46.9219 58.7704 49.3142 61.1627 52.2548 61.1627C52.9911 61.1627 53.5881 60.5657 53.5881 59.8294C53.5881 59.0932 52.9911 58.4962 52.2548 58.4962C50.7846 58.4962 49.5884 57.3 49.5884 55.8297V42.4973C49.5884 41.761 48.9914 41.1641 48.2551 41.1641Z" fill="#7EBEEE"/>
</svg>
