<svg width="167" height="69" viewBox="0 0 167 69" fill="none" xmlns="http://www.w3.org/2000/svg">
<path d="M103.521 5.92236L104.168 6.68502L106.269 4.90378L103.515 4.92239L103.521 5.92236ZM103.192 10.2437L102.313 10.72L102.319 10.7309L103.192 10.2437ZM106.012 13.5273L105.287 14.2161L105.296 14.2254L105.305 14.2345L106.012 13.5273ZM107.074 14.687L106.314 15.3378L106.321 15.3451L106.327 15.3522L107.074 14.687ZM108.014 15.8955L107.17 16.4324L107.173 16.4375L108.014 15.8955ZM108.441 20.0093L107.544 19.5672L107.539 19.5778L108.441 20.0093ZM107.281 21.5474L107.958 22.284L107.958 22.2835L107.281 21.5474ZM105.365 22.6826L105.005 21.7495L105.002 21.7508L105.365 22.6826ZM102.801 23.1953L101.98 22.6242L100.827 24.2821L102.845 24.1944L102.801 23.1953ZM102.936 20.7661L102.006 21.1345L102.008 21.1406L102.936 20.7661ZM102.154 19.3867L101.339 19.9664L101.341 19.9692L102.154 19.3867ZM100.262 17.0674L99.5241 17.742L99.528 17.7463L100.262 17.0674ZM98.8096 15.4438L98.0382 16.0802L98.0429 16.0859L98.0476 16.0915L98.8096 15.4438ZM97.894 14.2109L98.7177 13.6438L98.7152 13.6403L97.894 14.2109ZM97.7842 8.62012L96.971 8.03813L97.7842 8.62012ZM100.189 6.65479L99.7621 5.75045L99.7593 5.75179L100.189 6.65479ZM107.586 13.2954H106.586V14.2954H107.586V13.2954ZM107.159 10.854L108.106 10.5323L108.105 10.5293L107.159 10.854ZM104.352 6.89893L103.358 6.78849L103.295 7.35036L103.744 7.69356L104.352 6.89893ZM107.489 6.42285L107.202 7.38095L107.205 7.38175L107.489 6.42285ZM109.381 7.10645L110.367 6.94205L110.281 6.42647L109.809 6.20271L109.381 7.10645ZM109.271 10.6587L110.263 10.7838L110.263 10.7827L109.271 10.6587ZM108.856 12.8071L109.784 13.1785L109.8 13.1404L109.812 13.1012L108.856 12.8071ZM108.331 13.1489L108.647 14.0976L108.655 14.0951L108.663 14.0924L108.331 13.1489ZM101.739 22.1333L102.724 22.3071L102.883 21.4052L101.999 21.1675L101.739 22.1333ZM101.288 23.2441V24.2441H101.678L101.965 23.9801L101.288 23.2441ZM95.7212 22.0723L94.7222 22.1177L94.7456 22.6325L95.1785 22.9122L95.7212 22.0723ZM96.2705 16.7866L97.2377 17.0409L97.2407 17.0292L96.2705 16.7866ZM96.6855 16.2983L97.3102 17.0792L97.318 17.073L97.3257 17.0666L96.6855 16.2983ZM97.3447 15.9932L98.3236 15.7885L98.1573 14.9932H97.3447V15.9932ZM98.3457 18.6909L97.4627 19.1603L97.466 19.1664L98.3457 18.6909ZM99.9937 20.9858L99.2772 21.6836L99.2865 21.6929L99.9937 20.9858ZM102.875 5.15971C102.028 5.87792 101.557 6.81174 101.557 7.91211H103.557C103.557 7.44998 103.729 7.05731 104.168 6.68502L102.875 5.15971ZM101.557 7.91211C101.557 8.87491 101.822 9.81446 102.313 10.7199L104.071 9.76737C103.715 9.11035 103.557 8.49553 103.557 7.91211H101.557ZM102.319 10.7309C102.793 11.5805 103.352 12.3216 104.002 12.9436L105.385 11.4988C104.895 11.0303 104.454 10.4531 104.065 9.75645L102.319 10.7309ZM104.002 12.9436C104.567 13.4847 104.994 13.9075 105.287 14.2161L106.737 12.8386C106.411 12.4961 105.959 12.0481 105.385 11.4988L104.002 12.9436ZM105.305 14.2345C105.599 14.5289 105.935 14.8955 106.314 15.3378L107.833 14.0362C107.431 13.5671 107.059 13.1606 106.719 12.8202L105.305 14.2345ZM106.327 15.3522C106.703 15.7747 106.98 16.1339 107.17 16.4324L108.857 15.3586C108.592 14.941 108.242 14.4945 107.82 14.0218L106.327 15.3522ZM107.173 16.4375C107.685 17.2315 107.856 17.8042 107.856 18.1904H109.856C109.856 17.2583 109.465 16.3011 108.854 15.3536L107.173 16.4375ZM107.856 18.1904C107.856 18.6945 107.75 19.1488 107.544 19.5673L109.338 20.4513C109.685 19.7467 109.856 18.9884 109.856 18.1904H107.856ZM107.539 19.5778C107.331 20.0132 107.025 20.4249 106.604 20.8112L107.958 22.2835C108.547 21.7421 109.014 21.1284 109.343 20.4407L107.539 19.5778ZM106.605 20.8107C106.22 21.1639 105.697 21.4829 105.005 21.7495L105.724 23.6157C106.595 23.2801 107.349 22.8423 107.958 22.284L106.605 20.8107ZM105.002 21.7508C104.343 22.0074 103.598 22.1597 102.758 22.1963L102.845 24.1944C103.876 24.1495 104.84 23.9601 105.728 23.6144L105.002 21.7508ZM103.622 23.7664C103.985 23.2455 104.192 22.6587 104.192 22.0234H102.192C102.192 22.2019 102.139 22.3965 101.98 22.6242L103.622 23.7664ZM104.192 22.0234C104.192 21.4678 104.077 20.9219 103.863 20.3917L102.008 21.1406C102.136 21.4566 102.192 21.749 102.192 22.0234H104.192ZM103.865 20.3977C103.657 19.8721 103.351 19.3405 102.967 18.8042L101.341 19.9692C101.657 20.4095 101.872 20.7975 102.006 21.1345L103.865 20.3977ZM102.969 18.8071C102.381 17.9808 101.723 17.1746 100.996 16.3884L99.528 17.7463C100.201 18.4738 100.804 19.2139 101.339 19.9664L102.969 18.8071ZM101 16.3927C100.309 15.636 99.8354 15.1066 99.5715 14.7962L98.0476 16.0915C98.3372 16.4321 98.8323 16.9851 99.5241 17.742L101 16.3927ZM99.5809 14.8075C99.3367 14.5115 99.0494 14.1256 98.7177 13.6438L97.0704 14.778C97.4223 15.2891 97.7453 15.7252 98.0382 16.0802L99.5809 14.8075ZM98.7152 13.6403C98.1398 12.8122 97.8931 12.0431 97.8931 11.3179H95.8931C95.8931 12.5295 96.3137 13.6892 97.0729 14.7816L98.7152 13.6403ZM97.8931 11.3179C97.8931 10.5699 98.1178 9.87218 98.5974 9.20211L96.971 8.03813C96.2624 9.02821 95.8931 10.129 95.8931 11.3179H97.8931ZM98.5974 9.20211C99.0837 8.52258 99.7476 7.97221 100.619 7.55778L99.7593 5.75179C98.6121 6.29765 97.6728 7.0575 96.971 8.03813L98.5974 9.20211ZM100.616 7.55911C101.492 7.14531 102.459 6.92957 103.528 6.92234L103.515 4.92239C102.175 4.93144 100.92 5.20397 99.7621 5.75046L100.616 7.55911ZM108.586 13.2954C108.586 12.3842 108.422 11.4616 108.106 10.5323L106.212 11.1757C106.466 11.9228 106.586 12.6279 106.586 13.2954H108.586ZM108.105 10.5293C107.483 8.71656 106.434 7.2311 104.959 6.10429L103.744 7.69356C104.89 8.56871 105.713 9.71996 106.213 11.1787L108.105 10.5293ZM105.345 7.00936C105.335 7.10562 105.307 7.17639 105.288 7.21719C105.268 7.25746 105.252 7.27775 105.252 7.27807C105.251 7.279 105.26 7.26842 105.283 7.24664C105.305 7.22524 105.338 7.19699 105.382 7.16205L104.151 5.586C103.985 5.71565 103.819 5.86555 103.683 6.0376C103.553 6.20195 103.395 6.45669 103.358 6.78849L105.345 7.00936ZM105.382 7.16205C105.427 7.12721 105.464 7.10126 105.493 7.08239C105.523 7.06337 105.542 7.05361 105.55 7.04957C105.559 7.04542 105.552 7.0495 105.532 7.055C105.51 7.06055 105.47 7.06885 105.414 7.06885V5.06885C104.89 5.06885 104.447 5.35476 104.151 5.586L105.382 7.16205ZM105.414 7.06885C105.881 7.06885 106.473 7.16284 107.202 7.38095L107.775 5.46475C106.926 5.21086 106.134 5.06885 105.414 5.06885V7.06885ZM107.205 7.38175C107.979 7.6109 108.555 7.8218 108.953 8.01018L109.809 6.20271C109.279 5.95164 108.593 5.70681 107.773 5.46395L107.205 7.38175ZM108.394 7.27084C108.42 7.42425 108.442 7.77621 108.442 8.38818H110.442C110.442 7.77945 110.423 7.27693 110.367 6.94205L108.394 7.27084ZM108.442 8.38818C108.442 8.93343 108.39 9.64539 108.279 10.5347L110.263 10.7827C110.38 9.84907 110.442 9.04736 110.442 8.38818H108.442ZM108.279 10.5336C108.168 11.4111 108.039 12.063 107.9 12.513L109.812 13.1012C109.999 12.4933 110.146 11.7129 110.263 10.7838L108.279 10.5336ZM107.927 12.4357C107.972 12.3246 108.031 12.2503 108.07 12.2091C108.109 12.1683 108.138 12.149 108.142 12.1461C108.148 12.1426 108.14 12.148 108.114 12.1601C108.089 12.1719 108.051 12.1873 108 12.2055L108.663 14.0924C108.853 14.0254 109.054 13.9392 109.234 13.8221C109.4 13.7137 109.65 13.5134 109.784 13.1785L107.927 12.4357ZM108.015 12.2002C107.777 12.2796 107.642 12.2954 107.586 12.2954V14.2954C107.938 14.2954 108.299 14.2135 108.647 14.0976L108.015 12.2002ZM100.754 21.9595C100.713 22.1923 100.667 22.35 100.627 22.4494C100.584 22.5542 100.566 22.5488 100.611 22.5082L101.965 23.9801C102.428 23.5538 102.621 22.891 102.724 22.3071L100.754 21.9595ZM101.288 22.2441C100.514 22.2441 99.5699 22.1442 98.4458 21.9319L98.0747 23.8972C99.2781 24.1244 100.352 24.2441 101.288 24.2441V22.2441ZM98.4458 21.9319C97.3172 21.7188 96.6264 21.4665 96.2639 21.2323L95.1785 22.9122C95.874 23.3616 96.8758 23.6708 98.0747 23.8972L98.4458 21.9319ZM96.7202 22.0269C96.7131 21.8707 96.709 21.6322 96.709 21.3032H94.709C94.709 21.6415 94.713 21.9158 94.7222 22.1177L96.7202 22.0269ZM96.709 21.3032C96.709 19.7955 96.8867 18.3759 97.2377 17.0408L95.3034 16.5324C94.9056 18.0457 94.709 19.6371 94.709 21.3032H96.709ZM97.2407 17.0292C97.2208 17.1087 97.1929 17.1621 97.1785 17.1867C97.1638 17.212 97.1548 17.2214 97.1606 17.2145C97.1659 17.2084 97.1797 17.1931 97.2057 17.1687C97.2314 17.1447 97.2657 17.1148 97.3102 17.0792L96.0609 15.5175C95.9096 15.6385 95.7615 15.7725 95.6367 15.9192C95.5206 16.0559 95.3696 16.267 95.3004 16.5441L97.2407 17.0292ZM97.3257 17.0666C97.3619 17.0364 97.3912 17.015 97.4137 17.0002C97.4362 16.9854 97.4495 16.9788 97.4536 16.9769C97.4625 16.9728 97.4226 16.9932 97.3447 16.9932V14.9932C96.8079 14.9932 96.3642 15.2644 96.0454 15.5301L97.3257 17.0666ZM96.3659 16.1978C96.5745 17.1955 96.9435 18.1834 97.4627 19.1603L99.2287 18.2216C98.7877 17.3918 98.4893 16.5812 98.3236 15.7885L96.3659 16.1978ZM97.466 19.1664C97.9908 20.1373 98.5925 20.9805 99.2773 21.6836L100.71 20.2881C100.174 19.738 99.6772 19.0512 99.2254 18.2154L97.466 19.1664ZM99.2865 21.6929C99.9668 22.3732 100.697 22.8887 101.48 23.0991L101.999 21.1675C101.691 21.0849 101.258 20.8355 100.701 20.2787L99.2865 21.6929ZM119.439 14.5527L118.45 14.4068L118.299 15.4341L119.331 15.5468L119.439 14.5527ZM123.688 15.2729H124.688V14.5289L123.975 14.3151L123.688 15.2729ZM123.407 16.2617L123.468 17.2599L123.881 17.2346L124.156 16.9243L123.407 16.2617ZM119.11 16.8965L118.892 15.9205L118.207 16.0734L118.118 16.769L119.11 16.8965ZM118.561 22.1943L117.564 22.1142L117.561 22.1542V22.1943H118.561ZM118.17 22.6826L118.801 23.4587L118.808 23.4529L118.815 23.4469L118.17 22.6826ZM111.81 23L110.846 22.7337L110.496 24H111.81V23ZM114.227 7.17969L115.224 7.25836L115.227 7.21908V7.17969H114.227ZM120.978 6.38623L121.952 6.61066L122.234 5.38623H120.978V6.38623ZM124.688 13.7837L123.701 13.9407L123.835 14.7837H124.688V13.7837ZM123.578 10.1094L122.665 10.5172L123.578 10.1094ZM121.93 7.36279L120.935 7.25919L120.889 7.70352L121.189 8.03448L121.93 7.36279ZM122.284 6.38623V5.38623H121.784L121.484 5.78623L122.284 6.38623ZM126.715 6.38623L127.712 6.45821L127.79 5.38623H126.715V6.38623ZM126.349 9.57227L127.339 9.71199L127.339 9.71115L126.349 9.57227ZM125.75 12.9658L126.724 13.1949L126.726 13.1863L125.75 12.9658ZM124.127 17.9829L123.341 17.3651L123.308 17.4071L123.279 17.4523L124.127 17.9829ZM125.482 17.1772L126.475 17.291L126.603 16.1772H125.482V17.1772ZM124.701 22.1211L125.613 22.5315L125.644 22.4621L125.664 22.3887L124.701 22.1211ZM119.244 23L118.687 22.1695L115.958 24H119.244V23ZM119.331 15.5468C121.258 15.7573 122.597 15.9899 123.4 16.2308L123.975 14.3151C122.987 14.0189 121.495 13.7714 119.548 13.5586L119.331 15.5468ZM122.688 15.2729C122.688 15.4309 122.671 15.5291 122.655 15.5827C122.641 15.6335 122.633 15.6269 122.658 15.5991L124.156 16.9243C124.576 16.449 124.688 15.8292 124.688 15.2729H122.688ZM123.346 15.2636C121.95 15.3487 120.465 15.5691 118.892 15.9205L119.328 17.8724C120.815 17.5403 122.194 17.3375 123.468 17.2599L123.346 15.2636ZM118.118 16.769C117.896 18.4946 117.711 20.2764 117.564 22.1142L119.557 22.2744C119.703 20.4664 119.884 18.7163 120.102 17.024L118.118 16.769ZM117.561 22.1943C117.561 22.0207 117.612 21.8983 117.636 21.8481C117.65 21.8193 117.663 21.7991 117.67 21.788C117.674 21.7821 117.677 21.7779 117.679 21.7752C117.681 21.7726 117.682 21.7712 117.682 21.7711C117.682 21.771 117.679 21.7748 117.672 21.7826C117.665 21.7903 117.655 21.8007 117.641 21.814C117.614 21.841 117.576 21.8756 117.525 21.9183L118.815 23.4469C118.968 23.3179 119.121 23.1744 119.244 23.0204C119.334 22.9078 119.561 22.609 119.561 22.1943H117.561ZM117.539 21.9065C117.497 21.9412 117.461 21.9668 117.433 21.9851C117.405 22.0036 117.387 22.0129 117.379 22.0166C117.36 22.0258 117.405 22 117.499 22V24C118.037 24 118.488 23.713 118.801 23.4587L117.539 21.9065ZM117.499 22H111.81V24H117.499V22ZM112.774 23.2663C113.888 19.2323 114.701 13.8881 115.224 7.25836L113.23 7.10102C112.712 13.6712 111.913 18.8738 110.846 22.7337L112.774 23.2663ZM115.227 7.17969C115.227 7.36082 115.171 7.4889 115.144 7.54312C115.128 7.57377 115.114 7.59539 115.106 7.60756C115.097 7.61999 115.092 7.62661 115.091 7.62727C115.091 7.6276 115.102 7.6149 115.13 7.58861C115.158 7.56308 115.197 7.53 115.249 7.4891L114.011 5.91812C113.853 6.04257 113.694 6.18268 113.564 6.33538C113.471 6.44616 113.227 6.74943 113.227 7.17969H115.227ZM115.249 7.4891C115.342 7.41538 115.4 7.38347 115.423 7.37259C115.448 7.36105 115.406 7.38623 115.313 7.38623V5.38623C114.78 5.38623 114.328 5.6685 114.011 5.91812L115.249 7.4891ZM115.313 7.38623H120.978V5.38623H115.313V7.38623ZM120.003 6.1618C119.379 8.87362 118.861 11.622 118.45 14.4068L120.429 14.6986C120.832 11.9659 121.34 9.26994 121.952 6.61066L120.003 6.1618ZM125.676 13.6267C125.466 12.3052 125.069 10.9963 124.491 9.70154L122.665 10.5172C123.177 11.6638 123.52 12.8045 123.701 13.9407L125.676 13.6267ZM124.491 9.70154C123.926 8.43654 123.325 7.41312 122.671 6.6911L121.189 8.03448C121.641 8.53316 122.139 9.3408 122.665 10.5172L124.491 9.70154ZM122.924 7.4664C122.95 7.21853 123.017 7.07455 123.084 6.98623L121.484 5.78623C121.159 6.21875 120.991 6.7258 120.935 7.25919L122.924 7.4664ZM122.284 7.38623H126.715V5.38623H122.284V7.38623ZM125.717 6.31425C125.663 7.07113 125.544 8.10789 125.358 9.43338L127.339 9.71115C127.527 8.36737 127.653 7.2801 127.712 6.45821L125.717 6.31425ZM125.358 9.43255C125.174 10.7416 124.979 11.8443 124.775 12.7453L126.726 13.1863C126.945 12.2156 127.149 11.0559 127.339 9.71199L125.358 9.43255ZM124.777 12.7368C124.794 12.6639 124.818 12.6148 124.831 12.592C124.844 12.5687 124.851 12.5608 124.845 12.5686C124.839 12.5757 124.825 12.592 124.799 12.6174C124.774 12.6425 124.74 12.6734 124.695 12.7103L125.976 14.2467C126.128 14.12 126.276 13.98 126.4 13.827C126.517 13.6823 126.659 13.4688 126.724 13.1949L124.777 12.7368ZM124.695 12.7103C124.658 12.7413 124.628 12.7635 124.605 12.7788C124.581 12.7943 124.568 12.8011 124.564 12.803C124.554 12.8076 124.6 12.7837 124.688 12.7837V14.7837C125.225 14.7837 125.666 14.5044 125.976 14.2467L124.695 12.7103ZM124.913 18.6007C124.896 18.6227 124.889 18.628 124.902 18.6153C124.914 18.604 124.936 18.5845 124.971 18.5563C125.043 18.4991 125.147 18.4231 125.292 18.3267L124.183 16.6626C123.876 16.8672 123.542 17.109 123.341 17.3651L124.913 18.6007ZM125.292 18.3267C125.419 18.2423 125.504 18.1976 125.554 18.1765C125.577 18.1665 125.584 18.1657 125.575 18.1678C125.567 18.1698 125.534 18.1772 125.482 18.1772V16.1772C124.981 16.1772 124.516 16.4406 124.183 16.6626L125.292 18.3267ZM124.488 17.0635C124.211 19.4868 123.957 21.0606 123.737 21.8535L125.664 22.3887C125.932 21.4238 126.199 19.7017 126.475 17.291L124.488 17.0635ZM123.789 21.7107C123.794 21.6991 123.787 21.7175 123.748 21.7672C123.711 21.8154 123.653 21.8804 123.568 21.9623L124.955 23.4029C125.211 23.1566 125.463 22.8648 125.613 22.5315L123.789 21.7107ZM123.568 21.9623C123.531 21.9975 123.502 22.0223 123.481 22.039C123.46 22.0561 123.451 22.0613 123.453 22.0597C123.456 22.0585 123.478 22.0452 123.519 22.0315C123.561 22.0176 123.631 22 123.724 22V24C124.04 24 124.299 23.8831 124.471 23.7816C124.65 23.6755 124.812 23.5401 124.955 23.4029L123.568 21.9623ZM123.724 22H119.244V24H123.724V22ZM119.801 23.8305C121.918 22.411 123.645 20.6373 124.975 18.5135L123.279 17.4523C122.102 19.3325 120.575 20.9035 118.687 22.1695L119.801 23.8305ZM135.321 23L134.361 23.2797L134.571 24H135.321V23ZM129.413 7.17969H128.413V7.40168L128.507 7.60282L129.413 7.17969ZM129.803 6.70361L129.184 5.91812L129.178 5.92277L129.173 5.9275L129.803 6.70361ZM136.737 6.38623L137.697 6.10566L137.486 5.38623H136.737V6.38623ZM139.41 14.6138L138.472 14.9605L138.473 14.9616L139.41 14.6138ZM142.633 22.1943H143.633V21.9709L143.538 21.7687L142.633 22.1943ZM142.242 22.6826L142.873 23.4587L142.88 23.4529L142.887 23.4469L142.242 22.6826ZM140.069 14.1987L139.112 13.91L138.723 15.1987H140.069V14.1987ZM140.619 8.77881L139.645 9.00785L139.646 9.01218L140.619 8.77881ZM140.106 7.17969H139.106V7.36102L139.17 7.53081L140.106 7.17969ZM140.497 6.70361L139.878 5.91812L139.872 5.92277L139.866 5.9275L140.497 6.70361ZM145.074 6.38623L145.911 6.93348L146.923 5.38623H145.074V6.38623ZM142.694 10.1948L143.557 10.6995L142.694 10.1948ZM141.131 13.3687L140.203 12.9973L140.199 13.0074L140.195 13.0175L141.131 13.3687ZM132.013 15.1387L132.967 15.4361L133.372 14.1387H132.013V15.1387ZM131.976 22.1943H132.976V22.0118L132.912 21.8411L131.976 22.1943ZM131.573 22.6826L132.204 23.4587L132.206 23.4566L131.573 22.6826ZM126.996 23L126.158 22.4544L125.151 24H126.996V23ZM130.938 15.9443L131.865 16.3201L131.87 16.3079L131.875 16.2955L130.938 15.9443ZM131.366 15.4438L130.726 14.6756L130.719 14.681L130.713 14.6864L131.366 15.4438ZM136.281 22.7203C134.632 17.0596 132.645 11.7378 130.319 6.75656L128.507 7.60282C130.786 12.4848 132.738 17.71 134.361 23.2797L136.281 22.7203ZM130.413 7.17969C130.413 7.35443 130.361 7.47857 130.334 7.53211C130.319 7.56221 130.306 7.58357 130.298 7.59573C130.289 7.60813 130.284 7.61483 130.283 7.61564C130.283 7.6163 130.293 7.60401 130.32 7.57814C130.347 7.55301 130.384 7.5203 130.434 7.47973L129.173 5.9275C129.019 6.05262 128.863 6.19356 128.737 6.34701C128.644 6.46091 128.413 6.76016 128.413 7.17969H130.413ZM130.422 7.4891C130.516 7.41538 130.573 7.38347 130.597 7.37259C130.621 7.36105 130.58 7.38623 130.487 7.38623V5.38623C129.954 5.38623 129.501 5.6685 129.184 5.91812L130.422 7.4891ZM130.487 7.38623H136.737V5.38623H130.487V7.38623ZM135.777 6.6668C136.709 9.85594 137.607 12.6216 138.472 14.9605L140.348 14.267C139.504 11.9835 138.62 9.26417 137.697 6.10566L135.777 6.6668ZM138.473 14.9616C139.339 17.2964 140.425 19.8496 141.728 22.62L143.538 21.7687C142.253 19.0378 141.19 16.5373 140.348 14.2659L138.473 14.9616ZM141.633 22.1943C141.633 22.0207 141.684 21.8983 141.709 21.8481C141.723 21.8193 141.735 21.7991 141.742 21.788C141.746 21.7821 141.749 21.7779 141.751 21.7752C141.753 21.7726 141.754 21.7712 141.754 21.7711C141.754 21.771 141.751 21.7748 141.744 21.7826C141.737 21.7903 141.727 21.8007 141.713 21.814C141.686 21.841 141.648 21.8756 141.597 21.9183L142.887 23.4469C143.04 23.3179 143.193 23.1744 143.316 23.0204C143.406 22.9078 143.633 22.609 143.633 22.1943H141.633ZM141.612 21.9065C141.569 21.9412 141.534 21.9668 141.506 21.9851C141.477 22.0036 141.46 22.0129 141.452 22.0166C141.432 22.0258 141.477 22 141.571 22V24C142.109 24 142.56 23.713 142.873 23.4587L141.612 21.9065ZM141.571 22H135.321V24H141.571V22ZM141.027 14.4875C141.508 12.8916 141.765 11.4553 141.765 10.1948H139.765C139.765 11.1967 139.558 12.4296 139.112 13.91L141.027 14.4875ZM141.765 10.1948C141.765 9.60006 141.711 9.04676 141.591 8.54544L139.646 9.01218C139.721 9.32466 139.765 9.71537 139.765 10.1948H141.765ZM141.592 8.54977C141.481 8.07575 141.293 7.498 141.042 6.82856L139.17 7.53081C139.407 8.16346 139.561 8.65179 139.645 9.00785L141.592 8.54977ZM141.106 7.17969C141.106 7.35443 141.054 7.47857 141.028 7.53211C141.013 7.56221 140.999 7.58357 140.991 7.59573C140.983 7.60813 140.977 7.61483 140.977 7.61564C140.976 7.6163 140.986 7.60401 141.014 7.57814C141.04 7.55301 141.077 7.5203 141.127 7.47973L139.866 5.9275C139.712 6.05262 139.556 6.19356 139.431 6.34701C139.337 6.46091 139.106 6.76016 139.106 7.17969H141.106ZM141.115 7.4891C141.209 7.41538 141.267 7.38347 141.29 7.37259C141.315 7.36105 141.273 7.38623 141.18 7.38623V5.38623C140.647 5.38623 140.195 5.6685 139.878 5.91812L141.115 7.4891ZM141.18 7.38623H145.074V5.38623H141.18V7.38623ZM144.237 5.83898C143.263 7.32853 142.46 8.61302 141.831 9.69013L143.557 10.6995C144.164 9.66074 144.948 8.40617 145.911 6.93348L144.237 5.83898ZM141.831 9.69013C141.189 10.7876 140.646 11.89 140.203 12.9973L142.06 13.74C142.463 12.7314 142.962 11.7179 143.557 10.6995L141.831 9.69013ZM140.195 13.0175C140.213 12.9702 140.23 12.943 140.233 12.9378C140.237 12.9316 140.234 12.9369 140.22 12.9543C140.189 12.9906 140.132 13.0509 140.037 13.1368L141.372 14.6259C141.611 14.411 141.925 14.0995 142.068 13.7198L140.195 13.0175ZM140.037 13.1368C140.002 13.1681 139.974 13.1899 139.953 13.2045C139.933 13.2192 139.922 13.2246 139.921 13.225C139.919 13.2263 139.972 13.1987 140.069 13.1987V15.1987C140.625 15.1987 141.07 14.8966 141.372 14.6259L140.037 13.1368ZM131.058 14.8413C130.578 16.3822 130.317 17.7464 130.317 18.9106H132.317C132.317 18.0241 132.52 16.8737 132.967 15.4361L131.058 14.8413ZM130.317 18.9106C130.317 20.0794 130.567 21.2943 131.041 22.5476L132.912 21.8411C132.506 20.7669 132.317 19.7927 132.317 18.9106H130.317ZM130.976 22.1943C130.976 22.0144 131.031 21.888 131.056 21.8371C131.071 21.8078 131.084 21.7873 131.092 21.7762C131.096 21.7703 131.099 21.766 131.101 21.7634C131.103 21.7608 131.104 21.7594 131.104 21.7594C131.104 21.7593 131.103 21.7603 131.101 21.7624C131.099 21.7645 131.097 21.7675 131.093 21.7714C131.086 21.7792 131.075 21.7898 131.061 21.8033C131.032 21.8307 130.993 21.8657 130.94 21.9087L132.206 23.4566C132.363 23.3282 132.52 23.1854 132.647 23.0321C132.737 22.9225 132.976 22.6195 132.976 22.1943H130.976ZM130.943 21.9065C130.9 21.9412 130.865 21.9668 130.837 21.9851C130.808 22.0036 130.791 22.0129 130.783 22.0166C130.763 22.0258 130.808 22 130.902 22V24C131.44 24 131.891 23.713 132.204 23.4587L130.943 21.9065ZM130.902 22H126.996V24H130.902V22ZM127.834 23.5456C129.757 20.5907 131.113 18.1755 131.865 16.3201L130.012 15.5685C129.332 17.2451 128.059 19.5336 126.158 22.4544L127.834 23.5456ZM131.875 16.2955C131.856 16.3446 131.838 16.3737 131.833 16.3812C131.828 16.3895 131.829 16.3862 131.842 16.3708C131.87 16.3385 131.925 16.2823 132.019 16.2013L130.713 14.6864C130.471 14.8952 130.148 15.2044 130.002 15.5932L131.875 16.2955ZM132.006 16.2121C132.043 16.181 132.073 16.1589 132.096 16.1435C132.12 16.1281 132.133 16.1213 132.137 16.1194C132.147 16.1148 132.101 16.1387 132.013 16.1387V14.1387C131.476 14.1387 131.035 14.418 130.726 14.6756L132.006 16.2121ZM98.8828 53L97.9191 52.7332L97.5684 54H98.8828V53ZM101.434 37.1797L102.431 37.2605L102.434 37.2201V37.1797H101.434ZM101.825 36.7036L101.206 35.9181L101.2 35.9228L101.194 35.9275L101.825 36.7036ZM107.94 36.3862L108.913 36.6174L109.206 35.3862H107.94V36.3862ZM105.646 52.1943L104.649 52.1161L104.646 52.1552V52.1943H105.646ZM105.255 52.6826L105.885 53.4587L105.893 53.4529L105.9 53.4469L105.255 52.6826ZM110.284 44.0278H109.284V45.0278H110.284V44.0278ZM109.747 40.3169L108.779 40.5662L108.78 40.5717L109.747 40.3169ZM108.612 37.3628L107.62 37.2335L107.572 37.6054L107.78 37.9175L108.612 37.3628ZM108.978 36.3862V35.3862H108.46L108.161 35.8095L108.978 36.3862ZM112.774 36.3862L113.769 36.4919L113.886 35.3862H112.774V36.3862ZM111.737 43.2222L112.703 43.4798L112.711 43.4514L112.717 43.4226L111.737 43.2222ZM111.139 43.7227L111.633 44.5921L111.639 44.5885L111.139 43.7227ZM95.416 44.0156L94.4183 43.9474L94.3453 45.0156H95.416V44.0156ZM95.8799 40.2681L96.8676 40.424L96.8678 40.4232L95.8799 40.2681ZM96.4292 37.2529L95.4853 36.9226L95.473 36.958L95.4633 36.9942L96.4292 37.2529ZM96.8442 36.7036L97.5236 37.4374L97.5247 37.4364L96.8442 36.7036ZM101.117 36.3862L101.884 37.0277L103.256 35.3862H101.117V36.3862ZM99.2002 39.1328L98.3181 38.6618L98.3145 38.6685L99.2002 39.1328ZM97.9185 41.5742L97.0333 41.1088L97.0315 41.1123L97.9185 41.5742ZM96.9785 43.3564L97.8564 43.8353L97.8584 43.8316L96.9785 43.3564ZM96.2949 43.7593L96.6889 44.6785L96.6977 44.6746L96.2949 43.7593ZM104.571 52H98.8828V54H104.571V52ZM99.8466 53.2668C101.065 48.8662 101.923 43.5265 102.431 37.2605L100.437 37.0989C99.9361 43.2841 99.0934 48.4912 97.9191 52.7332L99.8466 53.2668ZM102.434 37.1797C102.434 37.3544 102.382 37.4786 102.356 37.5321C102.341 37.5622 102.327 37.5836 102.319 37.5957C102.311 37.6081 102.305 37.6148 102.305 37.6156C102.304 37.6163 102.314 37.604 102.342 37.5781C102.368 37.553 102.405 37.5203 102.455 37.4797L101.194 35.9275C101.04 36.0526 100.885 36.1936 100.759 36.347C100.665 36.4609 100.434 36.7602 100.434 37.1797H102.434ZM102.444 37.4891C102.49 37.4526 102.528 37.4253 102.56 37.4053C102.591 37.3851 102.611 37.3744 102.621 37.3696C102.632 37.3648 102.627 37.3682 102.607 37.3733C102.588 37.3784 102.55 37.3862 102.496 37.3862V35.3862C101.964 35.3862 101.513 35.6763 101.206 35.9181L102.444 37.4891ZM102.496 37.3862H107.94V35.3862H102.496V37.3862ZM106.968 36.1551C105.902 40.6383 105.131 45.9614 104.649 52.1161L106.642 52.2726C107.12 46.1876 107.879 40.9721 108.913 36.6174L106.968 36.1551ZM104.646 52.1943C104.646 52.0207 104.697 51.8983 104.721 51.8481C104.735 51.8193 104.748 51.7991 104.755 51.788C104.759 51.7821 104.762 51.7779 104.764 51.7752C104.766 51.7726 104.767 51.7712 104.767 51.7711C104.767 51.771 104.764 51.7748 104.757 51.7826C104.75 51.7903 104.74 51.8007 104.726 51.814C104.699 51.841 104.661 51.8756 104.61 51.9183L105.9 53.4469C106.053 53.3179 106.206 53.1744 106.329 53.0204C106.419 52.9078 106.646 52.609 106.646 52.1943H104.646ZM104.624 51.9065C104.583 51.9404 104.548 51.9652 104.521 51.983C104.493 52.0009 104.476 52.0099 104.468 52.0136C104.449 52.0222 104.488 52 104.571 52V54C105.111 54 105.563 53.7209 105.885 53.4587L104.624 51.9065ZM111.284 44.0278C111.284 42.808 111.089 41.4838 110.714 40.0621L108.78 40.5717C109.122 41.8681 109.284 43.0178 109.284 44.0278H111.284ZM110.715 40.0675C110.358 38.6802 109.947 37.5622 109.444 36.8081L107.78 37.9175C108.091 38.3841 108.436 39.2355 108.779 40.5662L110.715 40.0675ZM109.603 37.4921C109.634 37.2601 109.704 37.0922 109.795 36.9629L108.161 35.8095C107.862 36.2336 107.688 36.7168 107.62 37.2335L109.603 37.4921ZM108.978 37.3862H112.774V35.3862H108.978V37.3862ZM111.78 36.2805C111.523 38.7027 111.181 40.9494 110.757 43.0217L112.717 43.4226C113.155 41.2795 113.505 38.9688 113.769 36.4919L111.78 36.2805ZM110.771 42.9645C110.792 42.8854 110.82 42.8245 110.843 42.7833C110.866 42.7419 110.888 42.7128 110.901 42.6961C110.926 42.6649 110.939 42.657 110.921 42.6719C110.906 42.685 110.875 42.7081 110.826 42.7412C110.777 42.7738 110.715 42.8124 110.638 42.8568L111.639 44.5885C111.845 44.4694 112.042 44.3418 112.205 44.2058C112.325 44.1047 112.601 43.8618 112.703 43.4798L110.771 42.9645ZM110.645 42.8532C110.499 42.9358 110.393 42.984 110.32 43.0098C110.243 43.0373 110.238 43.0278 110.284 43.0278V45.0278C110.767 45.0278 111.242 44.8143 111.633 44.5921L110.645 42.8532ZM96.4137 44.0838C96.4759 43.1736 96.6256 41.957 96.8676 40.424L94.8921 40.1121C94.6459 41.6716 94.4863 42.9533 94.4183 43.9474L96.4137 44.0838ZM96.8678 40.4232C97.1139 38.856 97.2894 37.9064 97.3951 37.5117L95.4633 36.9942C95.3248 37.5109 95.1341 38.5714 94.892 40.1129L96.8678 40.4232ZM97.3731 37.5833C97.3581 37.626 97.3475 37.6308 97.3736 37.5964C97.3983 37.5635 97.4448 37.5104 97.5236 37.4374L96.1648 35.9699C95.9017 36.2135 95.6224 36.5309 95.4853 36.9226L97.3731 37.5833ZM97.5247 37.4364C97.5626 37.4012 97.5926 37.3762 97.615 37.3591C97.6377 37.3417 97.6484 37.3357 97.6476 37.3361C97.6472 37.3363 97.6277 37.3475 97.5905 37.3593C97.5529 37.3712 97.4894 37.3862 97.4058 37.3862V35.3862C97.0979 35.3862 96.8417 35.4943 96.6635 35.595C96.4792 35.6992 96.3119 35.8333 96.1638 35.9708L97.5247 37.4364ZM97.4058 37.3862H101.117V35.3862H97.4058V37.3862ZM100.35 35.7448C99.49 36.7728 98.8073 37.7457 98.3181 38.6618L100.082 39.6038C100.488 38.8435 101.083 37.9853 101.884 37.0277L100.35 35.7448ZM98.3145 38.6685C97.8753 39.5064 97.4482 40.3198 97.0333 41.1088L98.8036 42.0396C99.2188 41.2498 99.6462 40.4357 100.086 39.5971L98.3145 38.6685ZM97.0315 41.1123C96.6253 41.8923 96.3147 42.4811 96.0986 42.8813L97.8584 43.8316C98.0818 43.418 98.3978 42.8186 98.8054 42.0362L97.0315 41.1123ZM96.1006 42.8776C96.1455 42.7954 96.1926 42.7401 96.2193 42.7114C96.2476 42.6809 96.27 42.6621 96.2795 42.6545C96.2967 42.6405 96.2962 42.6434 96.2633 42.6628C96.1983 42.701 96.0803 42.7612 95.8922 42.844L96.6977 44.6746C96.9165 44.5783 97.1158 44.4818 97.2787 44.3858C97.3598 44.338 97.4508 44.2794 97.5372 44.2095C97.6091 44.1514 97.7513 44.028 97.8564 43.8353L96.1006 42.8776ZM95.901 42.8401C95.7246 42.9157 95.5915 42.9637 95.4961 42.9915C95.3911 43.0222 95.3743 43.0156 95.416 43.0156V45.0156C95.8273 45.0156 96.2874 44.8505 96.6888 44.6784L95.901 42.8401ZM121.515 44.5527L120.525 44.4068L120.374 45.4341L121.406 45.5468L121.515 44.5527ZM125.763 45.2729H126.763V44.5289L126.05 44.3151L125.763 45.2729ZM125.482 46.2617L125.543 47.2599L125.956 47.2346L126.231 46.9243L125.482 46.2617ZM121.185 46.8965L120.967 45.9205L120.283 46.0734L120.193 46.769L121.185 46.8965ZM120.636 52.1943L119.639 52.1142L119.636 52.1542V52.1943H120.636ZM120.245 52.6826L120.876 53.4587L120.883 53.4529L120.89 53.4469L120.245 52.6826ZM113.885 53L112.921 52.7337L112.571 54H113.885V53ZM116.302 37.1797L117.299 37.2584L117.302 37.2191V37.1797H116.302ZM123.053 36.3862L124.027 36.6107L124.309 35.3862H123.053V36.3862ZM126.764 43.7837L125.776 43.9407L125.91 44.7837H126.764V43.7837ZM125.653 40.1094L124.74 40.5172L125.653 40.1094ZM124.005 37.3628L123.01 37.2592L122.964 37.7035L123.264 38.0345L124.005 37.3628ZM124.359 36.3862V35.3862H123.859L123.559 35.7862L124.359 36.3862ZM128.79 36.3862L129.787 36.4582L129.865 35.3862H128.79V36.3862ZM128.424 39.5723L129.414 39.712L129.414 39.7112L128.424 39.5723ZM127.826 42.9658L128.799 43.1949L128.801 43.1863L127.826 42.9658ZM126.202 47.9829L125.416 47.3651L125.383 47.4071L125.355 47.4523L126.202 47.9829ZM127.557 47.1772L128.551 47.291L128.678 46.1772H127.557V47.1772ZM126.776 52.1211L127.688 52.5315L127.719 52.4621L127.739 52.3887L126.776 52.1211ZM121.319 53L120.762 52.1695L118.033 54H121.319V53ZM121.406 45.5468C123.333 45.7573 124.673 45.9899 125.475 46.2308L126.05 44.3151C125.062 44.0189 123.57 43.7714 121.623 43.5586L121.406 45.5468ZM124.763 45.2729C124.763 45.4309 124.746 45.5291 124.731 45.5827C124.716 45.6335 124.708 45.6269 124.733 45.5991L126.231 46.9243C126.651 46.449 126.763 45.8292 126.763 45.2729H124.763ZM125.421 45.2636C124.025 45.3487 122.54 45.5691 120.967 45.9205L121.403 47.8724C122.89 47.5403 124.269 47.3375 125.543 47.2599L125.421 45.2636ZM120.193 46.769C119.971 48.4946 119.787 50.2764 119.639 52.1142L121.633 52.2744C121.778 50.4664 121.959 48.7163 122.177 47.024L120.193 46.769ZM119.636 52.1943C119.636 52.0207 119.687 51.8983 119.712 51.8481C119.725 51.8193 119.738 51.7991 119.745 51.788C119.749 51.7821 119.752 51.7779 119.754 51.7752C119.756 51.7726 119.757 51.7712 119.757 51.7711C119.757 51.771 119.754 51.7748 119.747 51.7826C119.74 51.7903 119.73 51.8007 119.716 51.814C119.689 51.841 119.651 51.8756 119.6 51.9183L120.89 53.4469C121.043 53.3179 121.196 53.1744 121.319 53.0204C121.409 52.9078 121.636 52.609 121.636 52.1943H119.636ZM119.615 51.9065C119.572 51.9412 119.536 51.9668 119.508 51.9851C119.48 52.0036 119.462 52.0129 119.455 52.0166C119.435 52.0258 119.48 52 119.574 52V54C120.112 54 120.563 53.713 120.876 53.4587L119.615 51.9065ZM119.574 52H113.885V54H119.574V52ZM114.849 53.2663C115.964 49.2323 116.776 43.8881 117.299 37.2584L115.305 37.101C114.787 43.6712 113.988 48.8738 112.921 52.7337L114.849 53.2663ZM117.302 37.1797C117.302 37.3608 117.247 37.4889 117.219 37.5431C117.204 37.5738 117.19 37.5954 117.181 37.6076C117.172 37.62 117.167 37.6266 117.166 37.6273C117.166 37.6276 117.177 37.6149 117.206 37.5886C117.233 37.5631 117.272 37.53 117.324 37.4891L116.086 35.9181C115.928 36.0426 115.769 36.1827 115.64 36.3354C115.546 36.4462 115.302 36.7494 115.302 37.1797H117.302ZM117.324 37.4891C117.418 37.4154 117.475 37.3835 117.499 37.3726C117.523 37.361 117.481 37.3862 117.389 37.3862V35.3862C116.855 35.3862 116.403 35.6685 116.086 35.9181L117.324 37.4891ZM117.389 37.3862H123.053V35.3862H117.389V37.3862ZM122.078 36.1618C121.454 38.8736 120.936 41.622 120.525 44.4068L122.504 44.6986C122.907 41.9659 123.415 39.2699 124.027 36.6107L122.078 36.1618ZM127.751 43.6267C127.541 42.3052 127.144 40.9963 126.566 39.7015L124.74 40.5172C125.252 41.6638 125.595 42.8045 125.776 43.9407L127.751 43.6267ZM126.566 39.7015C126.001 38.4365 125.4 37.4131 124.746 36.6911L123.264 38.0345C123.716 38.5332 124.214 39.3408 124.74 40.5172L126.566 39.7015ZM125 37.4664C125.025 37.2185 125.093 37.0745 125.159 36.9862L123.559 35.7862C123.234 36.2187 123.066 36.7258 123.01 37.2592L125 37.4664ZM124.359 37.3862H128.79V35.3862H124.359V37.3862ZM127.793 36.3143C127.738 37.0711 127.619 38.1079 127.434 39.4334L129.414 39.7112C129.603 38.3674 129.728 37.2801 129.787 36.4582L127.793 36.3143ZM127.434 39.4325C127.249 40.7416 127.054 41.8443 126.85 42.7453L128.801 43.1863C129.021 42.2156 129.224 41.0559 129.414 39.712L127.434 39.4325ZM126.852 42.7368C126.869 42.6639 126.894 42.6148 126.906 42.592C126.919 42.5687 126.927 42.5608 126.92 42.5686C126.914 42.5757 126.9 42.592 126.874 42.6174C126.849 42.6425 126.815 42.6734 126.77 42.7103L128.051 44.2467C128.203 44.12 128.351 43.98 128.475 43.827C128.592 43.6823 128.735 43.4688 128.799 43.1949L126.852 42.7368ZM126.77 42.7103C126.733 42.7413 126.703 42.7635 126.68 42.7788C126.657 42.7943 126.643 42.8011 126.639 42.803C126.629 42.8076 126.675 42.7837 126.764 42.7837V44.7837C127.3 44.7837 127.742 44.5044 128.051 44.2467L126.77 42.7103ZM126.988 48.6007C126.971 48.6227 126.964 48.628 126.977 48.6153C126.989 48.604 127.011 48.5845 127.047 48.5563C127.118 48.4991 127.223 48.4231 127.367 48.3267L126.258 46.6626C125.951 46.8672 125.617 47.109 125.416 47.3651L126.988 48.6007ZM127.367 48.3267C127.494 48.2423 127.579 48.1976 127.629 48.1765C127.652 48.1665 127.659 48.1657 127.65 48.1678C127.642 48.1698 127.609 48.1772 127.557 48.1772V46.1772C127.057 46.1772 126.591 46.4406 126.258 46.6626L127.367 48.3267ZM126.564 47.0635C126.286 49.4868 126.033 51.0606 125.812 51.8535L127.739 52.3887C128.007 51.4238 128.275 49.7017 128.551 47.291L126.564 47.0635ZM125.864 51.7107C125.869 51.6991 125.862 51.7175 125.824 51.7672C125.786 51.8154 125.728 51.8804 125.643 51.9623L127.03 53.4029C127.286 53.1566 127.538 52.8648 127.688 52.5315L125.864 51.7107ZM125.643 51.9623C125.606 51.9975 125.578 52.0223 125.557 52.039C125.535 52.0561 125.526 52.0613 125.529 52.0597C125.531 52.0585 125.553 52.0452 125.594 52.0315C125.636 52.0176 125.707 52 125.799 52V54C126.116 54 126.374 53.8831 126.546 53.7816C126.726 53.6755 126.888 53.5401 127.03 53.4029L125.643 51.9623ZM125.799 52H121.319V54H125.799V52ZM121.876 53.8305C123.993 52.411 125.72 50.6373 127.05 48.5135L125.355 47.4523C124.178 49.3325 122.65 50.9035 120.762 52.1695L121.876 53.8305ZM137.921 53L136.929 53.1244L137.038 54H137.921V53ZM135.516 39.8164L134.619 39.3753L134.455 39.7085L134.548 40.0679L135.516 39.8164ZM136.725 37.1797L135.818 36.7568L135.81 36.7751L135.802 36.7937L136.725 37.1797ZM137.164 36.6914L136.524 35.9232L136.517 35.9285L136.511 35.934L137.164 36.6914ZM141.668 36.3862L142.659 36.2517L142.542 35.3862H141.668V36.3862ZM143.011 44.6016L142.028 44.7844L142.029 44.7875L143.011 44.6016ZM144.671 52.1943H145.671V52.0656L145.639 51.941L144.671 52.1943ZM144.281 52.6826L144.911 53.4587L144.919 53.4529L144.926 53.4469L144.281 52.6826ZM133.844 50.8394H132.844V50.8529L132.844 50.8664L133.844 50.8394ZM133.88 52.1943H134.88V52.1808L134.88 52.1673L133.88 52.1943ZM133.478 52.6826L134.108 53.4587L134.111 53.4566L133.478 52.6826ZM128.912 53L128.051 52.4921L127.162 54H128.912V53ZM134.894 41.0127L135.839 40.6856L135.03 38.3485L133.987 40.5911L134.894 41.0127ZM134.833 43.5396L133.845 43.3824L133.843 43.3934L134.833 43.5396ZM134.417 46.0786L135.402 46.2524L135.403 46.251L134.417 46.0786ZM134.039 48.4346L133.048 48.3007L132.916 49.2747L133.888 49.4231L134.039 48.4346ZM136.59 49.0327H137.59V48.3653L136.974 48.1092L136.59 49.0327ZM136.346 50.1191L136.432 51.1154L136.902 51.0748L137.169 50.6869L136.346 50.1191ZM133.844 50.4487L133.668 49.4642L132.844 49.6112V50.4487H133.844ZM143.597 52H137.921V54H143.597V52ZM138.913 52.8756C138.275 47.7837 137.466 43.3448 136.484 39.5649L134.548 40.0679C135.503 43.7424 136.298 48.0926 136.929 53.1244L138.913 52.8756ZM136.414 40.2575C136.892 39.2832 137.304 38.3856 137.647 37.5656L135.802 36.7937C135.478 37.5689 135.084 38.4291 134.619 39.3753L136.414 40.2575ZM137.631 37.6026C137.613 37.6412 137.598 37.6614 137.598 37.6617C137.597 37.6631 137.603 37.6544 137.62 37.635C137.656 37.595 137.719 37.5335 137.817 37.4488L136.511 35.934C136.273 36.1394 135.974 36.4226 135.818 36.7568L137.631 37.6026ZM137.804 37.4596C137.844 37.4268 137.876 37.4031 137.9 37.3865C137.925 37.3697 137.939 37.3623 137.943 37.3604C137.947 37.3585 137.936 37.3643 137.911 37.371C137.886 37.3778 137.843 37.3862 137.787 37.3862V35.3862C137.251 35.3862 136.812 35.6829 136.524 35.9232L137.804 37.4596ZM137.787 37.3862H141.668V35.3862H137.787V37.3862ZM140.678 36.5208C141.014 38.9979 141.464 41.7528 142.028 44.7844L143.994 44.4187C143.435 41.412 142.99 38.69 142.659 36.2517L140.678 36.5208ZM142.029 44.7875C142.601 47.8122 143.159 50.3672 143.704 52.4477L145.639 51.941C145.109 49.9199 144.561 47.4131 143.994 44.4157L142.029 44.7875ZM143.671 52.1943C143.671 52.0207 143.723 51.8983 143.747 51.8481C143.761 51.8193 143.774 51.7991 143.781 51.788C143.785 51.7821 143.788 51.7779 143.79 51.7752C143.792 51.7726 143.793 51.7712 143.793 51.7711C143.793 51.771 143.79 51.7748 143.783 51.7826C143.776 51.7903 143.766 51.8007 143.752 51.814C143.724 51.841 143.687 51.8756 143.636 51.9183L144.926 53.4469C145.079 53.3179 145.231 53.1744 145.355 53.0204C145.445 52.9078 145.671 52.609 145.671 52.1943H143.671ZM143.65 51.9065C143.608 51.9404 143.574 51.9652 143.547 51.983C143.519 52.0009 143.501 52.0099 143.493 52.0136C143.475 52.0222 143.514 52 143.597 52V54C144.137 54 144.589 53.7209 144.911 53.4587L143.65 51.9065ZM132.844 50.8664L132.881 52.2214L134.88 52.1673L134.843 50.8123L132.844 50.8664ZM132.88 52.1943C132.88 52.0144 132.935 51.888 132.961 51.8372C132.975 51.8078 132.989 51.7873 132.996 51.7762C133 51.7703 133.003 51.766 133.005 51.7634C133.007 51.7608 133.008 51.7594 133.008 51.7594C133.008 51.7593 133.007 51.7603 133.006 51.7624C133.004 51.7645 133.001 51.7675 132.997 51.7714C132.99 51.7792 132.979 51.7898 132.965 51.8033C132.936 51.8307 132.897 51.8657 132.844 51.9087L134.111 53.4566C134.268 53.3282 134.425 53.1854 134.551 53.0321C134.641 52.9225 134.88 52.6195 134.88 52.1943H132.88ZM132.847 51.9065C132.804 51.9412 132.769 51.9668 132.741 51.9851C132.713 52.0036 132.695 52.0129 132.687 52.0166C132.668 52.0258 132.712 52 132.806 52V54C133.345 54 133.795 53.713 134.108 53.4587L132.847 51.9065ZM132.806 52H128.912V54H132.806V52ZM129.774 53.5079C131.087 51.2798 133.099 47.2432 135.8 41.4343L133.987 40.5911C131.284 46.4033 129.309 50.3582 128.051 52.4921L129.774 53.5079ZM133.949 41.3398C133.968 41.3974 134.003 41.5655 134.003 41.9038H136.003C136.003 41.4772 135.965 41.0512 135.839 40.6856L133.949 41.3398ZM134.003 41.9038C134.003 42.1972 133.957 42.6796 133.845 43.3824L135.82 43.6967C135.936 42.9672 136.003 42.3591 136.003 41.9038H134.003ZM133.843 43.3934C133.739 44.0983 133.602 44.9355 133.432 45.9062L135.403 46.251C135.574 45.2686 135.714 44.4131 135.822 43.6857L133.843 43.3934ZM133.433 45.9048C133.261 46.8795 133.132 47.6796 133.048 48.3007L135.03 48.5685C135.109 47.9852 135.232 47.2146 135.402 46.2524L133.433 45.9048ZM133.888 49.4231C135.046 49.6 135.796 49.7855 136.207 49.9562L136.974 48.1092C136.327 47.8405 135.376 47.6272 134.19 47.446L133.888 49.4231ZM135.59 49.0327C135.59 49.2248 135.574 49.3606 135.554 49.4513C135.533 49.5426 135.514 49.5648 135.523 49.5514L137.169 50.6869C137.503 50.2032 137.59 49.5964 137.59 49.0327H135.59ZM136.26 49.1229C135.384 49.1987 134.52 49.3124 133.668 49.4642L134.019 51.4332C134.811 51.2921 135.615 51.1861 136.432 51.1154L136.26 49.1229ZM132.844 50.4487V50.8394H134.844V50.4487H132.844ZM158.929 53L157.929 52.9756L157.905 54H158.929V53ZM158.697 39.8164L157.795 39.3845L157.68 39.6262L157.7 39.8933L158.697 39.8164ZM159.857 37.1797L158.941 36.7789L158.938 36.7854L158.935 36.7919L159.857 37.1797ZM160.296 36.6914L160.934 37.4618L160.942 37.4554L160.949 37.4488L160.296 36.6914ZM164.654 36.3862L165.653 36.4392L165.709 35.3862H164.654V36.3862ZM165.387 52.1943H166.387V52.1274L166.378 52.061L165.387 52.1943ZM164.996 52.6826L165.627 53.4587L165.634 53.4529L165.641 53.4469L164.996 52.6826ZM155.938 52.3652L156.845 52.7881L156.882 52.7073L156.905 52.621L155.938 52.3652ZM155.56 52.7803L156.16 53.5803L156.171 53.5724L156.181 53.5643L155.56 52.7803ZM153.155 53L152.169 53.1663L152.31 54H153.155V53ZM150.201 41.0737L149.216 40.9024L149.17 41.1683L149.264 41.4214L150.201 41.0737ZM150.519 39.3647L149.537 39.1734L149.536 39.18L150.519 39.3647ZM150.909 37.1797L149.931 36.9702L149.925 37.0018L149.92 37.0337L150.909 37.1797ZM151.324 36.7036L151.952 37.482L151.959 37.476L151.967 37.4698L151.324 36.7036ZM155.523 36.3862L156.509 36.2162L156.366 35.3862H155.523V36.3862ZM156.915 42.9902L155.962 43.2943L155.965 43.3024L156.915 42.9902ZM157.94 45.7246L158.889 46.0418L159.013 45.6698L158.852 45.3124L157.94 45.7246ZM149.933 44.1743L150.932 44.1543L150.913 43.1743H149.933V44.1743ZM150.152 48.8374L149.157 48.9354L149.158 48.9429L150.152 48.8374ZM150.873 52.1943H151.873V52.0407L151.826 51.8942L150.873 52.1943ZM150.47 52.6826L151.1 53.4587L151.103 53.4566L150.47 52.6826ZM145.892 53L144.97 52.6132L144.388 54H145.892V53ZM147.784 48.3369L148.718 48.695L148.719 48.6929L147.784 48.3369ZM148.871 44.9678L149.839 45.2156L149.871 45.0937V44.9678H148.871ZM164.312 52H158.929V54H164.312V52ZM159.929 53.0244C159.978 51.014 160.002 48.9673 160.002 46.8843H158.002C158.002 48.9516 157.978 50.9821 157.929 52.9756L159.929 53.0244ZM160.002 46.8843C160.002 44.7776 159.899 42.3952 159.694 39.7395L157.7 39.8933C157.902 42.511 158.002 44.8406 158.002 46.8843H160.002ZM159.599 40.2483C159.887 39.6479 160.281 38.7508 160.779 37.5675L158.935 36.7919C158.44 37.9686 158.061 38.8293 157.795 39.3845L159.599 40.2483ZM160.773 37.5805C160.756 37.6202 160.741 37.6425 160.738 37.6463C160.735 37.6509 160.738 37.6452 160.753 37.6289C160.783 37.595 160.84 37.5396 160.934 37.4618L159.659 35.921C159.411 36.1264 159.099 36.4163 158.941 36.7789L160.773 37.5805ZM160.949 37.4488C160.985 37.418 161.014 37.3964 161.035 37.3817C161.056 37.3669 161.068 37.3611 161.069 37.3604C161.074 37.3579 161.02 37.3862 160.919 37.3862V35.3862C160.377 35.3862 159.939 35.6793 159.643 35.934L160.949 37.4488ZM160.919 37.3862H164.654V35.3862H160.919V37.3862ZM163.656 36.3333C163.598 37.4284 163.569 38.6387 163.569 39.9629H165.569C165.569 38.6667 165.597 37.4925 165.653 36.4392L163.656 36.3333ZM163.569 39.9629C163.569 44.1089 163.844 48.2306 164.396 52.3277L166.378 52.061C165.839 48.0526 165.569 44.02 165.569 39.9629H163.569ZM164.387 52.1943C164.387 52.0207 164.438 51.8983 164.462 51.8481C164.476 51.8193 164.489 51.7991 164.496 51.788C164.5 51.7821 164.503 51.7779 164.505 51.7752C164.507 51.7726 164.508 51.7712 164.508 51.7711C164.508 51.771 164.505 51.7748 164.498 51.7826C164.491 51.7903 164.481 51.8007 164.467 51.814C164.44 51.841 164.402 51.8756 164.351 51.9183L165.641 53.4469C165.794 53.3179 165.947 53.1744 166.07 53.0204C166.16 52.9078 166.387 52.609 166.387 52.1943H164.387ZM164.366 51.9065C164.324 51.9404 164.289 51.9652 164.262 51.983C164.234 52.0009 164.217 52.0099 164.209 52.0136C164.19 52.0222 164.229 52 164.312 52V54C164.852 54 165.304 53.7209 165.627 53.4587L164.366 51.9065ZM155.032 51.9423C155.047 51.9111 155.06 51.8918 155.065 51.8847C155.07 51.8773 155.07 51.8781 155.062 51.8868C155.045 51.9055 155.008 51.9422 154.939 51.9962L156.181 53.5643C156.411 53.3819 156.687 53.1255 156.845 52.7881L155.032 51.9423ZM154.96 51.9803C154.929 52.0032 154.906 52.0191 154.889 52.0295C154.873 52.0401 154.866 52.0429 154.87 52.0413C154.872 52.04 154.892 52.0308 154.926 52.0215C154.96 52.0122 155.019 52 155.096 52V54C155.565 54 155.951 53.7367 156.16 53.5803L154.96 51.9803ZM155.096 52H153.155V54H155.096V52ZM154.141 52.8337C153.795 50.7811 153.347 48.6253 152.796 46.3668L150.853 46.8402C151.393 49.0576 151.832 51.1662 152.169 53.1663L154.141 52.8337ZM152.796 46.3668C152.246 44.1076 151.694 42.2239 151.139 40.7261L149.264 41.4214C149.782 42.8207 150.313 44.6236 150.853 46.8402L152.796 46.3668ZM151.186 41.2451C151.217 41.0664 151.322 40.5053 151.501 39.5495L149.536 39.18C149.357 40.1285 149.25 40.7067 149.216 40.9024L151.186 41.2451ZM151.5 39.5561C151.688 38.592 151.822 37.8454 151.898 37.3256L149.92 37.0337C149.85 37.5068 149.723 38.2169 149.537 39.1734L151.5 39.5561ZM151.887 37.3892C151.875 37.4457 151.859 37.4912 151.845 37.5243C151.831 37.5575 151.817 37.5823 151.807 37.5985C151.789 37.629 151.778 37.6406 151.785 37.6324C151.791 37.6253 151.807 37.6083 151.836 37.5811C151.865 37.5544 151.903 37.5214 151.952 37.482L150.696 35.9252C150.546 36.0463 150.4 36.1779 150.277 36.3181C150.174 36.4373 149.997 36.6619 149.931 36.9702L151.887 37.3892ZM151.967 37.4698C152.008 37.4353 152.042 37.4102 152.068 37.3924C152.094 37.3744 152.11 37.3661 152.116 37.3634C152.121 37.3606 152.112 37.3658 152.089 37.372C152.065 37.3783 152.025 37.3862 151.971 37.3862V35.3862C151.428 35.3862 150.981 35.6866 150.682 35.9374L151.967 37.4698ZM151.971 37.3862H155.523V35.3862H151.971V37.3862ZM154.538 36.5562C155.098 39.8046 155.572 42.0715 155.962 43.2943L157.868 42.6862C157.526 41.6141 157.072 39.4783 156.509 36.2162L154.538 36.5562ZM155.965 43.3024C156.345 44.4582 156.699 45.4072 157.029 46.1368L158.852 45.3124C158.563 44.6748 158.234 43.8009 157.865 42.6781L155.965 43.3024ZM156.992 45.4074C156.205 47.7606 155.531 49.9947 154.972 52.1094L156.905 52.621C157.452 50.5528 158.113 48.3599 158.889 46.0418L156.992 45.4074ZM148.933 44.1943C148.974 46.2364 149.047 47.8218 149.157 48.9354L151.148 48.7394C151.046 47.7046 150.973 46.1812 150.932 44.1543L148.933 44.1943ZM149.158 48.9429C149.28 50.091 149.535 51.2754 149.919 52.4945L151.826 51.8942C151.478 50.7858 151.253 49.7322 151.147 48.7319L149.158 48.9429ZM149.873 52.1943C149.873 52.0144 149.928 51.888 149.953 51.8372C149.968 51.8078 149.981 51.7873 149.988 51.7762C149.992 51.7703 149.995 51.766 149.997 51.7634C149.999 51.7608 150 51.7594 150 51.7594C150.001 51.7593 150 51.7603 149.998 51.7624C149.996 51.7645 149.993 51.7675 149.99 51.7714C149.982 51.7792 149.972 51.7898 149.957 51.8033C149.929 51.8307 149.889 51.8657 149.836 51.9087L151.103 53.4566C151.26 53.3282 151.417 53.1854 151.543 53.0321C151.634 52.9225 151.873 52.6195 151.873 52.1943H149.873ZM149.839 51.9065C149.797 51.9404 149.763 51.9652 149.736 51.983C149.708 52.0009 149.69 52.0099 149.682 52.0136C149.664 52.0222 149.703 52 149.786 52V54C150.326 54 150.778 53.7209 151.1 53.4587L149.839 51.9065ZM149.786 52H145.892V54H149.786V52ZM146.814 53.3868C147.622 51.4619 148.257 49.8969 148.718 48.695L146.851 47.9788C146.4 49.1532 145.774 50.697 144.97 52.6132L146.814 53.3868ZM148.719 48.6929C149.186 47.4674 149.56 46.3079 149.839 45.2156L147.902 44.7199C147.644 45.7272 147.294 46.8139 146.85 47.9809L148.719 48.6929ZM149.871 44.9678C149.871 45.1425 149.819 45.2667 149.792 45.3202C149.777 45.3503 149.764 45.3717 149.756 45.3838C149.747 45.3962 149.742 45.4029 149.741 45.4037C149.741 45.4044 149.751 45.3921 149.778 45.3662C149.805 45.3411 149.842 45.3084 149.892 45.2678L148.631 43.7156C148.477 43.8407 148.321 43.9816 148.195 44.1351C148.102 44.249 147.871 44.5482 147.871 44.9678H149.871ZM149.892 45.2678C149.935 45.2331 149.97 45.2076 149.998 45.1892C150.026 45.1707 150.044 45.1615 150.052 45.1577C150.071 45.1485 150.026 45.1743 149.933 45.1743V43.1743C149.394 43.1743 148.944 43.4613 148.631 43.7156L149.892 45.2678Z" fill="white"/>
<path d="M104.141 6.60547C103.523 7.12891 103.215 7.76562 103.215 8.51562C103.215 9.25781 103.418 10.0039 103.824 10.7539C104.238 11.4961 104.719 12.1289 105.266 12.6523C105.812 13.1758 106.234 13.5938 106.531 13.9062C106.836 14.2109 107.176 14.582 107.551 15.0195C107.934 15.4492 108.234 15.8359 108.453 16.1797C108.992 17.0156 109.262 17.75 109.262 18.3828C109.262 19.0078 109.129 19.5898 108.863 20.1289C108.605 20.668 108.234 21.1602 107.75 21.6055C107.273 22.043 106.66 22.4062 105.91 22.6953C105.168 22.9844 104.348 23.1484 103.449 23.1875C103.699 22.8281 103.824 22.4531 103.824 22.0625C103.824 21.6641 103.742 21.2617 103.578 20.8555C103.414 20.4414 103.164 20 102.828 19.5312C102.289 18.7734 101.684 18.0312 101.012 17.3047C100.348 16.5781 99.8828 16.0586 99.6172 15.7461C99.3594 15.4336 99.0664 15.0391 98.7383 14.5625C98.0977 13.6406 97.7773 12.7148 97.7773 11.7852C97.7773 10.8555 98.0625 9.99219 98.6328 9.19531C99.2031 8.39844 99.9727 7.76953 100.941 7.30859C101.918 6.84766 102.984 6.61328 104.141 6.60547ZM108.043 13.6836C108.043 12.9258 107.906 12.1445 107.633 11.3398C107.094 9.76953 106.195 8.50391 104.938 7.54297C104.953 7.40234 105.086 7.23438 105.336 7.03906C105.586 6.84375 105.793 6.74609 105.957 6.74609C106.527 6.74609 107.191 6.85938 107.949 7.08594C108.715 7.3125 109.32 7.53125 109.766 7.74219C109.805 7.97656 109.824 8.38672 109.824 8.97266C109.824 9.55078 109.77 10.2773 109.66 11.1523C109.551 12.0195 109.418 12.707 109.262 13.2148C109.215 13.332 109.047 13.4414 108.758 13.543C108.477 13.6367 108.238 13.6836 108.043 13.6836ZM102.43 22.168C102.336 22.6992 102.191 23.0547 101.996 23.2344C101.176 23.2344 100.207 23.1289 99.0898 22.918C97.9727 22.707 97.1602 22.4375 96.6523 22.1094C96.6445 21.9375 96.6406 21.6914 96.6406 21.3711C96.6406 19.8477 96.8203 18.4023 97.1797 17.0352C97.2109 16.9102 97.3438 16.7539 97.5781 16.5664C97.8125 16.3711 98.0234 16.2734 98.2109 16.2734C98.3906 17.1328 98.7109 17.9961 99.1719 18.8633C99.6406 19.7305 100.168 20.4648 100.754 21.0664C101.348 21.6602 101.906 22.0273 102.43 22.168ZM119.422 14.8906C121.281 15.0938 122.641 15.3242 123.5 15.582C123.5 16.0117 123.41 16.3281 123.23 16.5312C121.949 16.6094 120.574 16.8125 119.105 17.1406C118.895 18.7812 118.719 20.4766 118.578 22.2266C118.578 22.3281 118.453 22.4844 118.203 22.6953C117.953 22.8984 117.738 23 117.559 23H112.098C113.145 19.2109 113.918 14.1484 114.418 7.8125C114.418 7.71094 114.547 7.55859 114.805 7.35547C115.062 7.15234 115.281 7.05078 115.461 7.05078H120.898C120.305 9.62891 119.812 12.2422 119.422 14.8906ZM124.461 14.1523C124.273 12.9727 123.918 11.7969 123.395 10.625C122.871 9.45312 122.344 8.57422 121.812 7.98828C121.852 7.61328 121.965 7.30078 122.152 7.05078H126.406C126.352 7.80859 126.234 8.82812 126.055 10.1094C125.875 11.3828 125.684 12.4688 125.48 13.3672C125.449 13.5 125.316 13.6641 125.082 13.8594C124.848 14.0547 124.641 14.1523 124.461 14.1523ZM123.922 18.1836C124.008 18.0742 124.203 17.918 124.508 17.7148C124.812 17.5117 125.051 17.4102 125.223 17.4102C124.957 19.7305 124.707 21.3125 124.473 22.1562C124.402 22.3125 124.262 22.4922 124.051 22.6953C123.84 22.8984 123.668 23 123.535 23H119.234C121.156 21.7109 122.719 20.1055 123.922 18.1836ZM134.668 23C133.098 17.6094 131.207 12.5469 128.996 7.8125C128.996 7.71094 129.121 7.55859 129.371 7.35547C129.629 7.15234 129.848 7.05078 130.027 7.05078H136.027C136.918 10.0977 137.773 12.7305 138.594 14.9492C139.414 17.1602 140.445 19.5859 141.688 22.2266C141.688 22.3281 141.562 22.4844 141.312 22.6953C141.062 22.8984 140.848 23 140.668 23H134.668ZM139.227 14.5508C139.672 13.0742 139.895 11.793 139.895 10.707C139.895 10.1914 139.848 9.73828 139.754 9.34766C139.66 8.94922 139.496 8.4375 139.262 7.8125C139.262 7.71094 139.387 7.55859 139.637 7.35547C139.895 7.15234 140.113 7.05078 140.293 7.05078H144.031C143.102 8.47266 142.34 9.69141 141.746 10.707C141.152 11.7227 140.652 12.7383 140.246 13.7539C140.199 13.8789 140.062 14.043 139.836 14.2461C139.609 14.4492 139.406 14.5508 139.227 14.5508ZM131.492 15.4531C131.047 16.8828 130.824 18.0898 130.824 19.0742C130.824 20.0586 131.035 21.1094 131.457 22.2266C131.457 22.3281 131.328 22.4844 131.07 22.6953C130.82 22.8984 130.605 23 130.426 23H126.676C128.512 20.1797 129.773 17.9219 130.461 16.2266C130.508 16.1016 130.645 15.9414 130.871 15.7461C131.105 15.5508 131.312 15.4531 131.492 15.4531ZM105.148 52H99.6875C100.836 47.8516 101.652 42.7891 102.137 36.8125C102.137 36.7109 102.262 36.5586 102.512 36.3555C102.77 36.1523 102.984 36.0508 103.156 36.0508H108.383C107.375 40.293 106.641 45.3516 106.18 51.2266C106.18 51.3281 106.055 51.4844 105.805 51.6953C105.555 51.8984 105.336 52 105.148 52ZM110.633 43.3867C110.633 42.3164 110.461 41.1289 110.117 39.8242C109.781 38.5195 109.418 37.5742 109.027 36.9883C109.074 36.6289 109.191 36.3164 109.379 36.0508H113.023C112.773 38.4023 112.441 40.5898 112.027 42.6133C111.996 42.7305 111.805 42.8906 111.453 43.0938C111.109 43.2891 110.836 43.3867 110.633 43.3867ZM96.3594 43.375C96.4219 42.4609 96.5703 41.2617 96.8047 39.7773C97.0391 38.2852 97.2148 37.3203 97.332 36.8828C97.3867 36.7266 97.5195 36.5508 97.7305 36.3555C97.9492 36.1523 98.1289 36.0508 98.2695 36.0508H101.832C101.035 37.0039 100.422 37.8828 99.9922 38.6875C99.5703 39.4922 99.1602 40.2734 98.7617 41.0312C98.3711 41.7812 98.0703 42.3516 97.8594 42.7422C97.8125 42.8281 97.5938 42.957 97.2031 43.1289C96.8203 43.293 96.5391 43.375 96.3594 43.375ZM121.414 43.8906C123.273 44.0938 124.633 44.3242 125.492 44.582C125.492 45.0117 125.402 45.3281 125.223 45.5312C123.941 45.6094 122.566 45.8125 121.098 46.1406C120.887 47.7812 120.711 49.4766 120.57 51.2266C120.57 51.3281 120.445 51.4844 120.195 51.6953C119.945 51.8984 119.73 52 119.551 52H114.09C115.137 48.2109 115.91 43.1484 116.41 36.8125C116.41 36.7109 116.539 36.5586 116.797 36.3555C117.055 36.1523 117.273 36.0508 117.453 36.0508H122.891C122.297 38.6289 121.805 41.2422 121.414 43.8906ZM126.453 43.1523C126.266 41.9727 125.91 40.7969 125.387 39.625C124.863 38.4531 124.336 37.5742 123.805 36.9883C123.844 36.6133 123.957 36.3008 124.145 36.0508H128.398C128.344 36.8086 128.227 37.8281 128.047 39.1094C127.867 40.3828 127.676 41.4688 127.473 42.3672C127.441 42.5 127.309 42.6641 127.074 42.8594C126.84 43.0547 126.633 43.1523 126.453 43.1523ZM125.914 47.1836C126 47.0742 126.195 46.918 126.5 46.7148C126.805 46.5117 127.043 46.4102 127.215 46.4102C126.949 48.7305 126.699 50.3125 126.465 51.1562C126.395 51.3125 126.254 51.4922 126.043 51.6953C125.832 51.8984 125.66 52 125.527 52H121.227C123.148 50.7109 124.711 49.1055 125.914 47.1836ZM142.613 52H137.164C136.555 47.1406 135.785 42.9219 134.855 39.3438C135.309 38.4219 135.695 37.5781 136.016 36.8125C136.07 36.6953 136.211 36.5391 136.438 36.3438C136.672 36.1484 136.871 36.0508 137.035 36.0508H140.762C141.082 38.4102 141.512 41.0391 142.051 43.9375C142.598 46.8281 143.129 49.2578 143.645 51.2266C143.645 51.3281 143.52 51.4844 143.27 51.6953C143.02 51.8984 142.801 52 142.613 52ZM133.25 49.9258L133.285 51.2266C133.285 51.3281 133.156 51.4844 132.898 51.6953C132.648 51.8984 132.434 52 132.254 52H128.516C129.75 49.9062 131.664 46.0703 134.258 40.4922C134.328 40.6953 134.363 40.9805 134.363 41.3477C134.363 41.707 134.309 42.2305 134.199 42.918C134.098 43.6055 133.965 44.418 133.801 45.3555C133.637 46.2852 133.516 47.0391 133.438 47.6172C134.562 47.7891 135.379 47.9805 135.887 48.1914C135.887 48.6602 135.809 49.0078 135.652 49.2344C134.84 49.3047 134.039 49.4102 133.25 49.5508V49.9258ZM162.5 52H157.332C157.379 50.0781 157.402 48.1211 157.402 46.1289C157.402 44.1367 157.305 41.875 157.109 39.3438C157.375 38.7891 157.746 37.9453 158.223 36.8125C158.277 36.6875 158.418 36.5312 158.645 36.3438C158.871 36.1484 159.07 36.0508 159.242 36.0508H162.828C162.773 37.082 162.746 38.2266 162.746 39.4844C162.746 43.4219 163.008 47.3359 163.531 51.2266C163.531 51.3281 163.406 51.4844 163.156 51.6953C162.906 51.8984 162.688 52 162.5 52ZM154.461 51.3906C154.406 51.5078 154.285 51.6406 154.098 51.7891C153.91 51.9297 153.762 52 153.652 52H151.789C151.461 50.0547 151.035 48.0078 150.512 45.8594C149.988 43.7109 149.469 41.9414 148.953 40.5508C148.984 40.3711 149.086 39.8242 149.258 38.9102C149.438 37.9883 149.562 37.2891 149.633 36.8125C149.656 36.7031 149.789 36.5508 150.031 36.3555C150.273 36.1523 150.48 36.0508 150.652 36.0508H154.062C154.602 39.1758 155.047 41.2891 155.398 42.3906C155.758 43.4844 156.086 44.3594 156.383 45.0156C155.633 47.2578 154.992 49.3828 154.461 51.3906ZM148.695 43.5273C148.734 45.4805 148.805 46.9727 148.906 48.0039C149.016 49.0352 149.246 50.1094 149.598 51.2266C149.598 51.3281 149.469 51.4844 149.211 51.6953C148.961 51.8984 148.742 52 148.555 52H144.816C145.59 50.1562 146.195 48.6641 146.633 47.5234C147.07 46.375 147.418 45.2969 147.676 44.2891C147.676 44.1875 147.801 44.0352 148.051 43.832C148.301 43.6289 148.516 43.5273 148.695 43.5273Z" fill="#EE3E84"/>
<path d="M41.094 59.2724C28.2838 64.1965 13.8548 57.7802 8.93069 44.97C7.40247 40.9943 6.9314 36.6693 7.55976 32.4272L1.83555 24.9661C1.39035 24.4294 1.47844 24.0971 1.47844 24.2519C1.36164 23.9481 1.46114 23.5073 1.59747 23.2015C1.78129 22.7881 2.21871 22.939 2.66881 22.899L10.3401 23.7361C13.0694 20.4279 19.2575 14.3353 23.2329 12.8072C36.0432 7.88305 50.4722 14.2994 55.3963 27.1096C60.3204 39.9198 53.9041 54.3488 41.0938 59.2729L41.094 59.2724Z" fill="white"/>
<path d="M46.1151 8.00024C59.2852 4.14063 73.1409 11.7159 77.0005 24.886C78.1984 28.9734 76.5714 38.685 75.5981 42.8614L83.5083 47.2619C83.571 47.3616 83.6604 47.6717 83.6926 47.7816C83.7842 48.094 83.7089 48.2303 83.548 48.5239C83.3309 48.9209 82.916 49.1687 82.4641 49.1718L70.043 50.6385C67.0522 53.7123 64.2021 54.5732 60.115 55.771C46.9449 59.6306 33.0892 52.0554 29.2296 38.8852C25.37 25.7151 32.9452 11.8594 46.1153 7.99976L46.1151 8.00024Z" fill="white"/>
<ellipse cx="41.9185" cy="34.631" rx="11.132" ry="10.001" transform="rotate(78.7895 41.9185 34.631)" fill="#EE3E84"/>
<path fill-rule="evenodd" clip-rule="evenodd" d="M37.2698 12.3698C36.9336 12.4183 36.609 12.5736 36.3503 12.8313C30.2857 18.9297 25.6616 28.1363 27.442 37.1194C29.2224 46.1025 37.0088 52.8499 44.9406 56.1738C45.278 56.3132 45.6373 56.333 45.9666 56.2496C46.3042 56.2009 46.6291 56.0454 46.8861 55.7882C52.9525 49.6894 57.5765 40.4828 55.7961 31.4997C54.0157 22.5166 46.2297 15.7691 38.2957 12.4457C37.9601 12.3059 37.6004 12.2861 37.2698 12.3698ZM49.4596 32.7558C48.6045 28.4415 44.3622 25.6434 39.99 26.51C35.6177 27.3765 32.7633 31.5811 33.6184 35.8954C34.4735 40.2098 38.7158 43.0078 43.088 42.1413C47.4603 41.2747 50.3147 37.0701 49.4596 32.7558ZM46.2913 33.3837C46.8044 35.9723 45.0917 38.4951 42.4684 39.015C39.8451 39.5349 37.2997 37.8561 36.7866 35.2675C36.2736 32.679 37.9863 30.1562 40.6096 29.6362C43.2329 29.1163 45.7783 30.7952 46.2913 33.3837Z" fill="#EE3E84"/>
<path d="M11.001 37.3646C11.7681 43.9646 16.937 57.3311 31.4754 57.9977" stroke="#133A67" stroke-width="2" stroke-linecap="round"/>
<path d="M72.3447 20.3422C69.1307 14.7872 68.1387 14.6681 63.9724 12.0493" stroke="#133A67" stroke-width="2" stroke-linecap="round"/>
<path d="M60.4824 11.0106C59.2086 10.3996 58.5778 10.1376 57.07 10.0186" stroke="#133A67" stroke-width="2" stroke-linecap="round"/>
<g clip-path="url(#clip0_2314_7)">
<path d="M40.0386 25.0946C40.6528 27.6825 41.2498 30.5506 40.0965 33.1041C38.6009 35.1001 35.3773 35.9221 33.2366 34.4566C32.9886 34.2316 32.7837 34.576 32.9975 34.7578C33.2063 34.9155 33.1141 34.8342 33.3178 34.9677C33.614 35.1827 33.9625 35.2861 34.311 35.3897C36.4639 35.9474 38.9685 35.1745 40.3458 33.4546C43.1089 36.7017 42.8832 41.1744 43.2089 45.1549C43.3033 45.4874 43.4267 45.8388 43.4869 46.128L37.6544 47.3422C34.5208 42.4369 30.8655 37.4393 30.5531 31.4695C30.4863 27.8875 32.7825 24.543 35.7904 23.8917C37.3329 23.5706 39.1072 23.8801 40.039 25.0944L40.0386 25.0946ZM43.9848 22.186C47.3641 21.5077 50.566 24.085 51.7527 27.0066C53.9017 32.6193 52.52 38.6654 51.764 44.4555L46.028 45.6495L45.9087 44.593C44.6189 40.813 42.5117 36.8512 43.7546 32.7954C46.0871 34.0952 49.5869 33.3918 51.0122 31.0583C51.1217 30.8596 50.8013 30.6497 50.6728 30.8775C50.2066 31.7792 49.332 32.2883 48.4271 32.6526C46.9448 33.2629 45.2346 33.1412 43.8428 32.3748C41.7664 30.4937 40.9815 27.6897 40.6033 25.0276C41.0261 23.5565 42.4131 22.4883 43.9848 22.1863L43.9848 22.186ZM41.2462 29.445C42.2571 31.5228 43.1187 31.7962 42.0188 33.1565C40.5589 32.3037 41.1725 31.7485 41.2462 29.445Z" fill="#F5F5F5"/>
</g>
<defs>
<clipPath id="clip0_2314_7">
<rect width="29.2344" height="29.2344" fill="white" transform="translate(25.5234 26.0039) rotate(-11.7592)"/>
</clipPath>
</defs>
</svg>
