<svg width="44" height="44" viewBox="0 0 44 44" fill="currentColor" xmlns="http://www.w3.org/2000/svg">
  <g id="group">
    <g id="subgroup">
      <path 
        d="M22 11C14.9617 11 9.47891 15.1938 2.75 22C8.54219 27.818 13.4062 33 22 33C30.5852 33 36.9016 26.4344 41.25 22.1203C36.7984 17.0672 30.4906 11 22 11ZM22 29.8461C17.7547 29.8461 14.3 26.3227 14.3 22C14.3 17.6687 17.7547 14.1539 22 14.1539C26.2453 14.1539 29.7 17.6773 29.7 22C29.7 26.3313 26.2453 29.8461 22 29.8461Z" 
        fill="currentColor"
      />
      <path 
        d="M21.9999 19.25C21.9999 18.5711 22.2491 17.9523 22.653 17.4711C22.4382 17.4367 22.2233 17.4195 21.9999 17.4195C19.5249 17.4195 17.5054 19.4734 17.5054 22C17.5054 24.5266 19.5249 26.5805 21.9999 26.5805C24.4749 26.5805 26.4944 24.5266 26.4944 22C26.4944 21.8023 26.4772 21.6047 26.4601 21.407C25.9874 21.7766 25.403 22 24.7585 22C23.2288 22 21.9999 20.7711 21.9999 19.25Z" 
        fill="currentColor"
      />
    </g>
  </g>
</svg>