<svg width="8" height="5" viewBox="0 0 8 5" fill="none" xmlns="http://www.w3.org/2000/svg">
<path d="M7.30026 1.69998L4.70026 4.29998C4.60026 4.39998 4.49192 4.47497 4.37526 4.52497C4.25859 4.57497 4.13359 4.59998 4.00026 4.59998C3.86692 4.59998 3.74192 4.57497 3.62526 4.52497C3.50859 4.47497 3.40026 4.39998 3.30026 4.29998L0.700256 1.69998C0.383589 1.38331 0.312923 1.02098 0.488256 0.612975C0.662923 0.204309 0.975257 -2.47955e-05 1.42526 -2.47955e-05H6.57526C7.02526 -2.47955e-05 7.33759 0.204309 7.51226 0.612975C7.68759 1.02098 7.61692 1.38331 7.30026 1.69998Z" fill="#13293B"/>
</svg>
