<svg width="21" height="15" viewBox="0 0 21 15" fill="none" xmlns="http://www.w3.org/2000/svg">
<path fill-rule="evenodd" clip-rule="evenodd" d="M13.0714 0.758529C12.7128 1.11011 12.7128 1.69376 13.0644 2.05237L17.34 6.33472H1.06732C0.568026 6.33472 0.160156 6.74256 0.160156 7.24885C0.160156 7.75513 0.568026 8.16297 1.06732 8.16297H17.333L13.0574 12.4453C12.7057 12.8039 12.7128 13.3805 13.0644 13.7392C13.423 14.0907 13.9926 14.0907 14.3513 13.7321L20.1459 7.89576C20.2232 7.81138 20.2865 7.71997 20.3358 7.60746C20.385 7.49495 20.4061 7.37541 20.4061 7.25588C20.4061 7.0168 20.3147 6.79178 20.1459 6.61599L14.3513 0.77962C14.0067 0.413964 13.4301 0.406933 13.0714 0.758519L13.0714 0.758529Z" fill="#595959"/>
</svg>
