<svg width="13" height="18" viewBox="0 0 13 18" fill="none" xmlns="http://www.w3.org/2000/svg">
<path d="M12.3823 7.62298L6.54194 4.93036C6.4092 4.87347 6.25751 4.87347 6.12477 4.93036L0.284432 7.62298C0.113773 7.69883 0 7.88845 0 8.07807V14.7907C0 14.9803 0.113773 15.1699 0.284432 15.2458L6.12477 17.9573C6.25751 18.0142 6.4092 18.0142 6.54194 17.9573L12.3823 15.2647C12.5529 15.1889 12.6667 14.9993 12.6667 14.8096V8.09704C12.6667 7.88845 12.5529 7.71779 12.3823 7.62298ZM5.65072 16.2697L1.34631 14.2597V9.25373L5.66968 11.2637V16.2697H5.65072ZM6.33336 10.0881L2.27546 8.21081L6.33336 6.3146L10.3913 8.19185L6.33336 10.0881ZM11.3204 14.2597L7.01599 16.2697V11.2637L11.3394 9.25373V14.2597H11.3204Z" fill="#009A40"/>
<path d="M6.33498 3.33734C6.71422 3.33734 7.01762 3.03394 7.01762 2.6547V0.682637C7.01762 0.303394 6.71422 0 6.33498 0C5.95574 0 5.65234 0.303394 5.65234 0.682637V2.67366C5.65234 3.03394 5.95574 3.33734 6.33498 3.33734Z" fill="#009A40"/>
<path d="M8.91318 4.07683C9.02696 4.15268 9.14073 4.17164 9.27346 4.17164C9.50101 4.17164 9.70959 4.05787 9.84233 3.84929L10.8852 2.18062C11.0749 1.85826 10.9801 1.4411 10.6767 1.25147C10.3543 1.04289 9.93714 1.1377 9.74752 1.46006L8.7046 3.14769C8.49602 3.45108 8.59083 3.86825 8.91318 4.07683Z" fill="#009A40"/>
<path d="M2.82564 3.84929C2.95838 4.05787 3.16696 4.17164 3.39451 4.17164C3.50828 4.17164 3.64101 4.13372 3.75479 4.07683C4.07714 3.88721 4.17195 3.47004 3.96337 3.14769L2.92045 1.46006C2.73083 1.1377 2.31366 1.04289 1.99131 1.25147C1.66895 1.4411 1.57414 1.85826 1.78272 2.18062L2.82564 3.84929Z" fill="#009A40"/>
</svg>
