<svg width="29" height="22" viewBox="0 0 29 22" fill="none" xmlns="http://www.w3.org/2000/svg">
<path d="M9.72069 10.6625C9.72069 10.6656 9.72069 10.6656 9.72069 10.6625C9.69854 10.6846 9.67639 10.7068 9.65424 10.7258C9.65107 10.7289 9.64791 10.7321 9.64474 10.7353C9.63209 10.7479 9.61943 10.7606 9.60677 10.7732C9.54348 10.8365 9.47703 10.8966 9.41374 10.9599C8.60046 11.7479 7.78718 12.5327 6.97074 13.3207C5.98974 14.2668 5.00875 15.2162 4.02775 16.1624C3.87269 16.3143 3.71446 16.463 3.5594 16.6149C3.09106 17.0674 2.62271 17.5231 2.15436 17.9756C1.94551 18.1782 1.73665 18.3807 1.52779 18.5801C1.52779 18.5801 1.53096 18.5801 1.53096 18.5832H1.52779C1.52779 18.5832 1.52779 18.5832 1.52463 18.5832H1.52146L1.51513 18.5864C1.51513 18.5864 1.51513 18.5864 1.51197 18.5864L1.50881 18.5896L1.50564 18.5959C1.50564 18.5959 1.50248 18.5959 1.50248 18.599C1.50248 18.599 1.49931 18.599 1.49931 18.6022C1.49615 18.6054 1.49298 18.6085 1.48665 18.6117C1.48665 18.6149 1.48349 18.6149 1.48032 18.6149C1.37273 18.7193 1.26514 18.8237 1.15438 18.925C1.11641 18.9598 1.07843 18.9978 1.04362 19.0326C1.02147 19.0547 0.996156 19.0769 0.974004 19.099C0.961346 19.1085 0.951853 19.1212 0.942359 19.1307L0.939195 19.1338C0.926537 19.1465 0.917043 19.1592 0.904385 19.1718C0.841095 19.2319 0.777805 19.2921 0.71135 19.3554C0.600593 19.4598 0.493 19.5642 0.391735 19.6686C0.388571 19.6718 0.385407 19.675 0.382242 19.6781C0.344268 19.7193 0.306294 19.7573 0.271484 19.7984V1.46326C0.299965 1.4949 0.328445 1.52338 0.36009 1.55503C0.36009 1.55503 0.36009 1.55503 0.363255 1.55819L0.366419 1.56136C0.366419 1.56136 0.366419 1.56136 0.366419 1.56452C0.372748 1.57085 0.375913 1.57401 0.382242 1.58034C0.3949 1.593 0.407558 1.60566 0.420216 1.61832C0.432874 1.63098 0.445532 1.64363 0.45819 1.65629C0.470848 1.66895 0.483506 1.68161 0.496164 1.69427C0.559454 1.75756 0.625909 1.81768 0.692363 1.88097C0.761982 1.94743 0.831602 2.01388 0.898056 2.08034C0.910714 2.09299 0.923372 2.10565 0.93603 2.11831C1.09742 2.27653 1.25881 2.43476 1.4202 2.59298L1.42336 2.59615C1.45817 2.63096 1.49298 2.66577 1.52779 2.70058L1.53096 2.70374C1.54678 2.71956 1.56577 2.73855 1.58159 2.75437C1.59108 2.76387 1.60058 2.77336 1.61007 2.78285C2.14171 3.30183 2.67651 3.82081 3.20814 4.33979C3.37586 4.50435 3.54358 4.66574 3.7113 4.83029C4.07522 5.18471 4.4423 5.5423 4.80622 5.89673C6.01189 7.06759 7.21441 8.23846 8.42008 9.40933C8.85678 9.82388 9.28716 10.2448 9.72069 10.6625Z" fill="#AE9E87"/>
<path d="M27.657 0.12793C27.4513 0.336787 27.2456 0.545644 27.043 0.754502L27.0367 0.760831C26.8722 0.928549 26.7076 1.0931 26.5462 1.26082C26.5051 1.30196 26.4639 1.3431 26.4228 1.3874C26.4196 1.39057 26.4196 1.39057 26.4165 1.39373C25.5431 2.28296 24.6728 3.16902 23.7994 4.05824C22.7203 5.15633 21.6412 6.25441 20.5653 7.35249C19.7584 8.17526 18.9514 8.99803 18.1445 9.82081C18.0717 9.86194 18.0021 9.91574 17.9451 9.97903C17.8913 10.036 17.847 10.0961 17.8122 10.1626C17.5907 10.3904 17.366 10.6151 17.1445 10.8429C17.0812 10.9062 17.0211 10.9695 16.9578 11.0328C16.9451 11.0455 16.9356 11.0581 16.923 11.0676C16.8913 11.0961 16.8597 11.1246 16.828 11.1531C16.7647 11.2069 16.7014 11.2607 16.635 11.3145C16.5938 11.3429 16.5559 11.3746 16.5147 11.4031C16.2995 11.5518 16.0717 11.6847 15.8312 11.7955C15.6223 11.8746 15.404 11.9379 15.1825 11.9758C14.9799 11.9948 14.7774 11.9948 14.5749 11.9758C14.3502 11.9347 14.1319 11.8746 13.9167 11.7923C13.8787 11.7765 13.8407 11.7575 13.8059 11.7385C13.7679 11.7195 13.7331 11.7005 13.6952 11.6815C13.6224 11.6436 13.5496 11.6024 13.48 11.5581C13.4104 11.517 13.3407 11.4695 13.2743 11.422C13.249 11.4062 13.2268 11.3872 13.2015 11.3714C13.0876 11.2765 12.9768 11.1784 12.8724 11.0708C12.7616 10.96 12.6477 10.8524 12.5338 10.7417C12.3281 10.5423 12.1224 10.3429 11.9167 10.1436C11.9104 10.1341 11.9041 10.1246 11.8977 10.1119C11.8914 10.1024 11.8851 10.0961 11.8787 10.0866C11.8724 10.0803 11.8692 10.074 11.8629 10.0645C11.8566 10.055 11.8471 10.0455 11.8408 10.036C11.8344 10.0265 11.8281 10.0202 11.8186 10.0138C11.8123 10.0075 11.806 10.0012 11.7996 9.99485C11.7933 9.98852 11.787 9.9822 11.7806 9.97587C11.73 9.93156 11.6794 9.89042 11.6256 9.85561C11.1256 9.36828 10.6288 8.88411 10.1288 8.39994C8.94524 7.24806 7.76171 6.09935 6.57819 4.94747C5.47694 3.8747 4.37253 2.80194 3.27128 1.73233C3.18268 1.64689 3.09407 1.56145 3.00547 1.47917C2.98964 1.46335 2.97698 1.45069 2.96116 1.43487C2.94534 1.41905 2.93268 1.40639 2.91686 1.39373L2.9042 1.3874C2.84091 1.32095 2.77446 1.25449 2.708 1.18804L2.70484 1.18171C2.70167 1.17855 2.70167 1.17538 2.69851 1.17222C2.62889 1.1026 2.55927 1.03614 2.48965 0.966523L2.48649 0.963359C2.48016 0.95703 2.47383 0.950701 2.4675 0.944372C2.45801 0.934878 2.44851 0.925385 2.43902 0.915891C2.4232 0.900069 2.40421 0.881082 2.38839 0.865259C2.37256 0.849437 2.35358 0.83045 2.33776 0.814627C2.31877 0.798804 2.30295 0.779818 2.28396 0.763995L2.27763 0.757666C2.24915 0.73235 2.22383 0.703869 2.19535 0.678553C2.19219 0.672224 2.18586 0.66906 2.18269 0.665895C2.17953 0.662731 2.17637 0.659566 2.1732 0.656402C2.15421 0.637415 2.13523 0.618428 2.11624 0.599441C2.04979 0.536151 1.9865 0.47286 1.92004 0.40957C1.83143 0.324129 1.74283 0.238687 1.65422 0.15641C1.64473 0.146917 1.6384 0.140588 1.62891 0.131094C1.76182 0.131094 1.89472 0.134259 2.02763 0.134259H27.657V0.12793Z" fill="#AE9E87"/>
<path d="M28.9983 1.47278V19.7984C28.7863 19.5864 28.5774 19.3712 28.3654 19.1592C28.2673 19.0611 28.1692 18.963 28.0711 18.8617C27.9572 18.7478 27.8464 18.6339 27.7325 18.52C27.0679 17.8491 26.4034 17.175 25.7389 16.5042C24.8022 15.558 23.8655 14.6118 22.9288 13.6624C22.1123 12.8365 21.2959 12.0137 20.4794 11.1878C20.3086 11.0138 20.1377 10.8397 19.9668 10.6657C20.0586 10.5739 20.1472 10.4821 20.2389 10.3872C21.3623 9.24164 22.4889 8.09609 23.6155 6.95054C24.7452 5.80182 25.8749 4.64994 27.0047 3.49806C27.2483 3.25123 27.4888 3.0044 27.7325 2.75757C27.7357 2.7544 27.7388 2.75124 27.7388 2.75124C27.9477 2.53922 28.1565 2.32719 28.3654 2.11517C28.3686 2.11201 28.3717 2.11201 28.3717 2.10884C28.5648 1.91264 28.7578 1.71645 28.9508 1.52025C28.9666 1.50442 28.9825 1.4886 28.9983 1.47278Z" fill="#AE9E87"/>
<path d="M27.6564 21.1403H1.60938C1.82456 20.9314 2.03975 20.7226 2.2581 20.5137C2.26126 20.5105 2.26443 20.5105 2.26443 20.5074C2.36886 20.4061 2.47328 20.3049 2.58088 20.2036C2.69164 20.096 2.80239 19.9884 2.91315 19.8808C2.91632 19.8776 2.91631 19.8776 2.91948 19.8745C3.61883 19.1973 4.32136 18.5201 5.02071 17.8429C6.00171 16.8967 6.9827 15.9473 7.9637 15.0011C8.81495 14.1784 9.6662 13.3556 10.5175 12.536C10.7073 12.3525 10.8972 12.1721 11.0871 11.9917C11.5491 12.4411 12.0016 12.8904 12.5617 13.2259C13.5744 13.8303 14.7864 14.0455 15.9351 13.7512C16.8306 13.5233 17.6914 12.9854 18.3369 12.3303C18.4382 12.229 18.5363 12.1278 18.6376 12.0233C18.7293 12.1151 18.8211 12.21 18.9129 12.3018C19.6914 13.0866 20.4698 13.8746 21.2451 14.6594C22.1818 15.6056 23.1185 16.5517 24.0552 17.5011C24.84 18.2922 25.6216 19.0834 26.4064 19.8745C26.4381 19.9093 26.4729 19.9409 26.5045 19.9757C26.6786 20.153 26.8526 20.3302 27.0267 20.5074C27.2324 20.7194 27.4412 20.9314 27.6564 21.1403Z" fill="#AE9E87"/>
</svg>
