<svg width="29" height="22" viewBox="0 0 29 22" fill="none" xmlns="http://www.w3.org/2000/svg">
<g opacity="0.5">
<path d="M9.72167 10.6626C9.72167 10.6658 9.72167 10.6658 9.72167 10.6626C9.69952 10.6847 9.67737 10.7069 9.65521 10.7259C9.65205 10.729 9.64888 10.7322 9.64572 10.7354C9.63306 10.748 9.62041 10.7607 9.60775 10.7734C9.54446 10.8366 9.478 10.8968 9.41471 10.9601C8.60143 11.748 7.78816 12.5328 6.97172 13.3208C5.99072 14.267 5.00972 15.2163 4.02873 16.1625C3.87367 16.3144 3.71544 16.4631 3.56038 16.615C3.09203 17.0675 2.62369 17.5232 2.15534 17.9758C1.94648 18.1783 1.73763 18.3808 1.52877 18.5802C1.52877 18.5802 1.53193 18.5802 1.53193 18.5833H1.52877C1.52877 18.5833 1.52877 18.5833 1.5256 18.5833H1.52244L1.51611 18.5865C1.51611 18.5865 1.51611 18.5865 1.51295 18.5865L1.50978 18.5897L1.50662 18.596C1.50662 18.596 1.50345 18.596 1.50345 18.5992C1.50345 18.5992 1.50029 18.5992 1.50029 18.6023C1.49712 18.6055 1.49396 18.6087 1.48763 18.6118C1.48763 18.615 1.48447 18.615 1.4813 18.615C1.37371 18.7194 1.26612 18.8238 1.15536 18.9251C1.11738 18.9599 1.07941 18.9979 1.0446 19.0327C1.02245 19.0549 0.997132 19.077 0.974981 19.0992C0.962323 19.1087 0.952829 19.1213 0.943336 19.1308L0.940171 19.134C0.927513 19.1466 0.91802 19.1593 0.905362 19.1719C0.842071 19.2321 0.778781 19.2922 0.712327 19.3555C0.601569 19.4599 0.493976 19.5643 0.392712 19.6688C0.389548 19.6719 0.386383 19.6751 0.383219 19.6783C0.345245 19.7194 0.30727 19.7574 0.272461 19.7985V1.46338C0.300941 1.49502 0.329422 1.5235 0.361067 1.55515C0.361067 1.55515 0.361067 1.55515 0.364231 1.55831L0.367396 1.56148C0.367396 1.56148 0.367396 1.56148 0.367396 1.56464C0.373725 1.57097 0.37689 1.57414 0.383219 1.58047C0.395877 1.59312 0.408535 1.60578 0.421193 1.61844C0.433851 1.6311 0.446509 1.64376 0.459167 1.65641C0.471825 1.66907 0.484483 1.68173 0.497141 1.69439C0.560431 1.75768 0.626885 1.8178 0.69334 1.88109C0.762959 1.94755 0.832578 2.014 0.899033 2.08046C0.911691 2.09312 0.924349 2.10577 0.937007 2.11843C1.0984 2.27666 1.25979 2.43488 1.42118 2.59311L1.42434 2.59627C1.45915 2.63108 1.49396 2.66589 1.52877 2.7007L1.53193 2.70386C1.54776 2.71969 1.56674 2.73867 1.58257 2.7545C1.59206 2.76399 1.60155 2.77348 1.61105 2.78298C2.14268 3.30196 2.67748 3.82093 3.20912 4.33991C3.37684 4.50447 3.54456 4.66586 3.71228 4.83041C4.07619 5.18484 4.44328 5.54242 4.80719 5.89685C6.01287 7.06772 7.21538 8.23858 8.42106 9.40945C8.85776 9.824 9.28813 10.2449 9.72167 10.6626Z" fill="white"/>
<path d="M27.6589 0.12793C27.4532 0.336787 27.2475 0.545644 27.045 0.754502L27.0387 0.760831C26.8741 0.928549 26.7096 1.0931 26.5482 1.26082C26.507 1.30196 26.4659 1.3431 26.4247 1.3874C26.4216 1.39057 26.4216 1.39057 26.4184 1.39373C25.545 2.28296 24.6748 3.16902 23.8014 4.05824C22.7223 5.15633 21.6432 6.25441 20.5673 7.35249C19.7603 8.17526 18.9534 8.99803 18.1464 9.82081C18.0736 9.86194 18.004 9.91574 17.947 9.97903C17.8932 10.036 17.8489 10.0961 17.8141 10.1626C17.5926 10.3904 17.3679 10.6151 17.1464 10.8429C17.0831 10.9062 17.023 10.9695 16.9597 11.0328C16.9471 11.0455 16.9376 11.0581 16.9249 11.0676C16.8933 11.0961 16.8616 11.1246 16.83 11.1531C16.7667 11.2069 16.7034 11.2607 16.6369 11.3145C16.5958 11.3429 16.5578 11.3746 16.5167 11.4031C16.3015 11.5518 16.0737 11.6847 15.8332 11.7955C15.6243 11.8746 15.4059 11.9379 15.1844 11.9758C14.9819 11.9948 14.7794 11.9948 14.5768 11.9758C14.3522 11.9347 14.1338 11.8746 13.9186 11.7923C13.8807 11.7765 13.8427 11.7575 13.8079 11.7385C13.7699 11.7195 13.7351 11.7005 13.6971 11.6815C13.6243 11.6436 13.5515 11.6024 13.4819 11.5581C13.4123 11.517 13.3427 11.4695 13.2762 11.422C13.2509 11.4062 13.2288 11.3872 13.2035 11.3714C13.0895 11.2765 12.9788 11.1784 12.8743 11.0708C12.7636 10.96 12.6497 10.8524 12.5357 10.7417C12.33 10.5423 12.1244 10.3429 11.9187 10.1436C11.9123 10.1341 11.906 10.1246 11.8997 10.1119C11.8933 10.1024 11.887 10.0961 11.8807 10.0866C11.8744 10.0803 11.8712 10.074 11.8649 10.0645C11.8585 10.055 11.849 10.0455 11.8427 10.036C11.8364 10.0265 11.8301 10.0202 11.8206 10.0138C11.8142 10.0075 11.8079 10.0012 11.8016 9.99485C11.7952 9.98852 11.7889 9.9822 11.7826 9.97587C11.732 9.93156 11.6813 9.89042 11.6275 9.85561C11.1275 9.36828 10.6307 8.88411 10.1307 8.39994C8.94719 7.24806 7.76367 6.09935 6.58014 4.94747C5.4789 3.8747 4.37448 2.80194 3.27324 1.73233C3.18463 1.64689 3.09602 1.56145 3.00742 1.47917C2.9916 1.46335 2.97894 1.45069 2.96312 1.43487C2.94729 1.41905 2.93464 1.40639 2.91881 1.39373L2.90615 1.3874C2.84286 1.32095 2.77641 1.25449 2.70996 1.18804L2.70679 1.18171C2.70363 1.17855 2.70363 1.17538 2.70046 1.17222C2.63084 1.1026 2.56122 1.03614 2.4916 0.966523L2.48844 0.963359C2.48211 0.95703 2.47578 0.950701 2.46945 0.944372C2.45996 0.934878 2.45047 0.925385 2.44097 0.915891C2.42515 0.900069 2.40616 0.881082 2.39034 0.865259C2.37452 0.849437 2.35553 0.83045 2.33971 0.814627C2.32072 0.798804 2.3049 0.779818 2.28591 0.763995L2.27958 0.757666C2.2511 0.73235 2.22579 0.703869 2.19731 0.678553C2.19414 0.672224 2.18781 0.66906 2.18465 0.665895C2.18148 0.662731 2.17832 0.659566 2.17515 0.656402C2.15617 0.637415 2.13718 0.618428 2.11819 0.599441C2.05174 0.536151 1.98845 0.47286 1.92199 0.40957C1.83339 0.324129 1.74478 0.238687 1.65618 0.15641C1.64668 0.146917 1.64035 0.140588 1.63086 0.131094C1.76377 0.131094 1.89668 0.134259 2.02959 0.134259H27.6589V0.12793Z" fill="white"/>
<path d="M29.0002 1.4729V19.7985C28.7882 19.5865 28.5794 19.3713 28.3673 19.1593C28.2692 19.0612 28.1711 18.9631 28.073 18.8619C27.9591 18.7479 27.8484 18.634 27.7344 18.5201C27.0699 17.8492 26.4054 17.1752 25.7408 16.5043C24.8041 15.5581 23.8674 14.6119 22.9307 13.6626C22.1143 12.8366 21.2978 12.0139 20.4814 11.1879C20.3105 11.0139 20.1396 10.8398 19.9688 10.6658C20.0605 10.574 20.1491 10.4822 20.2409 10.3873C21.3643 9.24176 22.4909 8.09621 23.6174 6.95066C24.7472 5.80194 25.8769 4.65006 27.0066 3.49818C27.2503 3.25135 27.4908 3.00452 27.7344 2.75769C27.7376 2.75452 27.7408 2.75136 27.7408 2.75136C27.9496 2.53934 28.1585 2.32732 28.3673 2.11529C28.3705 2.11213 28.3737 2.11213 28.3737 2.10897C28.5667 1.91277 28.7597 1.71657 28.9528 1.52037C28.9686 1.50455 28.9844 1.48872 29.0002 1.4729Z" fill="white"/>
<path d="M27.6574 21.1403H1.61035C1.82554 20.9314 2.04072 20.7226 2.25907 20.5137C2.26224 20.5105 2.2654 20.5105 2.2654 20.5074C2.36983 20.4061 2.47426 20.3049 2.58185 20.2036C2.69261 20.096 2.80337 19.9884 2.91413 19.8808C2.91729 19.8776 2.91729 19.8776 2.92046 19.8745C3.61981 19.1973 4.32233 18.5201 5.02169 17.8429C6.00268 16.8967 6.98368 15.9473 7.96468 15.0011C8.81593 14.1784 9.66718 13.3556 10.5184 12.536C10.7083 12.3525 10.8982 12.1721 11.088 11.9917C11.5501 12.4411 12.0026 12.8904 12.5627 13.2259C13.5753 13.8303 14.7873 14.0455 15.9361 13.7512C16.8316 13.5233 17.6924 12.9854 18.3379 12.3303C18.4392 12.229 18.5373 12.1278 18.6385 12.0233C18.7303 12.1151 18.8221 12.21 18.9139 12.3018C19.6923 13.0866 20.4708 13.8746 21.2461 14.6594C22.1828 15.6056 23.1195 16.5517 24.0562 17.5011C24.841 18.2922 25.6226 19.0834 26.4074 19.8745C26.4391 19.9093 26.4739 19.9409 26.5055 19.9757C26.6796 20.153 26.8536 20.3302 27.0276 20.5074C27.2333 20.7194 27.4422 20.9314 27.6574 21.1403Z" fill="white"/>
</g>
</svg>
