<svg width="24" height="15" viewBox="0 0 24 15" fill="none" xmlns="http://www.w3.org/2000/svg">
<path d="M12.0705 0C4.4955 0 0 7.5 0 7.5C0 7.5 4.4955 15 12.0705 15C19.4955 15 24 7.5 24 7.5C24 7.5 19.4955 0 12.0705 0ZM12 2.25C14.925 2.25 17.25 4.575 17.25 7.5C17.25 10.425 14.925 12.75 12 12.75C9.075 12.75 6.75 10.425 6.75 7.5C6.75 4.575 9.075 2.25 12 2.25ZM12 4.5C10.35 4.5 9 5.85 9 7.5C9 9.15 10.35 10.5 12 10.5C13.65 10.5 15 9.15 15 7.5C15 7.05 14.9152 6.6795 14.7653 6.3045C14.5402 6.6045 14.2493 6.75 13.8743 6.75C13.2743 6.75 12.7493 6.225 12.7493 5.625C12.7493 5.25 12.8948 4.959 13.1947 4.734C12.8197 4.584 12.4492 4.49925 11.9992 4.49925L12 4.5Z" fill="#AE9E87"/>
</svg>
