<svg width="16" height="17" viewBox="0 0 16 17" fill="none" xmlns="http://www.w3.org/2000/svg">
<path d="M0 2.42857C0 2.26755 0.064835 2.11312 0.180242 1.99926C0.295649 1.8854 0.452174 1.82143 0.615385 1.82143H2.46154V1.39643C2.46154 1.21305 2.49815 1.03146 2.56928 0.862039C2.64041 0.692616 2.74466 0.538675 2.8761 0.409004C3.00753 0.279334 3.16356 0.176474 3.33528 0.106297C3.507 0.0361196 3.69105 0 3.87692 0H5.96923C6.34461 0 6.70462 0.147123 6.97006 0.409004C7.2355 0.670886 7.38462 1.02607 7.38462 1.39643V1.82143H15.3846C15.5478 1.82143 15.7044 1.8854 15.8198 1.99926C15.9352 2.11312 16 2.26755 16 2.42857C16 2.5896 15.9352 2.74402 15.8198 2.85789C15.7044 2.97175 15.5478 3.03571 15.3846 3.03571H7.38462V3.46071C7.38462 3.6441 7.34801 3.82568 7.27688 3.9951C7.20575 4.16453 7.10149 4.31847 6.97006 4.44814C6.83863 4.57781 6.6826 4.68067 6.51088 4.75085C6.33915 4.82102 6.1551 4.85714 5.96923 4.85714H3.87692C3.69105 4.85714 3.507 4.82102 3.33528 4.75085C3.16356 4.68067 3.00753 4.57781 2.8761 4.44814C2.74466 4.31847 2.64041 4.16453 2.56928 3.9951C2.49815 3.82568 2.46154 3.6441 2.46154 3.46071V3.03571H0.615385C0.452174 3.03571 0.295649 2.97175 0.180242 2.85789C0.064835 2.74402 0 2.5896 0 2.42857ZM1.84615 8.5C1.84615 8.62008 1.88225 8.73747 1.94986 8.83731C2.01748 8.93715 2.11359 9.01497 2.22604 9.06093C2.33849 9.10688 2.46222 9.1189 2.58159 9.09548C2.70097 9.07205 2.81062 9.01423 2.89668 8.92932C2.98274 8.8444 3.04135 8.73622 3.0651 8.61845C3.08884 8.50067 3.07666 8.3786 3.03008 8.26766C2.9835 8.15672 2.90463 8.06189 2.80343 7.99518C2.70223 7.92847 2.58325 7.89286 2.46154 7.89286C2.29833 7.89286 2.1418 7.95682 2.0264 8.07069C1.91099 8.18455 1.84615 8.33898 1.84615 8.5ZM15.3846 7.89286H12.9231V7.46786C12.9231 7.28448 12.8865 7.10289 12.8153 6.93347C12.7442 6.76404 12.64 6.6101 12.5085 6.48043C12.3771 6.35076 12.2211 6.2479 12.0493 6.17773C11.8776 6.10755 11.6936 6.07143 11.5077 6.07143H9.41538C9.22951 6.07143 9.04546 6.10755 8.87374 6.17773C8.70202 6.2479 8.54599 6.35076 8.41456 6.48043C8.28313 6.6101 8.17887 6.76404 8.10774 6.93347C8.03661 7.10289 8 7.28448 8 7.46786V7.89286H4.30769C4.14448 7.89286 3.98796 7.95682 3.87255 8.07069C3.75714 8.18455 3.69231 8.33898 3.69231 8.5C3.69231 8.66102 3.75714 8.81545 3.87255 8.92932C3.98796 9.04318 4.14448 9.10714 4.30769 9.10714H8V9.53214C8 9.71553 8.03661 9.89711 8.10774 10.0665C8.17887 10.236 8.28313 10.3899 8.41456 10.5196C8.54599 10.6492 8.70202 10.7521 8.87374 10.8223C9.04546 10.8925 9.22951 10.9286 9.41538 10.9286H11.5077C11.6936 10.9286 11.8776 10.8925 12.0493 10.8223C12.2211 10.7521 12.3771 10.6492 12.5085 10.5196C12.64 10.3899 12.7442 10.236 12.8153 10.0665C12.8865 9.89711 12.9231 9.71553 12.9231 9.53214V9.10714H15.3846C15.5478 9.10714 15.7044 9.04318 15.8198 8.92932C15.9352 8.81545 16 8.66102 16 8.5C16 8.33898 15.9352 8.18455 15.8198 8.07069C15.7044 7.95682 15.5478 7.89286 15.3846 7.89286ZM15.3846 13.9643H7.38462V13.5393C7.38462 13.1689 7.2355 12.8137 6.97006 12.5519C6.70462 12.29 6.34461 12.1429 5.96923 12.1429H3.87692C3.69105 12.1429 3.507 12.179 3.33528 12.2492C3.16356 12.3193 3.00753 12.4222 2.8761 12.5519C2.74466 12.6815 2.64041 12.8355 2.56928 13.0049C2.49815 13.1743 2.46154 13.3559 2.46154 13.5393V13.9643H0.615385C0.452174 13.9643 0.295649 14.0283 0.180242 14.1421C0.064835 14.256 0 14.4104 0 14.5714C0 14.7325 0.064835 14.8869 0.180242 15.0007C0.295649 15.1146 0.452174 15.1786 0.615385 15.1786H2.46154V15.6036C2.46154 15.787 2.49815 15.9685 2.56928 16.138C2.64041 16.3074 2.74466 16.4613 2.8761 16.591C3.00753 16.7207 3.16356 16.8235 3.33528 16.8937C3.507 16.9639 3.69105 17 3.87692 17H5.96923C6.34461 17 6.70462 16.8529 6.97006 16.591C7.2355 16.3291 7.38462 15.9739 7.38462 15.6036V15.1786H15.3846C15.5478 15.1786 15.7044 15.1146 15.8198 15.0007C15.9352 14.8869 16 14.7325 16 14.5714C16 14.4104 15.9352 14.256 15.8198 14.1421C15.7044 14.0283 15.5478 13.9643 15.3846 13.9643ZM0.615385 9.10714C0.737096 9.10714 0.856074 9.07154 0.957274 9.00482C1.05847 8.93811 1.13735 8.84328 1.18393 8.73234C1.2305 8.6214 1.24269 8.49933 1.21894 8.38155C1.1952 8.26378 1.13659 8.1556 1.05053 8.07069C0.964464 7.98577 0.854813 7.92795 0.73544 7.90452C0.616067 7.8811 0.492334 7.89312 0.379887 7.93907C0.26744 7.98503 0.17133 8.06285 0.103711 8.16269C0.0360917 8.26253 0 8.37992 0 8.5C0 8.66102 0.064835 8.81545 0.180242 8.92932C0.295649 9.04318 0.452174 9.10714 0.615385 9.10714Z" fill="black"/>
</svg>
