<svg width="31" height="31" viewBox="0 0 31 31" fill="none" xmlns="http://www.w3.org/2000/svg">
<path d="M30.0603 4.81459C30.0047 2.30625 27.9965 0.297967 25.4881 0.242406L14.6224 0.000967272C13.365 -0.0249613 12.1093 0.471385 11.2112 1.36979L1.37017 11.2109C0.486582 12.0945 0 13.269 0 14.5183C0 15.7676 0.486582 16.9424 1.37017 17.8257L12.4767 28.9325C13.3886 29.8444 14.5863 30.3 15.7841 30.3C16.9819 30.3 18.1796 29.8441 19.0915 28.9325L28.9326 19.0915C29.831 18.1931 30.3294 16.9498 30.3014 15.6803L30.0603 4.81459ZM28.2416 18.4002L18.4005 28.2412C16.958 29.6835 14.6109 29.6835 13.168 28.2412L2.06115 17.1344C1.36243 16.4356 0.977204 15.5066 0.977204 14.5183C0.977204 13.53 1.36209 12.6009 2.06115 11.9022L11.9022 2.06111C12.5935 1.36979 13.5431 0.977498 14.5193 0.977498C14.5463 0.977498 14.5735 0.977498 14.6005 0.978171L25.4659 1.21961C27.4499 1.26372 29.0383 2.85244 29.0821 4.83614L29.3235 15.7016C29.3468 16.706 28.9518 17.6896 28.2416 18.4002Z" fill="black"/>
<path d="M21.3646 9.62725L22.5355 8.45609C22.7264 8.26516 22.7264 7.9557 22.5355 7.76511C22.3445 7.57418 22.0354 7.57418 21.8445 7.76511L20.6737 8.93627L20.476 8.73861C19.8109 8.07355 18.9563 7.67351 18.069 7.61189C17.1565 7.54825 16.3193 7.84895 15.7115 8.45642C14.4761 9.69224 14.6023 11.8295 15.9934 13.2209L17.0824 14.3095C18.0922 15.3197 18.2189 16.8367 17.3642 17.6914C16.9591 18.0961 16.3904 18.2928 15.7654 18.252C15.1138 18.2069 14.4804 17.9076 13.9821 17.4095L13.4672 16.8947C13.4574 16.8832 13.4537 16.8687 13.4426 16.858C13.4318 16.8472 13.4174 16.8431 13.4059 16.8334L11.6232 15.0507C11.4323 14.8598 11.1232 14.8598 10.9323 15.0507C10.7413 15.2413 10.7413 15.5507 10.9323 15.7417L12.4001 17.2095L11.2222 18.3874C11.0313 18.5783 11.0313 18.8878 11.2222 19.0784C11.3175 19.1737 11.4427 19.2215 11.5677 19.2215C11.6926 19.2215 11.8179 19.1737 11.9132 19.0784L13.0911 17.9005L13.2911 18.1005C13.9561 18.7656 14.8111 19.1656 15.6981 19.2272C15.7779 19.2329 15.857 19.2356 15.9361 19.2356C16.7554 19.2356 17.5009 18.9373 18.0555 18.3827C19.2914 17.1469 19.1647 15.01 17.7737 13.6186L16.6847 12.5299C15.6748 11.5197 15.5482 10.0024 16.4028 9.14774C16.8079 8.74265 17.3763 8.54162 18.0017 8.58708C18.6532 8.6322 19.2866 8.93122 19.785 9.42959L22.1442 11.7884C22.3351 11.9793 22.6442 11.9793 22.8352 11.7884C23.0261 11.5975 23.0261 11.288 22.8352 11.0974L21.3646 9.62725Z" fill="black"/>
</svg>
