<svg width="74" height="74" viewBox="0 0 74 74" fill="none" xmlns="http://www.w3.org/2000/svg">
<path d="M72.7112 40.1237V62.1447C72.7112 63.7189 71.8008 65.153 70.3729 65.8184C49.2178 75.6778 25.6684 74.7701 5.61461 63.2984C2.43993 61.4823 0.75169 57.8732 1.36167 54.2673C3.86106 39.5262 9.7266 25.6167 18.606 13.4816C20.188 11.3205 22.9406 10.3624 25.5238 11.074L33.1979 13.1858C36.7638 14.167 38.777 17.9379 37.6079 21.4468L36.8577 23.6973C35.8904 26.5993 33.0192 28.4228 29.9816 28.0657C27.7028 27.7979 28.6698 27.912 25.684 27.5589C25.6652 27.5589 25.6479 30.6407 25.9027 34.087C26.3208 39.76 27.1244 42.3031 26.6036 45.2022C26.7314 45.2022 34.7014 39.3509 45.1449 43.0719C50.7453 33.1323 62.0202 30.7232 70.9382 36.7703C72.0488 37.5235 72.7112 38.7805 72.7112 40.1237V40.1237Z" fill="#7EBEEE" fill-opacity="0.13"/>
<path d="M2.36843 55.2723C1.73164 54.6356 1.45253 53.7264 1.61627 52.8409C4.26415 38.5252 10.0786 25.1383 18.6078 13.4816C20.1898 11.3205 22.9424 10.3624 25.5256 11.074C25.5256 11.074 33.364 13.2328 33.4451 13.2584C35.4371 13.8902 34.5144 16.8967 32.4994 16.3423L30.1467 15.6951C27.5635 14.9834 24.8109 15.9415 23.2289 18.1027C15.3614 28.8549 9.84734 41.0177 6.95639 53.9418C6.4872 56.0388 3.888 56.7919 2.36843 55.2723V55.2723Z" fill="#7EBEEE" fill-opacity="0.05"/>
<path d="M48.7184 46.5861C48.3074 47.2252 47.5945 47.4499 46.9614 47.2615C42.3408 45.8862 37.5047 46.1873 33.1921 47.9071C31.6347 48.5282 29.791 47.5709 29.596 45.6793C29.4697 44.4538 30.2092 43.2996 31.3802 42.9168C36.8433 41.1312 42.6447 41.5132 48.1429 44.3818C48.9488 44.8021 49.2101 45.8216 48.7184 46.5861V46.5861Z" fill="#7EBEEE" fill-opacity="0.05"/>
<path d="M69.7376 39.181C63.798 36.9568 57.4548 38.0165 52.6227 42.0985C51.7183 42.8623 50.4554 42.8509 49.6605 42.3958C48.9776 42.0045 48.2329 41.6613 47.452 41.3286C46.8922 41.0898 46.2507 41.2983 45.9375 41.7795C48.7234 37.5891 52.733 34.6299 57.672 33.748C62.4072 32.9028 67.2943 34.0763 71.0346 36.8365C72.3082 37.7764 71.1822 39.7226 69.7376 39.181V39.181Z" fill="#7EBEEE" fill-opacity="0.05"/>
<path d="M27.9972 6.22663C21.8268 7.74466 16.7216 12.796 15.1627 18.9486C14.4358 21.8175 10.2022 21.3061 10.1727 18.3468C10.0782 8.82614 17.8473 1.0772 27.4007 1.23478C30.3624 1.28361 30.8735 5.51899 27.9972 6.22663V6.22663Z" fill="#7EBEEE" fill-opacity="0.18"/>
<path d="M36.9939 40.6289C36.0541 40.6751 35.1071 40.7831 34.1789 40.9498C33.509 41.0699 33.0635 41.7104 33.1836 42.3803C33.3038 43.0502 33.9443 43.4963 34.6142 43.3755C35.4389 43.2277 36.2804 43.1317 37.1151 43.0906C45.6629 42.6705 51.7045 48.0421 53.3519 49.6986C53.5926 49.9407 53.9092 50.0619 54.2257 50.0619C55.3155 50.0619 55.8711 48.7366 55.0996 47.9607C53.2706 46.1217 46.5627 40.158 36.9939 40.6289V40.6289Z" fill="#7EBEEE"/>
<path d="M71.6299 35.7501C64.6134 30.9944 56.0177 31.1124 49.6402 35.9897C49.0996 36.4031 48.9964 37.1765 49.41 37.717C49.8235 38.2577 50.5967 38.3607 51.1375 37.9473C56.7438 33.6597 64.1944 33.6878 70.2473 37.7902C71.0187 38.313 71.4791 39.185 71.4791 40.1228V62.1441C71.4791 63.2373 70.8406 64.2411 69.8525 64.7015C48.3607 74.7146 25.2658 73.1222 6.22632 62.2286C3.52021 60.6803 2.05363 57.5633 2.57736 54.4728C3.80425 47.2292 5.89838 39.9846 8.89453 32.983C9.16209 32.3573 8.87204 31.6331 8.24619 31.3654C7.6205 31.0975 6.89622 31.3878 6.62851 32.0135C3.70444 38.8489 1.47045 46.25 0.147284 54.0613C-0.548343 58.1666 1.40283 62.3086 5.0025 64.368C25.7006 76.2106 49.7053 76.8074 70.8934 66.9357C72.7463 66.0725 73.9437 64.1917 73.9437 62.1444V40.1229C73.9435 38.3666 73.0786 36.732 71.6299 35.7501V35.7501Z" fill="#7EBEEE"/>
<path d="M18.2446 34.0432C18.8381 34.3761 19.5892 34.1644 19.922 33.5706C20.2546 32.977 20.0429 32.2259 19.4493 31.8932C14.4879 29.1131 11.4058 23.8573 11.4058 18.1764C11.4058 9.51296 18.4541 2.46473 27.1175 2.46473C35.781 2.46473 42.8292 9.51296 42.8292 18.1764C42.8292 26.8399 35.781 33.8881 27.1175 33.8881C26.5306 33.8881 26.0459 33.8525 26.0614 33.8534C25.3624 33.8114 24.7971 34.345 24.7538 35.0016C24.7259 35.4074 25.1614 38.9876 25.2096 39.3801C25.5556 42.1991 25.7461 43.7519 25.2184 45.7727C24.933 46.8652 24.49 47.892 23.864 48.9117C23.3584 49.7352 23.9579 50.7889 24.9129 50.7889C25.3271 50.7889 25.7316 50.5802 25.9642 50.2013C26.7089 48.9884 27.2603 47.7081 27.603 46.3955C28.4284 43.2356 27.8173 40.9742 27.3416 36.3496C37.2611 36.2291 45.2939 28.1238 45.2939 18.1763C45.2939 8.1539 37.14 0 27.1177 0C17.0953 0 8.94141 8.1539 8.94141 18.1763C8.9411 24.7479 12.506 30.8279 18.2446 34.0432V34.0432Z" fill="#7EBEEE"/>
<path d="M27.1176 23.5674C24.1448 23.5674 21.7263 21.1489 21.7263 18.1762C21.7263 17.4956 21.1745 16.9439 20.494 16.9439C19.8135 16.9439 19.2617 17.4956 19.2617 18.1762C19.2617 22.508 22.7859 26.032 27.1176 26.032C31.4492 26.032 34.9734 22.508 34.9734 18.1762C34.9734 13.8443 31.4492 10.3203 27.1176 10.3203C26.437 10.3203 25.8853 10.8721 25.8853 11.5526C25.8853 12.2331 26.437 12.7849 27.1176 12.7849C30.0903 12.7849 32.5088 15.2034 32.5088 18.1762C32.5088 21.1489 30.0903 23.5674 27.1176 23.5674Z" fill="#7EBEEE"/>
</svg>
