<svg width="51" height="72" viewBox="0 0 51 72" fill="none" xmlns="http://www.w3.org/2000/svg">
<path d="M43.7766 29.3332V64.2854C43.7766 67.5726 41.1115 70.2378 37.8243 70.2378H7.76486C4.47767 70.2378 1.8125 67.5726 1.8125 64.2854V29.3332C1.8125 27.9025 2.33229 26.4939 3.30208 25.3957L9.25146 18.6517C10.2113 17.5639 10.741 16.1636 10.741 14.7142V12.2023H9.69937C7.72766 12.2023 6.12796 10.6026 6.12796 8.63088V4.76184C6.12796 2.79013 7.72766 1.19043 9.69937 1.19043H35.8897C37.8615 1.19043 39.4612 2.79013 39.4612 4.76184V8.63088C39.4612 10.6026 37.8615 12.2023 35.8897 12.2023H34.8481V14.7142C34.8481 16.1636 35.3778 17.5639 36.3377 18.6517L42.287 25.3957C43.236 26.4704 43.7766 27.871 43.7766 29.3332Z" fill="#7EBEEE" fill-opacity="0.13"/>
<path d="M39.4582 4.76184V8.63088C39.4582 10.6026 37.8585 12.2023 35.8868 12.2023H9.69642C7.7247 12.2023 6.125 10.6026 6.125 8.63088V4.76184C6.125 2.79013 7.7247 1.19043 9.69642 1.19043H35.8868C37.8585 1.19043 39.4582 2.79013 39.4582 4.76184Z" fill="#7EBEEE" fill-opacity="0.18"/>
<path d="M18.1815 12.2021V14.714C18.1815 16.1634 17.6517 17.5637 16.6919 18.6515L10.7425 25.3956C9.79357 26.4702 9.25295 27.8708 9.25295 29.333V64.2853C9.25295 65.2412 9.46411 66.1183 9.84863 66.8891C10.6166 68.4289 9.48554 70.2376 7.76486 70.2376C4.47752 70.2376 1.8125 67.5726 1.8125 64.2853V29.333C1.8125 27.9024 2.33229 26.4938 3.30208 25.3956L9.25146 18.6515C10.2113 17.5637 10.741 16.1634 10.741 14.714V12.2021H18.1815Z" fill="#7EBEEE" fill-opacity="0.05"/>
<path d="M49.4306 50.893V64.5834C49.4306 67.7069 46.8993 70.2382 43.7758 70.2382C40.6523 70.2382 38.1211 67.7069 38.1211 64.5834V50.893C38.1211 47.7695 40.6523 45.2383 43.7758 45.2383C46.8987 45.2383 49.4306 47.7679 49.4306 50.893Z" fill="#7EBEEE" fill-opacity="0.13"/>
<path d="M6.125 6.69502V4.76184C6.125 2.78938 7.72395 1.19043 9.69641 1.19043H33.674C34.86 1.19043 35.7878 2.21245 35.6735 3.3928C35.5738 4.42256 34.7085 5.20827 33.674 5.20827H13.7143C12.2138 5.20827 10.9287 6.13461 10.4003 7.44651C10.0818 8.23698 9.30966 8.74888 8.45803 8.71734L8.05952 8.70246C6.97976 8.66257 6.125 7.77552 6.125 6.69502V6.69502Z" fill="#7EBEEE" fill-opacity="0.13"/>
<path d="M45.9629 45.675C47.4985 46.3194 47.3873 48.5616 45.7882 49.0264C43.4904 49.6942 41.6839 51.7987 41.693 54.4634C41.7096 59.3985 41.7095 62.5902 41.6954 64.7199C41.6802 67.0226 38.2195 67.1162 38.1263 64.8153C38.1189 64.633 38.1216 50.9707 38.1216 50.9959C38.1216 46.941 42.1896 44.0919 45.9629 45.675V45.675Z" fill="#7EBEEE" fill-opacity="0.05"/>
<path d="M33.6562 15.9224H11.9303C11.263 15.9224 10.7298 15.3743 10.7401 14.707C10.7486 14.1548 10.7242 13.4405 10.7396 12.2021H34.8467C34.8622 13.441 34.8379 14.1553 34.8464 14.707C34.8565 15.3743 34.3235 15.9224 33.6562 15.9224Z" fill="#7EBEEE" fill-opacity="0.18"/>
<path d="M34.6983 69.0473H7.76392C5.13819 69.0473 3.00204 66.9112 3.00204 64.2855V63.095H32.0054C32.6628 63.095 33.1958 62.562 33.1958 61.9045C33.1958 61.2471 32.6628 60.714 32.0054 60.714H3.00204V29.3338C3.00204 28.1728 3.4251 27.0539 4.19325 26.1832L10.1437 19.4395C11.2961 18.1336 11.9306 16.4553 11.9306 14.7136V13.3928H35.8888C38.5146 13.3928 40.6507 11.2567 40.6507 8.63092V4.76189C40.6507 2.13615 38.5146 0 35.8888 0H9.69844C7.07271 0 4.93655 2.13615 4.93655 4.76189V6.15876C4.93655 6.81619 5.46959 7.34923 6.12703 7.34923C6.78446 7.34923 7.3175 6.81619 7.3175 6.15876V4.76189C7.3175 3.44909 8.38565 2.38094 9.69844 2.38094H35.8888C37.2016 2.38094 38.2698 3.44909 38.2698 4.76189V8.63092C38.2698 9.94371 37.2016 11.0119 35.8888 11.0119H10.7401C10.0827 11.0119 9.54963 11.5449 9.54963 12.2023V14.7136C9.54963 15.8746 9.12657 16.9935 8.35842 17.8642L2.40799 24.6079C1.25562 25.9139 0.621094 27.5922 0.621094 29.3338V64.2855C0.621094 68.224 3.8254 71.4283 7.76392 71.4283H34.6983C35.3558 71.4283 35.8888 70.8953 35.8888 70.2378C35.8888 69.5804 35.3558 69.0473 34.6983 69.0473Z" fill="#7EBEEE"/>
<path d="M44.9665 44.1529V29.3335C44.9665 27.5918 44.332 25.9136 43.1796 24.6076L37.4772 18.145C37.0423 17.652 36.2899 17.6051 35.7969 18.0399C35.3039 18.4749 35.2569 19.2273 35.6918 19.7203C35.6918 19.7203 41.3981 26.1877 41.4001 26.19H10.5772C9.91975 26.19 9.38672 26.7231 9.38672 27.3805C9.38672 28.0379 9.91975 28.571 10.5772 28.571H42.523C42.6138 29.1307 42.5856 28.0805 42.5856 44.1529C39.3769 44.7182 36.9308 47.524 36.9308 50.8923V64.5827C36.9308 68.3571 40.0016 71.428 43.776 71.428C47.5504 71.428 50.6212 68.3571 50.6212 64.5827V50.8923C50.6212 47.524 48.1751 44.7182 44.9665 44.1529V44.1529ZM48.2403 64.5827C48.2403 67.0443 46.2376 69.047 43.776 69.047C41.3144 69.047 39.3118 67.0443 39.3118 64.5827V50.8923C39.3118 48.4307 41.3144 46.4281 43.776 46.4281C46.2376 46.4281 48.2403 48.4307 48.2403 50.8923V64.5827Z" fill="#7EBEEE"/>
<path d="M18.5017 36.8525C17.8969 36.5933 17.1974 36.8735 16.9386 37.4778L14.4614 43.2578L11.9841 37.4777C11.7252 36.8733 11.0254 36.5936 10.421 36.8524C9.81673 37.1113 9.53682 37.8111 9.79575 38.4155L13.3672 46.7488C13.7783 47.7081 15.1438 47.7095 15.5555 46.7488L19.127 38.4155C19.386 37.8113 19.106 37.1114 18.5017 36.8525V36.8525Z" fill="#7EBEEE"/>
<path d="M34.6966 36.7559H27.5538C26.8963 36.7559 26.3633 37.2889 26.3633 37.9463C26.3633 38.6038 26.8963 39.1368 27.5538 39.1368H29.9347V46.2796C29.9347 46.9371 30.4677 47.4701 31.1252 47.4701C31.7826 47.4701 32.3156 46.9371 32.3156 46.2796V39.1368H34.6966C35.354 39.1368 35.8871 38.6038 35.8871 37.9463C35.8871 37.2889 35.354 36.7559 34.6966 36.7559Z" fill="#7EBEEE"/>
<path d="M23.9825 46.2796V37.9463C23.9825 37.2889 23.4495 36.7559 22.792 36.7559C22.1346 36.7559 21.6016 37.2889 21.6016 37.9463V46.2796C21.6016 46.9371 22.1346 47.4701 22.792 47.4701C23.4495 47.4701 23.9825 46.9371 23.9825 46.2796Z" fill="#7EBEEE"/>
<path d="M13.2695 52.9756C13.2695 53.6331 13.8026 54.1661 14.46 54.1661H31.1266C31.784 54.1661 32.3171 53.6331 32.3171 52.9756C32.3171 52.3182 31.784 51.7852 31.1266 51.7852H14.46C13.8026 51.7852 13.2695 52.3182 13.2695 52.9756Z" fill="#7EBEEE"/>
</svg>
