<svg width="80" height="60" viewBox="0 0 80 60" fill="none" xmlns="http://www.w3.org/2000/svg">
<path d="M44.8283 21.377C42.67 16.5753 38.7183 13.1436 34.1183 11.5186C30.1 10.0969 26.5317 7.63528 23.8833 4.29695L23.4633 3.76695C21.635 1.46361 18.4767 0.693614 15.795 1.89861C13.127 3.09845 11.5903 5.95562 12.0983 8.87362L12.25 9.73195C12.9717 13.842 12.44 18.052 10.85 21.9086C8.98165 26.4453 8.90832 31.712 11.0783 36.5403C15.2017 45.722 26.05 49.9386 35.29 45.9436C44.7817 41.8386 49.0517 30.7786 44.8283 21.377Z" fill="#7EBEEE" fill-opacity="0.13"/>
<path d="M37.2276 24.7935C39.5293 29.9152 37.2426 35.9318 32.121 38.2335C26.9993 40.5352 20.9826 38.2485 18.681 33.1268C16.3793 28.0052 18.666 21.9868 23.7876 19.6868C28.9093 17.3852 34.926 19.6718 37.2276 24.7935V24.7935Z" fill="#7EBEEE" fill-opacity="0.18"/>
<path d="M17.8033 38.3338C18.9632 40.8651 15.605 43.0051 13.8123 40.8743C9.58518 35.8496 8.06951 28.6624 10.8508 21.9088C13.8397 14.6593 12.0025 9.48361 12.0025 7.76044C12.0025 3.92428 15.1242 1.37694 18.3925 1.32744C20.4423 1.29644 21.5102 3.71344 20.1877 5.27995C19.2282 6.41645 18.6692 7.87678 18.6692 9.42711C18.6692 11.2149 20.5162 16.3019 17.5175 23.5754C15.6208 28.1811 15.5873 33.4978 17.8033 38.3338V38.3338Z" fill="#7EBEEE" fill-opacity="0.05"/>
<path d="M56.9436 15.1186C60.2969 14.477 65.2503 14.1886 68.6769 16.997C77.4188 24.1558 71.0814 47.4836 60.3803 47.4836C59.0936 47.4836 57.4303 47.1903 55.3786 46.2186C54.4069 45.7586 53.2869 45.7586 52.3152 46.2186C50.0832 47.2756 47.6017 47.8641 45.2419 47.207C35.9902 44.617 30.7702 23.7503 39.0169 16.997C42.4436 14.1886 47.3953 14.477 50.7503 15.1186C52.7426 15.5005 54.8477 15.5228 56.9436 15.1186V15.1186Z" fill="#7EBEEE" fill-opacity="0.18"/>
<path d="M74.5177 47.4512L72.0527 54.4012C71.2977 56.5295 69.2844 57.9512 67.026 57.9512H12.976C10.7177 57.9512 8.70437 56.5295 7.94937 54.4012L5.48438 47.4512H74.5177Z" fill="#7EBEEE" fill-opacity="0.13"/>
<path d="M74.5177 47.4512L73.7289 49.6757C73.3515 50.74 72.3447 51.4512 71.2155 51.4512H8.78654C7.65738 51.4512 6.65054 50.74 6.27321 49.6757L5.48438 47.4512H74.5177Z" fill="#7EBEEE" fill-opacity="0.18"/>
<path d="M78.6667 46.1174H66.9032C74.4158 39.5104 77.2347 22.2475 69.5085 15.919C65.7363 12.829 60.45 13.0414 56.6797 13.7635C56.5885 13.781 56.4972 13.7935 56.4058 13.8094C56.768 13.2349 57.1853 12.728 57.6738 12.2704C58.2113 11.767 58.239 10.9232 57.7355 10.3857C57.2322 9.8482 56.3883 9.8207 55.8508 10.324C54.75 11.3554 53.8975 12.5934 53.3093 14.0224C52.5332 13.9952 51.7577 13.9112 50.9868 13.7635C47.9498 13.1817 43.5772 12.8755 39.9903 14.7202C39.3355 15.057 39.0777 15.8609 39.4143 16.5157C39.751 17.1705 40.555 17.4285 41.2098 17.0917C44.1205 15.5947 47.8602 15.8799 50.485 16.3827C51.1765 16.5152 51.8712 16.6064 52.5668 16.6564C52.3625 17.8857 52.3485 19.0284 52.4045 19.9517C52.1395 19.7815 51.96 19.6062 51.8798 19.52C51.3783 18.9807 50.5347 18.9502 49.9955 19.4515C49.4563 19.9529 49.4257 20.7965 49.927 21.3359C52.091 23.6634 55.6588 23.5617 57.7365 21.3382C58.2392 20.8 58.2105 19.9564 57.6725 19.4537C57.1345 18.9512 56.2908 18.9795 55.788 19.5177C55.7132 19.5979 55.4652 19.844 55.0797 20.0532C55.003 19.1505 54.9973 17.9327 55.2737 16.6417C55.911 16.5895 56.5472 16.504 57.1808 16.3827C60.392 15.7677 64.844 15.5459 67.8182 17.9822C75.1797 24.0119 70.3537 43.561 62.0788 45.8765C60.3172 46.3694 58.2497 46.0637 55.9342 44.9677C54.5987 44.3355 53.0667 44.3355 51.7313 44.9677C49.4158 46.0635 47.3483 46.3692 45.5868 45.8765C39.0408 44.0449 34.4352 31.1125 36.9158 22.6734C37.0428 22.2394 36.9433 21.7814 36.657 21.4402C33.5918 17.7975 28.0898 16.292 23.2412 18.4707C17.4572 21.0695 14.8658 27.8897 17.4647 33.6737C19.5573 38.3312 24.5405 41.0617 29.563 40.35C30.2922 40.2467 30.7993 39.572 30.6962 38.8429C30.593 38.1137 29.9173 37.6069 29.189 37.7097C25.3215 38.2579 21.5002 36.1485 19.8972 32.5809C17.9008 28.138 19.8913 22.8995 24.3342 20.9032C27.6523 19.4122 31.591 20.1469 34.1547 22.6662C32.2235 30.3515 35.138 41.151 40.7697 46.1177H36.612C36.7475 45.0982 35.7163 44.3075 34.7622 44.7197C26.1982 48.4227 16.1197 44.5087 12.2952 35.9944C10.3427 31.6475 10.2677 26.826 12.0843 22.418C13.8043 18.2445 14.3162 13.7784 13.5647 9.50236L13.4137 8.64286C13.0098 6.34503 14.214 4.07236 16.3422 3.11603C18.4702 2.15986 20.9692 2.76853 22.4192 4.59636L22.8393 5.12619C25.5932 8.59803 29.3402 11.243 33.675 12.7755C34.3688 13.0212 35.1312 12.6572 35.3765 11.9629C35.622 11.2685 35.2582 10.5069 34.5638 10.2614C30.7023 8.8962 27.3705 6.54736 24.9285 3.46886L24.5083 2.93903C22.2992 0.154027 18.4918 -0.773306 15.2492 0.68336C12.0067 2.14036 10.1718 5.6032 10.7872 9.10403L10.9382 9.96353C11.6022 13.741 11.1458 17.6962 9.61884 21.4015C5.70867 30.89 9.67767 41.3089 18.0637 46.1172H1.33333C0.597 46.1172 0 46.7142 0 47.4505C0 48.1869 0.597 48.7839 1.33333 48.7839H72.6295L70.795 53.9547C70.23 55.5472 68.715 56.6172 67.0252 56.6172H12.9748C11.285 56.6172 9.77 55.5472 9.205 53.9547C8.95884 53.2607 8.1965 52.8979 7.50267 53.1439C6.80867 53.3902 6.44567 54.1524 6.69183 54.8462C7.6335 57.5005 10.1585 59.2837 12.9748 59.2837H67.0253C69.8417 59.2837 72.3665 57.5004 73.3083 54.8462L75.4592 48.7837H78.6667C79.403 48.7837 80 48.1867 80 47.4504C80 46.714 79.403 46.1174 78.6667 46.1174V46.1174Z" fill="#7EBEEE"/>
</svg>
