<svg width="24" height="24" viewBox="0 0 24 24" fill="none" xmlns="http://www.w3.org/2000/svg">
<path d="M22.0014 0H2.16668C1.21654 0 0.448242 0.750112 0.448242 1.67752V21.5941C0.448242 22.5215 1.21654 23.2762 2.16668 23.2762H22.0014C22.9516 23.2762 23.7244 22.5215 23.7244 21.5987V1.67752C23.7244 0.750112 22.9516 0 22.0014 0ZM7.35381 19.8348H3.89876V8.72402H7.35381V19.8348ZM5.62629 7.21016C4.51703 7.21016 3.62144 6.31458 3.62144 5.20987C3.62144 4.10516 4.51703 3.20957 5.62629 3.20957C6.731 3.20957 7.62658 4.10516 7.62658 5.20987C7.62658 6.31003 6.731 7.21016 5.62629 7.21016ZM20.283 19.8348H16.8325V14.434C16.8325 13.1474 16.8098 11.4881 15.0368 11.4881C13.2411 11.4881 12.9683 12.8928 12.9683 14.343V19.8348H9.52232V8.72402H12.8319V10.2424H12.8774C13.3365 9.36958 14.464 8.44671 16.1415 8.44671C19.6375 8.44671 20.283 10.7471 20.283 13.7384V19.8348Z" fill="#AE9E87"/>
</svg>
