<svg width="26" height="26" viewBox="0 0 26 26" fill="none" xmlns="http://www.w3.org/2000/svg">
<path d="M12.8595 0C5.80733 0 0.0917969 5.71554 0.0917969 12.7677C0.0917969 18.179 3.45828 22.7973 8.20626 24.6576C8.09654 23.6452 7.99181 22.0991 8.25115 20.9969C8.48556 19.9994 9.74736 14.6529 9.74736 14.6529C9.74736 14.6529 9.36334 13.8899 9.36334 12.7577C9.36334 10.9822 10.3907 9.65557 11.6725 9.65557C12.7597 9.65557 13.2884 10.4735 13.2884 11.456C13.2884 12.5532 12.5902 14.1891 12.2311 15.7053C11.9318 16.977 12.8695 18.0144 14.1213 18.0144C16.3906 18.0144 18.1361 15.6205 18.1361 12.1692C18.1361 9.11194 15.9417 6.97236 12.8046 6.97236C9.17381 6.97236 7.03922 9.69547 7.03922 12.5133C7.03922 13.6106 7.46314 14.7876 7.99181 15.426C8.09654 15.5506 8.1115 15.6654 8.08158 15.79C7.98682 16.194 7.76737 17.0618 7.72748 17.2364C7.67261 17.4708 7.54294 17.5207 7.29856 17.406C5.7026 16.6628 4.70512 14.3337 4.70512 12.4585C4.70512 8.42867 7.63272 4.73302 13.1388 4.73302C17.5676 4.73302 21.0089 7.89004 21.0089 12.1094C21.0089 16.5082 18.2359 20.0493 14.3856 20.0493C13.0939 20.0493 11.877 19.376 11.458 18.583C11.458 18.583 10.8197 21.0218 10.665 21.6203C10.3758 22.7275 9.59774 24.119 9.07905 24.9668C10.276 25.3359 11.5428 25.5354 12.8595 25.5354C19.9116 25.5354 25.6272 19.8198 25.6272 12.7677C25.6272 5.71554 19.9116 0 12.8595 0Z" fill="#AE9E87"/>
</svg>
