<svg width="26" height="26" viewBox="0 0 26 26" fill="none" xmlns="http://www.w3.org/2000/svg">
<path opacity="0.5" d="M12.8585 0C5.80636 0 0.0908203 5.71554 0.0908203 12.7677C0.0908203 18.179 3.4573 22.7973 8.20529 24.6576C8.09556 23.6452 7.99083 22.0991 8.25017 20.9969C8.48458 19.9994 9.74639 14.6529 9.74639 14.6529C9.74639 14.6529 9.36236 13.8899 9.36236 12.7577C9.36236 10.9822 10.3898 9.65557 11.6715 9.65557C12.7588 9.65557 13.2874 10.4735 13.2874 11.456C13.2874 12.5532 12.5892 14.1891 12.2301 15.7053C11.9309 16.977 12.8685 18.0144 14.1203 18.0144C16.3896 18.0144 18.1352 15.6205 18.1352 12.1692C18.1352 9.11194 15.9407 6.97236 12.8037 6.97236C9.17284 6.97236 7.03824 9.69547 7.03824 12.5133C7.03824 13.6106 7.46217 14.7876 7.99083 15.426C8.09556 15.5506 8.11053 15.6654 8.0806 15.79C7.98584 16.194 7.7664 17.0618 7.7265 17.2364C7.67164 17.4708 7.54197 17.5207 7.29758 17.406C5.70162 16.6628 4.70415 14.3337 4.70415 12.4585C4.70415 8.42867 7.63174 4.73302 13.1378 4.73302C17.5666 4.73302 21.0079 7.89004 21.0079 12.1094C21.0079 16.5082 18.2349 20.0493 14.3847 20.0493C13.0929 20.0493 11.876 19.376 11.4571 18.583C11.4571 18.583 10.8187 21.0218 10.6641 21.6203C10.3748 22.7275 9.59677 24.119 9.07808 24.9668C10.275 25.3359 11.5418 25.5354 12.8585 25.5354C19.9107 25.5354 25.6262 19.8198 25.6262 12.7677C25.6262 5.71554 19.9107 0 12.8585 0Z" fill="white"/>
</svg>
