<svg width="38" height="30" viewBox="0 0 38 30" fill="none" xmlns="http://www.w3.org/2000/svg">
<g filter="url(#filter0_d_550_16449)">
<path d="M28.9345 28C26.0641 28 23.8929 26.8148 22.4209 24.4444C21.1697 22.4444 20.5441 20 20.5441 17.1111C20.5441 13.4074 21.5009 10.0741 23.4145 7.11111C25.2545 4.14815 28.0881 1.77778 31.9152 0L32.9088 2C30.6272 2.96296 28.6769 4.48148 27.0577 6.55556C25.3649 8.62963 24.5185 10.7407 24.5185 12.8889C24.5185 13.7778 24.6289 14.5556 24.8497 15.2222C26.0273 14.2593 27.3889 13.7778 28.9345 13.7778C30.9216 13.7778 32.6144 14.4074 34.0128 15.6667C35.3376 17 36 18.7407 36 20.8889C36 22.8889 35.3376 24.5556 34.0128 25.8889C32.6144 27.2963 30.9216 28 28.9345 28Z" fill="#F4F8FA"/>
<path d="M8.39034 28C5.51996 28 3.34877 26.8148 1.87678 24.4444C0.62559 22.4444 0 20 0 17.1111C0 13.4074 0.956791 10.0741 2.87038 7.11111C4.71036 4.14815 7.54394 1.77778 11.3711 0L12.3647 2C10.0831 2.96296 8.13274 4.48148 6.51355 6.55556C4.82076 8.62963 3.97437 10.7407 3.97437 12.8889C3.97437 13.7778 4.08477 14.5556 4.30557 15.2222C5.48316 14.2593 6.84475 13.7778 8.39034 13.7778C10.3775 13.7778 12.0703 14.4074 13.4687 15.6667C14.7935 17 15.4559 18.7407 15.4559 20.8889C15.4559 22.8889 14.7935 24.5556 13.4687 25.8889C12.0703 27.2963 10.3775 28 8.39034 28Z" fill="#F4F8FA"/>
</g>
<defs>
<filter id="filter0_d_550_16449" x="0" y="0" width="38" height="30" filterUnits="userSpaceOnUse" color-interpolation-filters="sRGB">
<feFlood flood-opacity="0" result="BackgroundImageFix"/>
<feColorMatrix in="SourceAlpha" type="matrix" values="0 0 0 0 0 0 0 0 0 0 0 0 0 0 0 0 0 0 127 0" result="hardAlpha"/>
<feOffset dx="2" dy="2"/>
<feComposite in2="hardAlpha" operator="out"/>
<feColorMatrix type="matrix" values="0 0 0 0 0.219608 0 0 0 0 0.207843 0 0 0 0 0.196078 0 0 0 1 0"/>
<feBlend mode="normal" in2="BackgroundImageFix" result="effect1_dropShadow_550_16449"/>
<feBlend mode="normal" in="SourceGraphic" in2="effect1_dropShadow_550_16449" result="shape"/>
</filter>
</defs>
</svg>
