<svg width="63" height="50" viewBox="0 0 63 50" fill="none" xmlns="http://www.w3.org/2000/svg">
<path d="M50.6353 49.2762C45.6121 49.2762 41.8126 47.2022 39.2366 43.054C37.047 39.554 35.9522 35.2762 35.9522 30.2207C35.9522 23.7392 37.6266 17.9059 40.9754 12.7207C44.1953 7.53551 49.1541 3.38736 55.8517 0.276245L57.5904 3.77625C53.5977 5.46143 50.1845 8.11884 47.3509 11.7485C44.3885 15.3781 42.9074 19.0725 42.9074 22.8318C42.9074 24.3874 43.1005 25.7485 43.4869 26.9151C45.5477 25.2299 47.9305 24.3874 50.6353 24.3874C54.1129 24.3874 57.0752 25.4892 59.5224 27.6929C61.8408 30.0262 63 33.0725 63 36.8318C63 40.3318 61.8408 43.2485 59.5224 45.5818C57.0752 48.0448 54.1129 49.2762 50.6353 49.2762Z" fill="#E9D9C2"/>
<path d="M14.6831 49.2762C9.65993 49.2762 5.86035 47.2022 3.28437 43.054C1.09479 39.554 0 35.2762 0 30.2207C0 23.7392 1.67439 17.9059 5.02316 12.7207C8.24314 7.53551 13.2019 3.38736 19.8995 0.276245L21.6382 3.77625C17.6455 5.46143 14.2323 8.11884 11.3987 11.7485C8.43634 15.3781 6.95515 19.0725 6.95515 22.8318C6.95515 24.3874 7.14835 25.7485 7.53474 26.9151C9.59553 25.2299 11.9783 24.3874 14.6831 24.3874C18.1607 24.3874 21.123 25.4892 23.5702 27.6929C25.8886 30.0262 27.0478 33.0725 27.0478 36.8318C27.0478 40.3318 25.8886 43.2485 23.5702 45.5818C21.123 48.0448 18.1607 49.2762 14.6831 49.2762Z" fill="#E9D9C2"/>
</svg>
