<svg width="12" height="11" viewBox="0 0 12 11" fill="none" xmlns="http://www.w3.org/2000/svg">
<path d="M7.86759 10.4749C7.26733 10.763 6.60911 10.9468 5.91406 10.9998V9.28263C6.30112 9.23958 6.6737 9.15265 7.01646 9.00195L7.86759 10.4749Z" fill="black"/>
<path d="M1.71717 5.08689H0C0.217756 2.24621 2.59394 0 5.48928 0C7.19278 0 8.79401 0.797317 9.82896 2.11872L11.4137 1.203L11.417 6.44472L6.8757 3.82675L8.33537 2.98224C7.61836 2.17912 6.58675 1.6956 5.48931 1.6956C3.53035 1.69563 1.93077 3.18426 1.71717 5.08689Z" fill="black"/>
<path d="M8.54921 7.7666L10.0329 8.62271C9.6479 9.18322 9.16189 9.66841 8.6022 10.0542L7.74609 8.57054C8.05245 8.34367 8.32237 8.07295 8.54921 7.7666Z" fill="black"/>
<path d="M5.06641 9.28263V10.9998C4.37094 10.9468 3.71271 10.763 3.11328 10.4749L3.96359 9.00195C4.30719 9.15265 4.67975 9.23958 5.06641 9.28263Z" fill="black"/>
<path d="M3.23293 8.57054L2.37682 10.0542C1.81631 9.66838 1.3303 9.18322 0.945312 8.62271L2.42899 7.7666C2.65583 8.07295 2.92576 8.34367 3.23293 8.57054Z" fill="black"/>
<path d="M1.99703 7.03657L0.52493 7.88688C0.236805 7.28744 0.0529884 6.63004 0 5.93457H1.71717C1.76025 6.32123 1.84718 6.69379 1.99703 7.03657Z" fill="black"/>
</svg>
