<svg width="35" height="29" viewBox="0 0 35 29" fill="none" xmlns="http://www.w3.org/2000/svg">
<path d="M0 28.4C0 25.2667 0.0666666 21.5667 0.2 17.3C0.4 11.2333 1.36667 6.83333 3.1 4.1C4.83333 1.36667 7.9 0 12.3 0L13.5 5.1C11.1 5.16667 9.46667 5.96667 8.6 7.5C7.8 8.96667 7.4 11.1667 7.4 14.1H14.4V28.4H0ZM20.5 28.4C20.5 25.2667 20.5667 21.5667 20.7 17.3C20.9 11.2333 21.8667 6.83333 23.6 4.1C25.3333 1.36667 28.4 0 32.8 0L34 5.1C31.6 5.16667 29.9667 5.96667 29.1 7.5C28.3 8.96667 27.9 11.1667 27.9 14.1H34.9V28.4H20.5Z" fill="#DA291C"/>
</svg>
