<svg width="31" height="31" viewBox="0 0 31 31" fill="none" xmlns="http://www.w3.org/2000/svg">
<path d="M30.2903 20.194L29.1956 8.2463C29.0157 6.21983 27.3526 4.69139 25.3271 4.69139H23.265V4.40011C23.265 3.24612 22.8064 2.13894 21.9686 1.27757C21.1449 0.453582 20.0431 0 18.8669 0C16.4417 0 14.4685 1.97394 14.4685 4.40011V4.69139H12.4063C10.4031 4.69139 8.69515 6.25283 8.51803 8.24461L8.30454 10.5603H4.98501C2.9545 10.5603 1.28497 12.0857 1.10111 14.1082L0.0158137 26.0518C-0.0828496 27.1412 0.283518 28.2291 1.02097 29.0363C1.75774 29.8434 2.80701 30.3061 3.89937 30.3061H18.9837C20.0764 30.3061 21.126 29.8431 21.8628 29.0363C22.6006 28.2288 22.9663 27.1412 22.8676 26.0518L22.7215 24.4429H26.4023C27.4957 24.4429 28.5453 23.9819 29.2814 23.1774C30.0189 22.3723 30.3866 21.2853 30.2903 20.194ZM15.446 4.40011C15.446 2.51305 16.9805 0.977541 18.8666 0.977541C19.7821 0.977541 20.6381 1.32943 21.2725 1.96384C21.9268 2.63663 22.2874 3.5017 22.2874 4.39978V4.69105H15.446V4.40011ZM21.1412 28.377C20.5809 28.9905 19.8148 29.3286 18.9837 29.3286H3.89937C3.06865 29.3286 2.30292 28.9908 1.74225 28.3773C1.18159 27.7634 0.913885 26.9687 0.989314 26.1404L2.07495 14.1967C2.21233 12.6811 3.4633 11.5379 4.98501 11.5379H17.8988C19.4198 11.5379 20.6708 12.6811 20.8088 14.1967L21.6934 23.9327C21.6931 23.9398 21.6911 23.9469 21.6911 23.954C21.6911 23.993 21.6968 24.0304 21.7056 24.0664L21.8938 26.14C21.9692 26.9687 21.7019 27.7631 21.1412 28.377ZM28.5605 22.5174C28.0008 23.1286 27.2344 23.4654 26.4023 23.4654H22.6326L21.7823 14.1085C21.5985 12.0857 19.929 10.5607 17.8984 10.5607H9.28646L9.49186 8.33317C9.62454 6.83942 10.9045 5.66927 12.4063 5.66927H14.4685V7.05661C14.4685 7.32667 14.6873 7.54555 14.9574 7.54555C15.2271 7.54555 15.4463 7.32667 15.4463 7.05661V5.66927H22.2878V7.05661C22.2878 7.32667 22.5067 7.54555 22.7767 7.54555C23.0464 7.54555 23.2657 7.32667 23.2657 7.05661V5.66927H25.3278C26.8431 5.66927 28.0877 6.8145 28.2224 8.33418L29.3171 20.2815C29.3899 21.1109 29.1211 21.9049 28.5605 22.5174Z" fill="black"/>
<path d="M15.3509 14.8027C15.0812 14.8027 14.8619 15.0216 14.8619 15.2917V16.0739C14.8619 17.961 13.3274 19.4961 11.4414 19.4961C9.55535 19.4961 8.02085 17.961 8.02085 16.0739V15.2917C8.02085 15.0216 7.80197 14.8027 7.53191 14.8027C7.26185 14.8027 7.04297 15.0216 7.04297 15.2917V16.0739C7.04297 18.5001 9.0159 20.4737 11.4414 20.4737C13.8669 20.4737 15.8398 18.4997 15.8398 16.0739V15.2917C15.8398 15.0216 15.6209 14.8027 15.3509 14.8027Z" fill="black"/>
</svg>
