<svg width="25" height="24" viewBox="0 0 25 24" fill="none" xmlns="http://www.w3.org/2000/svg">
<path fill-rule="evenodd" clip-rule="evenodd" d="M7.03687 15.1998H0.625C0.459257 15.1999 0.30032 15.2631 0.183122 15.3756C0.0659245 15.4881 5.79811e-05 15.6407 1.66063e-09 15.7998V20.3412C-1.47728e-05 20.8217 0.0985562 21.2975 0.290084 21.7414C0.481612 22.1853 0.762346 22.5886 1.11626 22.9284C1.47017 23.2681 1.89032 23.5377 2.35273 23.7215C2.81514 23.9054 3.31075 24 3.81125 24H19.9769C21.3091 24 22.5867 23.4919 23.5287 22.5876C24.4707 21.6832 25 20.4567 25 19.1778V0.6C25 0.5212 24.9839 0.443169 24.9525 0.370363C24.9211 0.297557 24.875 0.231405 24.817 0.175685C24.759 0.119965 24.69 0.0757703 24.6142 0.0456256C24.5384 0.0154809 24.4571 -2.28366e-05 24.375 2.52472e-08H7.66188C7.57979 -2.28366e-05 7.49851 0.0154809 7.42267 0.0456256C7.34683 0.0757703 7.27792 0.119965 7.21988 0.175685C7.16184 0.231405 7.1158 0.297557 7.0844 0.370363C7.053 0.443169 7.03685 0.5212 7.03687 0.6V15.1998ZM19.9769 22.8C18.9762 22.8 18.0165 22.4183 17.3089 21.739C16.6013 21.0598 16.2038 20.1385 16.2038 19.1778C16.2038 18.1092 16.1806 16.9956 16.1806 15.7998L15.5556 15.1998H8.28688V1.2H23.75V19.1778C23.75 20.1385 23.3524 21.0598 22.6448 21.7391C21.9373 22.4183 20.9776 22.8 19.9769 22.8V22.8ZM14.9325 16.3998H1.25V20.3412C1.24993 20.6641 1.31612 20.9839 1.44481 21.2822C1.5735 21.5806 1.76216 21.8517 2.00001 22.08C2.23786 22.3083 2.52023 22.4894 2.83101 22.613C3.14179 22.7365 3.47488 22.8001 3.81125 22.8H16.6606C16.1237 22.3478 15.6937 21.7907 15.3993 21.166C15.105 20.5413 14.953 19.8634 14.9538 19.1778V19.1778C14.9538 18.2898 14.9381 17.3712 14.9325 16.3998ZM20.8562 10.9776H11.1806C11.0149 10.9776 10.8559 11.0408 10.7387 11.1533C10.6215 11.2659 10.5556 11.4185 10.5556 11.5776C10.5556 11.7367 10.6215 11.8893 10.7387 12.0019C10.8559 12.1144 11.0149 12.1776 11.1806 12.1776H20.8562C21.022 12.1776 21.181 12.1144 21.2982 12.0019C21.4154 11.8893 21.4812 11.7367 21.4812 11.5776C21.4812 11.4185 21.4154 11.2659 21.2982 11.1533C21.181 11.0408 21.022 10.9776 20.8562 10.9776ZM20.8562 7.5996H11.1806C11.0149 7.5996 10.8559 7.66281 10.7387 7.77534C10.6215 7.88786 10.5556 8.04047 10.5556 8.1996C10.5556 8.35873 10.6215 8.51134 10.7387 8.62386C10.8559 8.73639 11.0149 8.7996 11.1806 8.7996H20.8562C21.022 8.7996 21.181 8.73639 21.2982 8.62386C21.4154 8.51134 21.4812 8.35873 21.4812 8.1996C21.4812 8.04047 21.4154 7.88786 21.2982 7.77534C21.181 7.66281 21.022 7.5996 20.8562 7.5996ZM20.8562 4.2222H16.4581C16.2924 4.2222 16.1334 4.28541 16.0162 4.39794C15.899 4.51046 15.8331 4.66307 15.8331 4.8222C15.8331 4.98133 15.899 5.13394 16.0162 5.24646C16.1334 5.35899 16.2924 5.4222 16.4581 5.4222H20.8562C21.022 5.4222 21.181 5.35899 21.2982 5.24646C21.4154 5.13394 21.4812 4.98133 21.4812 4.8222C21.4812 4.66307 21.4154 4.51046 21.2982 4.39794C21.181 4.28541 21.022 4.2222 20.8562 4.2222Z" fill="var(--icon-tab)"/>
</svg>
