<svg width="24" height="25" viewBox="0 0 24 25" fill="none" xmlns="http://www.w3.org/2000/svg">
<path fill-rule="evenodd" clip-rule="evenodd" d="M6.61919 6.89499H2.13597C1.56949 6.89503 1.02621 7.12946 0.62565 7.54671C0.225085 7.96397 3.4767e-05 8.52988 3.18982e-08 9.11997V22.7744C-4.84474e-05 23.0666 0.0551632 23.356 0.162482 23.626C0.269802 23.896 0.427127 24.1414 0.625474 24.348C0.823821 24.5547 1.05931 24.7186 1.31848 24.8305C1.57766 24.9424 1.85545 25 2.136 25H15.2442C15.5248 25 15.8026 24.9425 16.0619 24.8307C16.3211 24.7188 16.5567 24.5549 16.7551 24.3482C16.9535 24.1415 17.1108 23.8962 17.2182 23.6261C17.3256 23.3561 17.3808 23.0667 17.3808 22.7744V18.1044H21.864C22.4305 18.1043 22.9738 17.8699 23.3744 17.4526C23.7749 17.0354 24 16.4695 24 15.8794V2.225C24 1.6349 23.7749 1.06898 23.3744 0.651716C22.9738 0.234453 22.4305 2.63486e-05 21.864 3.32273e-08H8.75579C8.47525 -5.04661e-05 8.19744 0.0574617 7.93823 0.169253C7.67903 0.281044 7.4435 0.444924 7.24509 0.651536C7.04669 0.858148 6.8893 1.10345 6.78191 1.37342C6.67451 1.6434 6.61922 1.93276 6.61919 2.225V6.89499ZM16.1808 9.11997V22.7744C16.1808 23.0331 16.0821 23.2813 15.9064 23.4642C15.7308 23.6472 15.4926 23.75 15.2442 23.75H2.136C1.88769 23.7499 1.64961 23.647 1.47409 23.464C1.29857 23.2811 1.19998 23.033 1.2 22.7744V9.11997C1.20011 8.86142 1.29876 8.61349 1.47427 8.43067C1.64978 8.24785 1.88779 8.14509 2.136 8.14497H15.2442C15.4925 8.14496 15.7306 8.24766 15.9063 8.43049C16.0819 8.61332 16.1806 8.86132 16.1808 9.11997V9.11997ZM17.3808 16.7787L21.864 16.8543C22.1122 16.8543 22.3503 16.7516 22.5258 16.5688C22.7014 16.3859 22.8 16.1379 22.8 15.8793V2.225C22.8 1.96642 22.7014 1.71843 22.5258 1.53558C22.3503 1.35274 22.1122 1.25001 21.864 1.25H8.75579C8.63283 1.24994 8.51107 1.27512 8.39745 1.32409C8.28384 1.37307 8.18059 1.44487 8.09362 1.53541C8.00665 1.62595 7.93765 1.73345 7.89057 1.85177C7.84349 1.97009 7.81924 2.09692 7.81922 2.225L7.82636 6.89499H15.2442C15.5247 6.89494 15.8025 6.95244 16.0617 7.06423C16.3209 7.17602 16.5565 7.3399 16.7549 7.54651C16.9533 7.75312 17.1107 7.99842 17.2181 8.26839C17.3255 8.53837 17.3807 8.82773 17.3808 9.11997V16.7787Z" fill="var(--icon-tab)"/>
</svg>
