<svg width="15" height="25" viewBox="0 0 15 25" fill="none" xmlns="http://www.w3.org/2000/svg">
<path fill-rule="evenodd" clip-rule="evenodd" d="M4.1559 4.77811L1.73641 7.245C0.620335 8.38331 5.32829e-05 9.87917 0 11.4325V22.7069C7.64071e-05 23.315 0.255218 23.8983 0.709314 24.3283C1.16341 24.7583 1.77927 24.9999 2.42146 25H12.5785C13.2207 24.9999 13.8366 24.7583 14.2907 24.3283C14.7448 23.8983 14.9999 23.315 15 22.7069V11.4325C14.9999 9.87917 14.3797 8.38331 13.2636 7.245L10.8441 4.77811C10.9512 4.72533 11.0411 4.64574 11.1038 4.548C11.1665 4.45027 11.1997 4.33812 11.1998 4.22375V0.624996C11.1998 0.459254 11.1302 0.300318 11.0065 0.183122C10.8827 0.0659254 10.7149 5.91753e-05 10.5398 0H4.46015C4.28513 5.91753e-05 4.1173 0.0659254 3.99355 0.183122C3.86979 0.300318 3.80024 0.459254 3.80017 0.624996V4.22375C3.80029 4.33812 3.83351 4.45027 3.89623 4.548C3.95895 4.64574 4.04876 4.72533 4.1559 4.77811V4.77811ZM13.68 18.8825V22.7069C13.68 22.9835 13.5639 23.2488 13.3574 23.4444C13.1508 23.6401 12.8706 23.75 12.5785 23.75H2.42146C2.12933 23.75 1.84918 23.6401 1.64261 23.4444C1.43604 23.2488 1.31997 22.9835 1.31992 22.7069V18.8825H13.68ZM1.31995 17.6325H13.68V13.485H1.31995V17.6325ZM13.68 12.235H1.31995V11.4325C1.31998 10.1946 1.81438 9.00258 2.70394 8.0956L5.88768 4.84872H9.11232L12.2961 8.0956C13.1856 9.00258 13.68 10.1946 13.68 11.4325V12.235ZM9.8799 1.25V3.59874H5.1201V1.25H9.8799Z" fill="var(--icon-tab)"/>
</svg>
