<svg width="22" height="22" viewBox="0 0 22 22" fill="none" xmlns="http://www.w3.org/2000/svg">
<path fill-rule="evenodd" clip-rule="evenodd" d="M8.89585 1.59113L7.48349 6.11424C7.43534 6.26837 7.34155 6.40269 7.21556 6.49796C7.08957 6.59323 6.93784 6.64457 6.7821 6.64461H2.21241C1.74517 6.64463 1.28993 6.79859 0.911938 7.08442C0.533946 7.37025 0.252609 7.77329 0.108249 8.23575C-0.0361112 8.69822 -0.0360823 9.19637 0.108332 9.65882C0.252746 10.1213 0.53413 10.5243 0.912155 10.81L4.60862 13.6054C4.73481 13.7005 4.82877 13.8348 4.877 13.989C4.92524 14.1432 4.92526 14.3093 4.87708 14.4635L3.46472 18.9859C3.32039 19.4484 3.32044 19.9466 3.46487 20.409C3.60931 20.8715 3.89071 21.2745 4.26875 21.5603C4.64679 21.8461 5.10206 22 5.56932 22C6.03658 22 6.49185 21.846 6.86987 21.5602L10.5663 18.7648C10.6925 18.6698 10.8443 18.6186 11 18.6186C11.1557 18.6186 11.3075 18.6698 11.4337 18.7648L15.1301 21.5602C15.5082 21.846 15.9634 22 16.4307 22C16.8979 22 17.3532 21.8461 17.7313 21.5603C18.1093 21.2745 18.3907 20.8715 18.5351 20.409C18.6796 19.9466 18.6796 19.4484 18.5353 18.9859L17.1229 14.4635C17.0748 14.3094 17.0748 14.1434 17.1229 13.9892C17.1709 13.8351 17.2647 13.7007 17.3906 13.6054L21.0878 10.81C21.4659 10.5243 21.7473 10.1213 21.8917 9.65882C22.0361 9.19637 22.0361 8.69822 21.8918 8.23575C21.7474 7.77329 21.4661 7.37025 21.0881 7.08442C20.7101 6.79859 20.2548 6.64463 19.7876 6.64461H15.2179C15.0622 6.64457 14.9104 6.59323 14.7844 6.49796C14.6585 6.40269 14.5647 6.26837 14.5165 6.11424L13.1042 1.59113C12.9598 1.12866 12.6785 0.725619 12.3005 0.439785C11.9225 0.153951 11.4672 0 11 0C10.5328 0 10.0775 0.153951 9.69952 0.439785C9.32152 0.725619 9.04019 1.12866 8.89585 1.59113V1.59113ZM10.2986 2.06547C10.3467 1.91131 10.4405 1.77697 10.5665 1.68169C10.6925 1.58641 10.8443 1.53509 11 1.53509C11.1557 1.53509 11.3075 1.58641 11.4335 1.68169C11.5595 1.77697 11.6533 1.91131 11.7014 2.06547L13.1137 6.58858C13.258 7.0511 13.5393 7.45418 13.9173 7.74002C14.2954 8.02586 14.7506 8.17978 15.2179 8.17969H19.7876C19.9434 8.17966 20.0951 8.23098 20.2212 8.32628C20.3472 8.42158 20.4409 8.55596 20.489 8.71016C20.5371 8.86436 20.537 9.03044 20.4888 9.18458C20.4405 9.33873 20.3466 9.47301 20.2205 9.56817L16.524 12.3635C16.146 12.6493 15.8646 13.0523 15.7202 13.5148C15.5758 13.9772 15.5758 14.4754 15.7201 14.9379L17.1325 19.4602C17.1805 19.6144 17.1804 19.7804 17.1323 19.9345C17.0841 20.0886 16.9903 20.2229 16.8643 20.3181C16.7383 20.4133 16.5866 20.4647 16.4309 20.4647C16.2752 20.4647 16.1235 20.4135 15.9975 20.3183L12.3003 17.5229C11.9222 17.2375 11.4671 17.0837 11 17.0837C10.5329 17.0837 10.0778 17.2375 9.69975 17.5229L6.00254 20.3183C5.87652 20.4135 5.72479 20.4647 5.56907 20.4647C5.41336 20.4647 5.26166 20.4133 5.13568 20.3181C5.0097 20.2229 4.91591 20.0886 4.86774 19.9345C4.81956 19.7804 4.81948 19.6144 4.86749 19.4602L6.27985 14.9379C6.42425 14.4754 6.42424 13.9772 6.27982 13.5148C6.13541 13.0523 5.854 12.6493 5.47595 12.3635L1.77948 9.56817C1.65337 9.47301 1.55947 9.33873 1.51123 9.18458C1.46299 9.03044 1.46291 8.86436 1.51099 8.71016C1.55907 8.55596 1.65284 8.42158 1.77885 8.32628C1.90486 8.23098 2.05664 8.17966 2.21241 8.17969H6.7821C7.24936 8.17978 7.70465 8.02586 8.08266 7.74002C8.46067 7.45418 8.74198 7.0511 8.88626 6.58858L10.2986 2.06547Z" fill="var(--icon-tab)"/>
</svg>
