<svg width="26" height="21" viewBox="0 0 26 21" fill="none" xmlns="http://www.w3.org/2000/svg">
<path opacity="0.5" d="M8.21481 20.8762C17.8484 20.8762 23.1191 12.8929 23.1191 5.97191C23.1191 5.74748 23.1141 5.51806 23.1041 5.29362C24.1294 4.55214 25.0143 3.63371 25.717 2.58149C24.7621 3.00633 23.7483 3.2838 22.7101 3.40441C23.8032 2.74918 24.6217 1.71985 25.0138 0.507236C23.9855 1.11667 22.8609 1.54657 21.6882 1.77852C20.8981 0.93899 19.8534 0.383123 18.7157 0.196858C17.578 0.0105926 16.4106 0.204305 15.3941 0.748045C14.3775 1.29178 13.5684 2.15527 13.0917 3.20499C12.6151 4.25471 12.4976 5.43221 12.7573 6.55543C10.6751 6.45094 8.63804 5.91003 6.77826 4.96777C4.91848 4.02551 3.27748 2.70293 1.96164 1.08577C1.29285 2.23883 1.08821 3.60327 1.38928 4.90179C1.69036 6.20032 2.47457 7.33548 3.58254 8.07658C2.75074 8.05017 1.93717 7.82622 1.20904 7.42323V7.48807C1.2083 8.69812 1.62662 9.87108 2.39291 10.8076C3.1592 11.7441 4.22615 12.3863 5.4124 12.6251C4.64188 12.8359 3.83318 12.8666 3.04889 12.7148C3.38362 13.7555 4.0349 14.6657 4.91183 15.3184C5.78875 15.971 6.84757 16.3337 7.94051 16.3556C6.08502 17.8131 3.79296 18.6037 1.43347 18.6C1.01504 18.5993 0.597015 18.5737 0.181641 18.5231C2.57862 20.0609 5.36695 20.8777 8.21481 20.8762Z" fill="white"/>
</svg>
