<svg width="25" height="20" viewBox="0 0 25 20" fill="none" xmlns="http://www.w3.org/2000/svg">
<path d="M7.88045 19.7031C16.9995 19.7031 21.9886 12.4261 21.9886 6.11747C21.9886 5.91289 21.9839 5.70377 21.9745 5.4992C22.945 4.82332 23.7826 3.98614 24.4478 3.02701C23.5439 3.41427 22.5842 3.66719 21.6015 3.77712C22.6362 3.17987 23.411 2.24161 23.7821 1.13627C22.8087 1.69179 21.7442 2.08366 20.6342 2.29508C19.8863 1.52983 18.8974 1.02314 17.8205 0.853357C16.7435 0.683571 15.6385 0.860145 14.6762 1.35578C13.714 1.85141 12.948 2.6385 12.4969 3.59535C12.0457 4.5522 11.9345 5.62552 12.1803 6.64937C10.2093 6.55412 8.28108 6.06107 6.52063 5.20217C4.76019 4.34327 3.20684 3.13771 1.96129 1.66363C1.32823 2.71467 1.13451 3.9584 1.41951 5.14203C1.7045 6.32567 2.44682 7.36041 3.49561 8.03594C2.70824 8.01187 1.93813 7.80773 1.24889 7.44039V7.49949C1.24818 8.60248 1.64417 9.67167 2.36952 10.5253C3.09488 11.3789 4.10484 11.9644 5.22773 12.182C4.49837 12.3742 3.73286 12.4022 2.99046 12.2638C3.30732 13.2124 3.92381 14.0421 4.75389 14.637C5.58398 15.232 6.58624 15.5625 7.6208 15.5825C5.86442 16.9111 3.69479 17.6317 1.46133 17.6283C1.06525 17.6277 0.669555 17.6043 0.276367 17.5583C2.54532 18.96 5.18471 19.7045 7.88045 19.7031Z" fill="#AE9E87"/>
</svg>
