<?xml version="1.0" encoding="utf-8"?><svg viewBox="0 0 43 22" xmlns="http://www.w3.org/2000/svg" xmlns:xlink="http://www.w3.org/1999/xlink"><style>:root>svg{display:none}:root>svg:target{display:block}</style><svg fill="none" viewBox="0 0 14 8" id="arrow-down-blue" xmlns="http://www.w3.org/2000/svg"><path d="M1 1l6 6 6-6" stroke="#A0C0D9" stroke-width="1.3" stroke-linecap="round" stroke-linejoin="round"/></svg><svg fill="none" viewBox="0 0 19 11" id="arrow-up" xmlns="http://www.w3.org/2000/svg"><path d="M1 10l8.5-8.5L18 10" stroke="#000"/></svg><svg fill="none" viewBox="0 0 43 21" id="badge-red" xmlns="http://www.w3.org/2000/svg"><path d="M1.458.113H41.109a1 1 0 011 1v18a1 1 0 01-1 1H1.554a1 1 0 01-.882-1.47l3.96-7.422a1 1 0 00.025-.894L.552 1.537A1 1 0 011.458.112z" fill="#E0251B"/></svg><svg fill="none" viewBox="0 0 22 21" id="btn-basket" xmlns="http://www.w3.org/2000/svg"><path d="M1 1h4.082l.99 4.082m0 0l2.09 8.623a1 1 0 00.972.764h9.427a1 1 0 00.978-.787l1.606-7.388a1 1 0 00-.977-1.212H6.07z" stroke="#fff" stroke-width="1.5" stroke-linecap="round" stroke-linejoin="round"/><circle cx="9.978" cy="18.959" r="2.041" fill="#fff"/><circle cx="18.142" cy="18.959" r="2.041" fill="#fff"/></svg><svg fill="none" viewBox="0 0 13 18" id="delivery-box" xmlns="http://www.w3.org/2000/svg"><path d="M12.382 7.623L6.542 4.93a.531.531 0 00-.417 0L.285 7.623A.507.507 0 000 8.078v6.713c0 .19.114.379.284.455l5.84 2.711a.531.531 0 00.418 0l5.84-2.692a.507.507 0 00.285-.455V8.097a.536.536 0 00-.285-.474zM5.651 16.27l-4.305-2.01V9.254l4.324 2.01v5.006h-.02zm.682-6.182L2.275 8.211l4.058-1.896 4.058 1.877-4.058 1.896zm4.987 4.172l-4.304 2.01v-5.006l4.323-2.01v5.006h-.019zM6.335 3.337a.68.68 0 00.683-.682V.683A.68.68 0 006.335 0a.68.68 0 00-.683.683v1.99c0 .36.304.664.683.664zM8.913 4.077a.606.606 0 00.36.095.667.667 0 00.57-.323l1.042-1.668c.19-.323.095-.74-.208-.93a.655.655 0 00-.93.21L8.706 3.147c-.209.303-.114.72.208.929zM2.826 3.85a.667.667 0 00.569.322.85.85 0 00.36-.095.655.655 0 00.208-.93L2.92 1.46a.655.655 0 00-.929-.209.655.655 0 00-.208.93l1.043 1.668z" fill="#009A40"/></svg><svg fill="none" viewBox="0 0 24 22" id="empty-star" xmlns="http://www.w3.org/2000/svg"><path d="M11.987 0l3.544 6.898 7.656 1.24-5.465 5.502 1.187 7.664-6.922-3.498-6.922 3.498 1.188-7.664L.787 8.137l7.656-1.239L11.987 0z" fill="#D5E1EA"/></svg><svg fill="none" viewBox="0 0 16 17" id="filters" xmlns="http://www.w3.org/2000/svg"><path d="M0 2.429c0-.161.065-.316.18-.43a.62.62 0 01.435-.178h1.847v-.425A1.38 1.38 0 012.876.41a1.417 1.417 0 011-.409H5.97c.376 0 .736.147 1.001.409.266.262.415.617.415.987v.425h8A.62.62 0 0115.82 2a.603.603 0 010 .859.62.62 0 01-.435.178h-8v.425a1.38 1.38 0 01-.415.987 1.417 1.417 0 01-1 .41H3.876a1.432 1.432 0 01-1-.41 1.395 1.395 0 01-.415-.987v-.425H.615a.62.62 0 01-.435-.178.603.603 0 01-.18-.43zM1.846 8.5a.601.601 0 00.38.56.623.623 0 00.67-.13.605.605 0 00-.434-1.037.62.62 0 00-.436.178.603.603 0 00-.18.429zm13.539-.607h-2.462v-.425a1.379 1.379 0 00-.415-.988 1.416 1.416 0 00-1-.409H9.415a1.432 1.432 0 00-1 .41A1.395 1.395 0 008 7.467v.425H4.308a.62.62 0 00-.435.178.603.603 0 000 .858.62.62 0 00.435.178H8v.425a1.38 1.38 0 00.415.988 1.418 1.418 0 001 .409h2.093a1.431 1.431 0 001-.41 1.393 1.393 0 00.415-.987v-.425h2.462a.62.62 0 00.435-.178.603.603 0 000-.858.62.62 0 00-.435-.178zm0 6.071h-8v-.425c0-.37-.15-.725-.415-.987a1.425 1.425 0 00-1-.41H3.876a1.432 1.432 0 00-1 .41 1.395 1.395 0 00-.415.987v.425H.615a.62.62 0 00-.435.178.603.603 0 000 .859.62.62 0 00.435.178h1.847v.425a1.38 1.38 0 00.414.987 1.417 1.417 0 001 .409H5.97c.376 0 .736-.147 1.001-.409.266-.262.415-.617.415-.987v-.425h8A.62.62 0 0015.82 15a.603.603 0 000-.859.62.62 0 00-.435-.178zM.615 9.107a.621.621 0 00.569-.375.6.6 0 00-.133-.661A.618.618 0 000 8.5c0 .161.065.315.18.43a.62.62 0 00.435.177z" fill="#000"/></svg><svg fill="none" viewBox="0 0 15 18" id="home" xmlns="http://www.w3.org/2000/svg"><path d="M.5 17.5V6.53l6.588-5.6a.5.5 0 01.648 0l6.587 5.6V17.5H.5z" stroke="#000"/><path d="M10.087 12.706V17.5H4.734v-4.794a2.676 2.676 0 115.353 0z" stroke="#000"/></svg><svg fill="none" viewBox="0 0 23 22" id="red-star" xmlns="http://www.w3.org/2000/svg"><path d="M11.777 0l3.544 6.898 7.656 1.24-5.466 5.502 1.188 7.664-6.923-3.498-6.922 3.498 1.188-7.664L.576 8.137l7.656-1.239L11.777 0z" fill="#DA291C"/></svg><svg fill="none" viewBox="0 0 12 11" id="refresh" xmlns="http://www.w3.org/2000/svg"><path d="M7.868 10.475c-.6.288-1.259.472-1.954.525V9.283c.387-.043.76-.13 1.102-.281l.852 1.473zM1.717 5.087H0C.218 2.247 2.594 0 5.49 0c1.703 0 3.304.797 4.339 2.119l1.585-.916.003 5.242-4.541-2.618 1.46-.845a3.826 3.826 0 00-2.847-1.286c-1.959 0-3.558 1.488-3.772 3.39zM8.55 7.767l1.483.856a5.573 5.573 0 01-1.43 1.431l-.857-1.483a3.85 3.85 0 00.803-.804zM5.066 9.283V11a5.458 5.458 0 01-1.953-.525l.85-1.473c.344.15.717.238 1.103.28zM3.233 8.57l-.856 1.484A5.563 5.563 0 01.945 8.623l1.484-.856c.227.306.497.577.804.804zM1.997 7.037l-1.472.85A5.453 5.453 0 010 5.935h1.717c.043.386.13.759.28 1.102z" fill="#000"/></svg><svg fill="none" viewBox="0 0 37 19" id="section-arrow-right" xmlns="http://www.w3.org/2000/svg"><path d="M27 2l7.5 7.5m0 0L27 17m7.5-7.5H0" stroke="#fff" stroke-width="3"/></svg><svg fill="none" viewBox="0 0 12 7" id="select-arrow-down" xmlns="http://www.w3.org/2000/svg"><path d="M1 1l5 5 5-5" stroke="#000"/></svg></svg>